%TF.GenerationSoftware,KiCad,Pcbnew,(5.1.10)-1*%
%TF.CreationDate,2022-12-19T12:38:44+09:00*%
%TF.ProjectId,USB_JST-XH_Converter,5553425f-4a53-4542-9d58-485f436f6e76,rev?*%
%TF.SameCoordinates,Original*%
%TF.FileFunction,Soldermask,Bot*%
%TF.FilePolarity,Negative*%
%FSLAX46Y46*%
G04 Gerber Fmt 4.6, Leading zero omitted, Abs format (unit mm)*
G04 Created by KiCad (PCBNEW (5.1.10)-1) date 2022-12-19 12:38:44*
%MOMM*%
%LPD*%
G01*
G04 APERTURE LIST*
%ADD10C,7.213600*%
%ADD11C,3.200000*%
%ADD12O,1.700000X1.000000*%
%ADD13C,1.711200*%
%ADD14C,1.511200*%
%ADD15C,1.853200*%
%ADD16O,1.727200X3.251200*%
G04 APERTURE END LIST*
D10*
%TO.C,H4*%
X171871100Y-118328600D03*
D11*
X171871100Y-118328600D03*
%TD*%
D10*
%TO.C,H1*%
X125131100Y-91628600D03*
D11*
X125131100Y-91628600D03*
%TD*%
D12*
%TO.C,USB1*%
X169771100Y-108748600D03*
X173571100Y-108748600D03*
X173571100Y-100108600D03*
X169771100Y-100108600D03*
%TD*%
%TO.C,PORT1*%
G36*
G01*
X126398400Y-102608000D02*
X126398400Y-101100000D01*
G75*
G02*
X126500000Y-100998400I101600J0D01*
G01*
X128008000Y-100998400D01*
G75*
G02*
X128109600Y-101100000I0J-101600D01*
G01*
X128109600Y-102608000D01*
G75*
G02*
X128008000Y-102709600I-101600J0D01*
G01*
X126500000Y-102709600D01*
G75*
G02*
X126398400Y-102608000I0J101600D01*
G01*
G37*
D13*
X124714000Y-101854000D03*
%TD*%
%TO.C,PORT2*%
G36*
G01*
X134375500Y-102608000D02*
X134375500Y-101100000D01*
G75*
G02*
X134477100Y-100998400I101600J0D01*
G01*
X135985100Y-100998400D01*
G75*
G02*
X136086700Y-101100000I0J-101600D01*
G01*
X136086700Y-102608000D01*
G75*
G02*
X135985100Y-102709600I-101600J0D01*
G01*
X134477100Y-102709600D01*
G75*
G02*
X134375500Y-102608000I0J101600D01*
G01*
G37*
X132691100Y-101854000D03*
%TD*%
%TO.C,PORT3*%
G36*
G01*
X142400400Y-102608000D02*
X142400400Y-101100000D01*
G75*
G02*
X142502000Y-100998400I101600J0D01*
G01*
X144010000Y-100998400D01*
G75*
G02*
X144111600Y-101100000I0J-101600D01*
G01*
X144111600Y-102608000D01*
G75*
G02*
X144010000Y-102709600I-101600J0D01*
G01*
X142502000Y-102709600D01*
G75*
G02*
X142400400Y-102608000I0J101600D01*
G01*
G37*
X140716000Y-101854000D03*
%TD*%
%TO.C,PORT4*%
G36*
G01*
X134385500Y-111172600D02*
X134385500Y-109664600D01*
G75*
G02*
X134487100Y-109563000I101600J0D01*
G01*
X135995100Y-109563000D01*
G75*
G02*
X136096700Y-109664600I0J-101600D01*
G01*
X136096700Y-111172600D01*
G75*
G02*
X135995100Y-111274200I-101600J0D01*
G01*
X134487100Y-111274200D01*
G75*
G02*
X134385500Y-111172600I0J101600D01*
G01*
G37*
X132701100Y-110418600D03*
%TD*%
%TO.C,PORT5*%
G36*
G01*
X142375500Y-111202600D02*
X142375500Y-109694600D01*
G75*
G02*
X142477100Y-109593000I101600J0D01*
G01*
X143985100Y-109593000D01*
G75*
G02*
X144086700Y-109694600I0J-101600D01*
G01*
X144086700Y-111202600D01*
G75*
G02*
X143985100Y-111304200I-101600J0D01*
G01*
X142477100Y-111304200D01*
G75*
G02*
X142375500Y-111202600I0J101600D01*
G01*
G37*
X140691100Y-110448600D03*
%TD*%
D14*
%TO.C,SW1*%
X164571100Y-120518600D03*
X164571100Y-115518600D03*
X164571100Y-118018600D03*
%TD*%
D10*
%TO.C,H2*%
X125131100Y-118328600D03*
D11*
X125131100Y-118328600D03*
%TD*%
D10*
%TO.C,H3*%
X171871100Y-91628600D03*
D11*
X171871100Y-91628600D03*
%TD*%
%TO.C,SWITCH*%
G36*
G01*
X133985500Y-119682600D02*
X133985500Y-118174600D01*
G75*
G02*
X134087100Y-118073000I101600J0D01*
G01*
X135595100Y-118073000D01*
G75*
G02*
X135696700Y-118174600I0J-101600D01*
G01*
X135696700Y-119682600D01*
G75*
G02*
X135595100Y-119784200I-101600J0D01*
G01*
X134087100Y-119784200D01*
G75*
G02*
X133985500Y-119682600I0J101600D01*
G01*
G37*
D13*
X132301100Y-118928600D03*
%TD*%
%TO.C,CTRL*%
G36*
G01*
X141985500Y-119682600D02*
X141985500Y-118174600D01*
G75*
G02*
X142087100Y-118073000I101600J0D01*
G01*
X143595100Y-118073000D01*
G75*
G02*
X143696700Y-118174600I0J-101600D01*
G01*
X143696700Y-119682600D01*
G75*
G02*
X143595100Y-119784200I-101600J0D01*
G01*
X142087100Y-119784200D01*
G75*
G02*
X141985500Y-119682600I0J101600D01*
G01*
G37*
X140301100Y-118928600D03*
%TD*%
%TO.C,CTRLSP*%
G36*
G01*
X149985500Y-119682600D02*
X149985500Y-118174600D01*
G75*
G02*
X150087100Y-118073000I101600J0D01*
G01*
X151595100Y-118073000D01*
G75*
G02*
X151696700Y-118174600I0J-101600D01*
G01*
X151696700Y-119682600D01*
G75*
G02*
X151595100Y-119784200I-101600J0D01*
G01*
X150087100Y-119784200D01*
G75*
G02*
X149985500Y-119682600I0J101600D01*
G01*
G37*
X148301100Y-118928600D03*
%TD*%
D15*
%TO.C,TP1*%
X155621100Y-118928600D03*
X158121100Y-116428600D03*
X160621100Y-118928600D03*
%TD*%
D16*
%TO.C,JP1*%
X124301100Y-109928600D03*
X126841100Y-109928600D03*
%TD*%
%TO.C,POWER*%
G36*
G01*
X151255500Y-93682600D02*
X151255500Y-92174600D01*
G75*
G02*
X151357100Y-92073000I101600J0D01*
G01*
X152865100Y-92073000D01*
G75*
G02*
X152966700Y-92174600I0J-101600D01*
G01*
X152966700Y-93682600D01*
G75*
G02*
X152865100Y-93784200I-101600J0D01*
G01*
X151357100Y-93784200D01*
G75*
G02*
X151255500Y-93682600I0J101600D01*
G01*
G37*
D13*
X149571100Y-92928600D03*
X147031100Y-92928600D03*
%TD*%
%TO.C,THRU*%
G36*
G01*
X163255500Y-93682600D02*
X163255500Y-92174600D01*
G75*
G02*
X163357100Y-92073000I101600J0D01*
G01*
X164865100Y-92073000D01*
G75*
G02*
X164966700Y-92174600I0J-101600D01*
G01*
X164966700Y-93682600D01*
G75*
G02*
X164865100Y-93784200I-101600J0D01*
G01*
X163357100Y-93784200D01*
G75*
G02*
X163255500Y-93682600I0J101600D01*
G01*
G37*
X161571100Y-92928600D03*
X159031100Y-92928600D03*
%TD*%
M02*
