%TF.GenerationSoftware,KiCad,Pcbnew,(5.1.10)-1*%
%TF.CreationDate,2022-10-31T19:27:20+09:00*%
%TF.ProjectId,USB_JST-XH_Converter,5553425f-4a53-4542-9d58-485f436f6e76,rev?*%
%TF.SameCoordinates,Original*%
%TF.FileFunction,Copper,L1,Top*%
%TF.FilePolarity,Positive*%
%FSLAX46Y46*%
G04 Gerber Fmt 4.6, Leading zero omitted, Abs format (unit mm)*
G04 Created by KiCad (PCBNEW (5.1.10)-1) date 2022-10-31 19:27:20*
%MOMM*%
%LPD*%
G01*
G04 APERTURE LIST*
%TA.AperFunction,ComponentPad*%
%ADD10R,1.508000X1.508000*%
%TD*%
%TA.AperFunction,ComponentPad*%
%ADD11C,1.508000*%
%TD*%
%TA.AperFunction,ComponentPad*%
%ADD12O,1.650000X3.300000*%
%TD*%
%TA.AperFunction,SMDPad,CuDef*%
%ADD13R,0.900000X4.500000*%
%TD*%
%TA.AperFunction,ComponentPad*%
%ADD14C,1.308000*%
%TD*%
%TA.AperFunction,ComponentPad*%
%ADD15C,1.950000*%
%TD*%
%TA.AperFunction,SMDPad,CuDef*%
%ADD16R,0.800000X0.800000*%
%TD*%
%TA.AperFunction,SMDPad,CuDef*%
%ADD17R,1.400000X1.650000*%
%TD*%
%TA.AperFunction,ViaPad*%
%ADD18C,0.756400*%
%TD*%
%TA.AperFunction,Conductor*%
%ADD19C,0.500000*%
%TD*%
%TA.AperFunction,Conductor*%
%ADD20C,0.152400*%
%TD*%
%TA.AperFunction,Conductor*%
%ADD21C,0.076200*%
%TD*%
%TA.AperFunction,Conductor*%
%ADD22C,0.100000*%
%TD*%
G04 APERTURE END LIST*
D10*
%TO.P,PORT1,1*%
%TO.N,SGND*%
X135131100Y-93928600D03*
D11*
%TO.P,PORT1,2*%
%TO.N,VCC*%
X132591100Y-93928600D03*
%TD*%
D10*
%TO.P,PORT10,1*%
%TO.N,SGND*%
X143631100Y-111018600D03*
D11*
%TO.P,PORT10,2*%
%TO.N,VCC*%
X141091100Y-111018600D03*
%TD*%
D10*
%TO.P,PORT11,1*%
%TO.N,SGND*%
X152231100Y-111018600D03*
D11*
%TO.P,PORT11,2*%
%TO.N,VCC*%
X149691100Y-111018600D03*
%TD*%
D10*
%TO.P,PORT12,1*%
%TO.N,SGND*%
X135131100Y-119018600D03*
D11*
%TO.P,PORT12,2*%
%TO.N,VCC*%
X132591100Y-119018600D03*
%TD*%
D10*
%TO.P,PORT2,1*%
%TO.N,SGND*%
X143631100Y-93928600D03*
D11*
%TO.P,PORT2,2*%
%TO.N,VCC*%
X141091100Y-93928600D03*
%TD*%
D10*
%TO.P,PORT3,1*%
%TO.N,SGND*%
X152231100Y-93928600D03*
D11*
%TO.P,PORT3,2*%
%TO.N,VCC*%
X149691100Y-93928600D03*
%TD*%
D10*
%TO.P,PORT4,1*%
%TO.N,SGND*%
X126541100Y-102618600D03*
D11*
%TO.P,PORT4,2*%
%TO.N,VCC*%
X124001100Y-102618600D03*
%TD*%
D10*
%TO.P,PORT5,1*%
%TO.N,SGND*%
X135131100Y-102648600D03*
D11*
%TO.P,PORT5,2*%
%TO.N,VCC*%
X132591100Y-102648600D03*
%TD*%
D10*
%TO.P,PORT6,1*%
%TO.N,SGND*%
X143631100Y-102668600D03*
D11*
%TO.P,PORT6,2*%
%TO.N,VCC*%
X141091100Y-102668600D03*
%TD*%
D10*
%TO.P,PORT7,1*%
%TO.N,SGND*%
X152231100Y-102688600D03*
D11*
%TO.P,PORT7,2*%
%TO.N,VCC*%
X149691100Y-102688600D03*
%TD*%
D10*
%TO.P,PORT8,1*%
%TO.N,SGND*%
X126631100Y-111018600D03*
D11*
%TO.P,PORT8,2*%
%TO.N,VCC*%
X124091100Y-111018600D03*
%TD*%
D10*
%TO.P,PORT9,1*%
%TO.N,SGND*%
X135131100Y-111018600D03*
D11*
%TO.P,PORT9,2*%
%TO.N,VCC*%
X132591100Y-111018600D03*
%TD*%
D12*
%TO.P,USB1,GND2*%
%TO.N,GND*%
X165031100Y-118618600D03*
%TO.P,USB1,GND1*%
X157931100Y-118618600D03*
D13*
%TO.P,USB1,USB-*%
X162781100Y-112718600D03*
%TO.P,USB1,USB+*%
%TO.N,VCC*%
X160181100Y-112718600D03*
%TD*%
D14*
%TO.P,SW1,L*%
%TO.N,N/C*%
X158981100Y-105978600D03*
%TO.P,SW1,R*%
%TO.N,N$1*%
X163981100Y-105978600D03*
%TO.P,SW1,C*%
%TO.N,VCC*%
X161481100Y-105978600D03*
%TD*%
D15*
%TO.P,C1,C-*%
%TO.N,GND*%
X165124100Y-96853600D03*
%TO.P,C1,C+*%
%TO.N,VCC*%
X160124100Y-96853600D03*
%TD*%
D10*
%TO.P,PORT13,1*%
%TO.N,SGND*%
X143631100Y-119018600D03*
D11*
%TO.P,PORT13,2*%
%TO.N,VCC*%
X141091100Y-119018600D03*
%TD*%
D10*
%TO.P,PORT14,1*%
%TO.N,SGND*%
X152231100Y-119018600D03*
D11*
%TO.P,PORT14,2*%
%TO.N,VCC*%
X149691100Y-119018600D03*
%TD*%
D16*
%TO.P,LED1,A*%
%TO.N,N$3*%
X170321100Y-106028600D03*
%TO.P,LED1,K*%
%TO.N,SGND*%
X171971100Y-106028600D03*
%TD*%
D17*
%TO.P,R3,RIGHT*%
%TO.N,VCC*%
X169971100Y-109428600D03*
%TO.P,R3,LEFT*%
%TO.N,N$3*%
X172571100Y-109428600D03*
%TD*%
D18*
%TO.N,SGND*%
X172871100Y-105128600D03*
%TD*%
D19*
%TO.N,GND*%
X162781100Y-112718600D02*
X162781100Y-116368600D01*
X162781100Y-116368600D02*
X165031100Y-118618600D01*
D20*
%TO.N,SGND*%
X171971100Y-106028600D02*
X172871100Y-105128600D01*
%TO.N,N$3*%
X172571100Y-109428600D02*
X170321100Y-107178600D01*
X170321100Y-107178600D02*
X170321100Y-106028600D01*
%TD*%
D21*
%TO.N,VCC*%
X173840335Y-87701740D02*
X174426364Y-87878673D01*
X174966864Y-88166061D01*
X175441252Y-88552962D01*
X175831455Y-89024637D01*
X176122613Y-89563121D01*
X176303633Y-90147901D01*
X176367932Y-90759670D01*
X176367999Y-90778820D01*
X176368000Y-90778830D01*
X176367999Y-119225512D01*
X176307960Y-119837835D01*
X176131027Y-120423864D01*
X175843637Y-120964367D01*
X175456735Y-121438755D01*
X174985065Y-121828954D01*
X174446580Y-122120112D01*
X173861799Y-122301133D01*
X173250030Y-122365432D01*
X173230880Y-122365499D01*
X123774188Y-122365499D01*
X123161865Y-122305460D01*
X122575836Y-122128527D01*
X122035333Y-121841137D01*
X121560945Y-121454235D01*
X121170746Y-120982565D01*
X120879588Y-120444080D01*
X120698567Y-119859299D01*
X120634268Y-119247530D01*
X120634201Y-119228380D01*
X120634201Y-118442251D01*
X122590600Y-118442251D01*
X122590600Y-118794949D01*
X122659408Y-119140869D01*
X122794380Y-119466720D01*
X122990328Y-119759977D01*
X123239723Y-120009372D01*
X123532980Y-120205320D01*
X123858831Y-120340292D01*
X124204751Y-120409100D01*
X124557449Y-120409100D01*
X124903369Y-120340292D01*
X125229220Y-120205320D01*
X125522477Y-120009372D01*
X125771872Y-119759977D01*
X125967820Y-119466720D01*
X126102792Y-119140869D01*
X126171600Y-118794949D01*
X126171600Y-118442251D01*
X126136263Y-118264600D01*
X134185679Y-118264600D01*
X134185679Y-119772600D01*
X134189357Y-119809944D01*
X134200250Y-119845854D01*
X134217939Y-119878948D01*
X134241745Y-119907955D01*
X134270752Y-119931761D01*
X134303846Y-119949450D01*
X134339756Y-119960343D01*
X134377100Y-119964021D01*
X135885100Y-119964021D01*
X135922444Y-119960343D01*
X135958354Y-119949450D01*
X135991448Y-119931761D01*
X136020455Y-119907955D01*
X136044261Y-119878948D01*
X136061950Y-119845854D01*
X136072843Y-119809944D01*
X136076521Y-119772600D01*
X136076521Y-118264600D01*
X142685679Y-118264600D01*
X142685679Y-119772600D01*
X142689357Y-119809944D01*
X142700250Y-119845854D01*
X142717939Y-119878948D01*
X142741745Y-119907955D01*
X142770752Y-119931761D01*
X142803846Y-119949450D01*
X142839756Y-119960343D01*
X142877100Y-119964021D01*
X144385100Y-119964021D01*
X144422444Y-119960343D01*
X144458354Y-119949450D01*
X144491448Y-119931761D01*
X144520455Y-119907955D01*
X144544261Y-119878948D01*
X144561950Y-119845854D01*
X144572843Y-119809944D01*
X144576521Y-119772600D01*
X144576521Y-118264600D01*
X151285679Y-118264600D01*
X151285679Y-119772600D01*
X151289357Y-119809944D01*
X151300250Y-119845854D01*
X151317939Y-119878948D01*
X151341745Y-119907955D01*
X151370752Y-119931761D01*
X151403846Y-119949450D01*
X151439756Y-119960343D01*
X151477100Y-119964021D01*
X152985100Y-119964021D01*
X153022444Y-119960343D01*
X153058354Y-119949450D01*
X153091448Y-119931761D01*
X153120455Y-119907955D01*
X153144261Y-119878948D01*
X153161950Y-119845854D01*
X153172843Y-119809944D01*
X153176521Y-119772600D01*
X153176521Y-118264600D01*
X153172843Y-118227256D01*
X153161950Y-118191346D01*
X153144261Y-118158252D01*
X153120455Y-118129245D01*
X153091448Y-118105439D01*
X153058354Y-118087750D01*
X153022444Y-118076857D01*
X152985100Y-118073179D01*
X151477100Y-118073179D01*
X151439756Y-118076857D01*
X151403846Y-118087750D01*
X151370752Y-118105439D01*
X151341745Y-118129245D01*
X151317939Y-118158252D01*
X151300250Y-118191346D01*
X151289357Y-118227256D01*
X151285679Y-118264600D01*
X144576521Y-118264600D01*
X144572843Y-118227256D01*
X144561950Y-118191346D01*
X144544261Y-118158252D01*
X144520455Y-118129245D01*
X144491448Y-118105439D01*
X144458354Y-118087750D01*
X144422444Y-118076857D01*
X144385100Y-118073179D01*
X142877100Y-118073179D01*
X142839756Y-118076857D01*
X142803846Y-118087750D01*
X142770752Y-118105439D01*
X142741745Y-118129245D01*
X142717939Y-118158252D01*
X142700250Y-118191346D01*
X142689357Y-118227256D01*
X142685679Y-118264600D01*
X136076521Y-118264600D01*
X136072843Y-118227256D01*
X136061950Y-118191346D01*
X136044261Y-118158252D01*
X136020455Y-118129245D01*
X135991448Y-118105439D01*
X135958354Y-118087750D01*
X135922444Y-118076857D01*
X135885100Y-118073179D01*
X134377100Y-118073179D01*
X134339756Y-118076857D01*
X134303846Y-118087750D01*
X134270752Y-118105439D01*
X134241745Y-118129245D01*
X134217939Y-118158252D01*
X134200250Y-118191346D01*
X134189357Y-118227256D01*
X134185679Y-118264600D01*
X126136263Y-118264600D01*
X126102792Y-118096331D01*
X125967820Y-117770480D01*
X125949939Y-117743719D01*
X156915600Y-117743719D01*
X156915601Y-119493482D01*
X156930295Y-119642673D01*
X156988362Y-119834095D01*
X157082659Y-120010511D01*
X157209560Y-120165141D01*
X157364190Y-120292042D01*
X157540606Y-120386339D01*
X157732028Y-120444406D01*
X157931100Y-120464013D01*
X158130173Y-120444406D01*
X158321595Y-120386339D01*
X158498011Y-120292042D01*
X158652641Y-120165141D01*
X158779542Y-120010511D01*
X158873839Y-119834095D01*
X158931906Y-119642673D01*
X158946600Y-119493482D01*
X158946600Y-117743718D01*
X158931906Y-117594527D01*
X158873839Y-117403105D01*
X158779542Y-117226689D01*
X158652641Y-117072059D01*
X158498011Y-116945158D01*
X158321594Y-116850861D01*
X158130172Y-116792794D01*
X157931100Y-116773187D01*
X157732027Y-116792794D01*
X157540605Y-116850861D01*
X157364189Y-116945158D01*
X157209559Y-117072059D01*
X157082658Y-117226689D01*
X156988361Y-117403106D01*
X156930294Y-117594528D01*
X156915600Y-117743719D01*
X125949939Y-117743719D01*
X125771872Y-117477223D01*
X125522477Y-117227828D01*
X125229220Y-117031880D01*
X124903369Y-116896908D01*
X124557449Y-116828100D01*
X124204751Y-116828100D01*
X123858831Y-116896908D01*
X123532980Y-117031880D01*
X123239723Y-117227828D01*
X122990328Y-117477223D01*
X122794380Y-117770480D01*
X122659408Y-118096331D01*
X122590600Y-118442251D01*
X120634201Y-118442251D01*
X120634201Y-110264600D01*
X125685679Y-110264600D01*
X125685679Y-111772600D01*
X125689357Y-111809944D01*
X125700250Y-111845854D01*
X125717939Y-111878948D01*
X125741745Y-111907955D01*
X125770752Y-111931761D01*
X125803846Y-111949450D01*
X125839756Y-111960343D01*
X125877100Y-111964021D01*
X127385100Y-111964021D01*
X127422444Y-111960343D01*
X127458354Y-111949450D01*
X127491448Y-111931761D01*
X127520455Y-111907955D01*
X127544261Y-111878948D01*
X127561950Y-111845854D01*
X127572843Y-111809944D01*
X127576521Y-111772600D01*
X127576521Y-110264600D01*
X134185679Y-110264600D01*
X134185679Y-111772600D01*
X134189357Y-111809944D01*
X134200250Y-111845854D01*
X134217939Y-111878948D01*
X134241745Y-111907955D01*
X134270752Y-111931761D01*
X134303846Y-111949450D01*
X134339756Y-111960343D01*
X134377100Y-111964021D01*
X135885100Y-111964021D01*
X135922444Y-111960343D01*
X135958354Y-111949450D01*
X135991448Y-111931761D01*
X136020455Y-111907955D01*
X136044261Y-111878948D01*
X136061950Y-111845854D01*
X136072843Y-111809944D01*
X136076521Y-111772600D01*
X136076521Y-110264600D01*
X142685679Y-110264600D01*
X142685679Y-111772600D01*
X142689357Y-111809944D01*
X142700250Y-111845854D01*
X142717939Y-111878948D01*
X142741745Y-111907955D01*
X142770752Y-111931761D01*
X142803846Y-111949450D01*
X142839756Y-111960343D01*
X142877100Y-111964021D01*
X144385100Y-111964021D01*
X144422444Y-111960343D01*
X144458354Y-111949450D01*
X144491448Y-111931761D01*
X144520455Y-111907955D01*
X144544261Y-111878948D01*
X144561950Y-111845854D01*
X144572843Y-111809944D01*
X144576521Y-111772600D01*
X144576521Y-110264600D01*
X151285679Y-110264600D01*
X151285679Y-111772600D01*
X151289357Y-111809944D01*
X151300250Y-111845854D01*
X151317939Y-111878948D01*
X151341745Y-111907955D01*
X151370752Y-111931761D01*
X151403846Y-111949450D01*
X151439756Y-111960343D01*
X151477100Y-111964021D01*
X152985100Y-111964021D01*
X153022444Y-111960343D01*
X153058354Y-111949450D01*
X153091448Y-111931761D01*
X153120455Y-111907955D01*
X153144261Y-111878948D01*
X153161950Y-111845854D01*
X153172843Y-111809944D01*
X153176521Y-111772600D01*
X153176521Y-110468600D01*
X162139679Y-110468600D01*
X162139679Y-114968600D01*
X162143357Y-115005944D01*
X162154250Y-115041854D01*
X162171939Y-115074948D01*
X162195745Y-115103955D01*
X162224752Y-115127761D01*
X162257846Y-115145450D01*
X162293756Y-115156343D01*
X162331100Y-115160021D01*
X162340601Y-115160021D01*
X162340601Y-116346961D01*
X162338470Y-116368600D01*
X162346974Y-116454952D01*
X162372162Y-116537987D01*
X162372163Y-116537988D01*
X162413067Y-116614513D01*
X162468114Y-116681587D01*
X162484917Y-116695377D01*
X164015600Y-118226061D01*
X164015601Y-119493482D01*
X164030295Y-119642673D01*
X164088362Y-119834095D01*
X164182659Y-120010511D01*
X164309560Y-120165141D01*
X164464190Y-120292042D01*
X164640606Y-120386339D01*
X164832028Y-120444406D01*
X165031100Y-120464013D01*
X165230173Y-120444406D01*
X165421595Y-120386339D01*
X165598011Y-120292042D01*
X165752641Y-120165141D01*
X165879542Y-120010511D01*
X165973839Y-119834095D01*
X166031906Y-119642673D01*
X166046600Y-119493482D01*
X166046600Y-118442251D01*
X170850600Y-118442251D01*
X170850600Y-118794949D01*
X170919408Y-119140869D01*
X171054380Y-119466720D01*
X171250328Y-119759977D01*
X171499723Y-120009372D01*
X171792980Y-120205320D01*
X172118831Y-120340292D01*
X172464751Y-120409100D01*
X172817449Y-120409100D01*
X173163369Y-120340292D01*
X173489220Y-120205320D01*
X173782477Y-120009372D01*
X174031872Y-119759977D01*
X174227820Y-119466720D01*
X174362792Y-119140869D01*
X174431600Y-118794949D01*
X174431600Y-118442251D01*
X174362792Y-118096331D01*
X174227820Y-117770480D01*
X174031872Y-117477223D01*
X173782477Y-117227828D01*
X173489220Y-117031880D01*
X173163369Y-116896908D01*
X172817449Y-116828100D01*
X172464751Y-116828100D01*
X172118831Y-116896908D01*
X171792980Y-117031880D01*
X171499723Y-117227828D01*
X171250328Y-117477223D01*
X171054380Y-117770480D01*
X170919408Y-118096331D01*
X170850600Y-118442251D01*
X166046600Y-118442251D01*
X166046600Y-117743718D01*
X166031906Y-117594527D01*
X165973839Y-117403105D01*
X165879542Y-117226689D01*
X165752641Y-117072059D01*
X165598011Y-116945158D01*
X165421594Y-116850861D01*
X165230172Y-116792794D01*
X165031100Y-116773187D01*
X164832027Y-116792794D01*
X164640605Y-116850861D01*
X164464189Y-116945158D01*
X164309559Y-117072059D01*
X164218489Y-117183029D01*
X163221600Y-116186140D01*
X163221600Y-115160021D01*
X163231100Y-115160021D01*
X163268444Y-115156343D01*
X163304354Y-115145450D01*
X163337448Y-115127761D01*
X163366455Y-115103955D01*
X163390261Y-115074948D01*
X163407950Y-115041854D01*
X163418843Y-115005944D01*
X163422521Y-114968600D01*
X163422521Y-110468600D01*
X163418843Y-110431256D01*
X163407950Y-110395346D01*
X163390261Y-110362252D01*
X163366455Y-110333245D01*
X163337448Y-110309439D01*
X163304354Y-110291750D01*
X163268444Y-110280857D01*
X163231100Y-110277179D01*
X162331100Y-110277179D01*
X162293756Y-110280857D01*
X162257846Y-110291750D01*
X162224752Y-110309439D01*
X162195745Y-110333245D01*
X162171939Y-110362252D01*
X162154250Y-110395346D01*
X162143357Y-110431256D01*
X162139679Y-110468600D01*
X153176521Y-110468600D01*
X153176521Y-110264600D01*
X153172843Y-110227256D01*
X153161950Y-110191346D01*
X153144261Y-110158252D01*
X153120455Y-110129245D01*
X153091448Y-110105439D01*
X153058354Y-110087750D01*
X153022444Y-110076857D01*
X152985100Y-110073179D01*
X151477100Y-110073179D01*
X151439756Y-110076857D01*
X151403846Y-110087750D01*
X151370752Y-110105439D01*
X151341745Y-110129245D01*
X151317939Y-110158252D01*
X151300250Y-110191346D01*
X151289357Y-110227256D01*
X151285679Y-110264600D01*
X144576521Y-110264600D01*
X144572843Y-110227256D01*
X144561950Y-110191346D01*
X144544261Y-110158252D01*
X144520455Y-110129245D01*
X144491448Y-110105439D01*
X144458354Y-110087750D01*
X144422444Y-110076857D01*
X144385100Y-110073179D01*
X142877100Y-110073179D01*
X142839756Y-110076857D01*
X142803846Y-110087750D01*
X142770752Y-110105439D01*
X142741745Y-110129245D01*
X142717939Y-110158252D01*
X142700250Y-110191346D01*
X142689357Y-110227256D01*
X142685679Y-110264600D01*
X136076521Y-110264600D01*
X136072843Y-110227256D01*
X136061950Y-110191346D01*
X136044261Y-110158252D01*
X136020455Y-110129245D01*
X135991448Y-110105439D01*
X135958354Y-110087750D01*
X135922444Y-110076857D01*
X135885100Y-110073179D01*
X134377100Y-110073179D01*
X134339756Y-110076857D01*
X134303846Y-110087750D01*
X134270752Y-110105439D01*
X134241745Y-110129245D01*
X134217939Y-110158252D01*
X134200250Y-110191346D01*
X134189357Y-110227256D01*
X134185679Y-110264600D01*
X127576521Y-110264600D01*
X127572843Y-110227256D01*
X127561950Y-110191346D01*
X127544261Y-110158252D01*
X127520455Y-110129245D01*
X127491448Y-110105439D01*
X127458354Y-110087750D01*
X127422444Y-110076857D01*
X127385100Y-110073179D01*
X125877100Y-110073179D01*
X125839756Y-110076857D01*
X125803846Y-110087750D01*
X125770752Y-110105439D01*
X125741745Y-110129245D01*
X125717939Y-110158252D01*
X125700250Y-110191346D01*
X125689357Y-110227256D01*
X125685679Y-110264600D01*
X120634201Y-110264600D01*
X120634201Y-105895424D01*
X158136600Y-105895424D01*
X158136600Y-106061776D01*
X158169054Y-106224932D01*
X158232714Y-106378621D01*
X158325134Y-106516937D01*
X158442763Y-106634566D01*
X158581079Y-106726986D01*
X158734768Y-106790646D01*
X158897924Y-106823100D01*
X159064276Y-106823100D01*
X159227432Y-106790646D01*
X159381121Y-106726986D01*
X159519437Y-106634566D01*
X159637066Y-106516937D01*
X159729486Y-106378621D01*
X159793146Y-106224932D01*
X159825600Y-106061776D01*
X159825600Y-105895424D01*
X163136600Y-105895424D01*
X163136600Y-106061776D01*
X163169054Y-106224932D01*
X163232714Y-106378621D01*
X163325134Y-106516937D01*
X163442763Y-106634566D01*
X163581079Y-106726986D01*
X163734768Y-106790646D01*
X163897924Y-106823100D01*
X164064276Y-106823100D01*
X164227432Y-106790646D01*
X164381121Y-106726986D01*
X164519437Y-106634566D01*
X164637066Y-106516937D01*
X164729486Y-106378621D01*
X164793146Y-106224932D01*
X164825600Y-106061776D01*
X164825600Y-105895424D01*
X164793146Y-105732268D01*
X164750206Y-105628600D01*
X169729679Y-105628600D01*
X169729679Y-106428600D01*
X169733357Y-106465944D01*
X169744250Y-106501854D01*
X169761939Y-106534948D01*
X169785745Y-106563955D01*
X169814752Y-106587761D01*
X169847846Y-106605450D01*
X169883756Y-106616343D01*
X169921100Y-106620021D01*
X170054400Y-106620021D01*
X170054400Y-107165504D01*
X170053110Y-107178600D01*
X170054400Y-107191696D01*
X170054400Y-107191697D01*
X170058259Y-107230881D01*
X170073510Y-107281154D01*
X170098274Y-107327487D01*
X170131602Y-107368098D01*
X170141784Y-107376454D01*
X171679679Y-108914350D01*
X171679679Y-110253600D01*
X171683357Y-110290944D01*
X171694250Y-110326854D01*
X171711939Y-110359948D01*
X171735745Y-110388955D01*
X171764752Y-110412761D01*
X171797846Y-110430450D01*
X171833756Y-110441343D01*
X171871100Y-110445021D01*
X173271100Y-110445021D01*
X173308444Y-110441343D01*
X173344354Y-110430450D01*
X173377448Y-110412761D01*
X173406455Y-110388955D01*
X173430261Y-110359948D01*
X173447950Y-110326854D01*
X173458843Y-110290944D01*
X173462521Y-110253600D01*
X173462521Y-108603600D01*
X173458843Y-108566256D01*
X173447950Y-108530346D01*
X173430261Y-108497252D01*
X173406455Y-108468245D01*
X173377448Y-108444439D01*
X173344354Y-108426750D01*
X173308444Y-108415857D01*
X173271100Y-108412179D01*
X171931850Y-108412179D01*
X170587800Y-107068130D01*
X170587800Y-106620021D01*
X170721100Y-106620021D01*
X170758444Y-106616343D01*
X170794354Y-106605450D01*
X170827448Y-106587761D01*
X170856455Y-106563955D01*
X170880261Y-106534948D01*
X170897950Y-106501854D01*
X170908843Y-106465944D01*
X170912521Y-106428600D01*
X170912521Y-105628600D01*
X171379679Y-105628600D01*
X171379679Y-106428600D01*
X171383357Y-106465944D01*
X171394250Y-106501854D01*
X171411939Y-106534948D01*
X171435745Y-106563955D01*
X171464752Y-106587761D01*
X171497846Y-106605450D01*
X171533756Y-106616343D01*
X171571100Y-106620021D01*
X172371100Y-106620021D01*
X172408444Y-106616343D01*
X172444354Y-106605450D01*
X172477448Y-106587761D01*
X172506455Y-106563955D01*
X172530261Y-106534948D01*
X172547950Y-106501854D01*
X172558843Y-106465944D01*
X172562521Y-106428600D01*
X172562521Y-105814349D01*
X172702535Y-105674335D01*
X172705216Y-105675445D01*
X172815088Y-105697300D01*
X172927112Y-105697300D01*
X173036984Y-105675445D01*
X173140481Y-105632576D01*
X173233625Y-105570338D01*
X173312838Y-105491125D01*
X173375076Y-105397981D01*
X173417945Y-105294484D01*
X173439800Y-105184612D01*
X173439800Y-105072588D01*
X173417945Y-104962716D01*
X173375076Y-104859219D01*
X173312838Y-104766075D01*
X173233625Y-104686862D01*
X173140481Y-104624624D01*
X173036984Y-104581755D01*
X172927112Y-104559900D01*
X172815088Y-104559900D01*
X172705216Y-104581755D01*
X172601719Y-104624624D01*
X172508575Y-104686862D01*
X172429362Y-104766075D01*
X172367124Y-104859219D01*
X172324255Y-104962716D01*
X172302400Y-105072588D01*
X172302400Y-105184612D01*
X172324255Y-105294484D01*
X172325365Y-105297165D01*
X172185351Y-105437179D01*
X171571100Y-105437179D01*
X171533756Y-105440857D01*
X171497846Y-105451750D01*
X171464752Y-105469439D01*
X171435745Y-105493245D01*
X171411939Y-105522252D01*
X171394250Y-105555346D01*
X171383357Y-105591256D01*
X171379679Y-105628600D01*
X170912521Y-105628600D01*
X170908843Y-105591256D01*
X170897950Y-105555346D01*
X170880261Y-105522252D01*
X170856455Y-105493245D01*
X170827448Y-105469439D01*
X170794354Y-105451750D01*
X170758444Y-105440857D01*
X170721100Y-105437179D01*
X169921100Y-105437179D01*
X169883756Y-105440857D01*
X169847846Y-105451750D01*
X169814752Y-105469439D01*
X169785745Y-105493245D01*
X169761939Y-105522252D01*
X169744250Y-105555346D01*
X169733357Y-105591256D01*
X169729679Y-105628600D01*
X164750206Y-105628600D01*
X164729486Y-105578579D01*
X164637066Y-105440263D01*
X164519437Y-105322634D01*
X164381121Y-105230214D01*
X164227432Y-105166554D01*
X164064276Y-105134100D01*
X163897924Y-105134100D01*
X163734768Y-105166554D01*
X163581079Y-105230214D01*
X163442763Y-105322634D01*
X163325134Y-105440263D01*
X163232714Y-105578579D01*
X163169054Y-105732268D01*
X163136600Y-105895424D01*
X159825600Y-105895424D01*
X159793146Y-105732268D01*
X159729486Y-105578579D01*
X159637066Y-105440263D01*
X159519437Y-105322634D01*
X159381121Y-105230214D01*
X159227432Y-105166554D01*
X159064276Y-105134100D01*
X158897924Y-105134100D01*
X158734768Y-105166554D01*
X158581079Y-105230214D01*
X158442763Y-105322634D01*
X158325134Y-105440263D01*
X158232714Y-105578579D01*
X158169054Y-105732268D01*
X158136600Y-105895424D01*
X120634201Y-105895424D01*
X120634201Y-101864600D01*
X125595679Y-101864600D01*
X125595679Y-103372600D01*
X125599357Y-103409944D01*
X125610250Y-103445854D01*
X125627939Y-103478948D01*
X125651745Y-103507955D01*
X125680752Y-103531761D01*
X125713846Y-103549450D01*
X125749756Y-103560343D01*
X125787100Y-103564021D01*
X127295100Y-103564021D01*
X127332444Y-103560343D01*
X127368354Y-103549450D01*
X127401448Y-103531761D01*
X127430455Y-103507955D01*
X127454261Y-103478948D01*
X127471950Y-103445854D01*
X127482843Y-103409944D01*
X127486521Y-103372600D01*
X127486521Y-101894600D01*
X134185679Y-101894600D01*
X134185679Y-103402600D01*
X134189357Y-103439944D01*
X134200250Y-103475854D01*
X134217939Y-103508948D01*
X134241745Y-103537955D01*
X134270752Y-103561761D01*
X134303846Y-103579450D01*
X134339756Y-103590343D01*
X134377100Y-103594021D01*
X135885100Y-103594021D01*
X135922444Y-103590343D01*
X135958354Y-103579450D01*
X135991448Y-103561761D01*
X136020455Y-103537955D01*
X136044261Y-103508948D01*
X136061950Y-103475854D01*
X136072843Y-103439944D01*
X136076521Y-103402600D01*
X136076521Y-101914600D01*
X142685679Y-101914600D01*
X142685679Y-103422600D01*
X142689357Y-103459944D01*
X142700250Y-103495854D01*
X142717939Y-103528948D01*
X142741745Y-103557955D01*
X142770752Y-103581761D01*
X142803846Y-103599450D01*
X142839756Y-103610343D01*
X142877100Y-103614021D01*
X144385100Y-103614021D01*
X144422444Y-103610343D01*
X144458354Y-103599450D01*
X144491448Y-103581761D01*
X144520455Y-103557955D01*
X144544261Y-103528948D01*
X144561950Y-103495854D01*
X144572843Y-103459944D01*
X144576521Y-103422600D01*
X144576521Y-101934600D01*
X151285679Y-101934600D01*
X151285679Y-103442600D01*
X151289357Y-103479944D01*
X151300250Y-103515854D01*
X151317939Y-103548948D01*
X151341745Y-103577955D01*
X151370752Y-103601761D01*
X151403846Y-103619450D01*
X151439756Y-103630343D01*
X151477100Y-103634021D01*
X152985100Y-103634021D01*
X153022444Y-103630343D01*
X153058354Y-103619450D01*
X153091448Y-103601761D01*
X153120455Y-103577955D01*
X153144261Y-103548948D01*
X153161950Y-103515854D01*
X153172843Y-103479944D01*
X153176521Y-103442600D01*
X153176521Y-101934600D01*
X153172843Y-101897256D01*
X153161950Y-101861346D01*
X153144261Y-101828252D01*
X153120455Y-101799245D01*
X153091448Y-101775439D01*
X153058354Y-101757750D01*
X153022444Y-101746857D01*
X152985100Y-101743179D01*
X151477100Y-101743179D01*
X151439756Y-101746857D01*
X151403846Y-101757750D01*
X151370752Y-101775439D01*
X151341745Y-101799245D01*
X151317939Y-101828252D01*
X151300250Y-101861346D01*
X151289357Y-101897256D01*
X151285679Y-101934600D01*
X144576521Y-101934600D01*
X144576521Y-101914600D01*
X144572843Y-101877256D01*
X144561950Y-101841346D01*
X144544261Y-101808252D01*
X144520455Y-101779245D01*
X144491448Y-101755439D01*
X144458354Y-101737750D01*
X144422444Y-101726857D01*
X144385100Y-101723179D01*
X142877100Y-101723179D01*
X142839756Y-101726857D01*
X142803846Y-101737750D01*
X142770752Y-101755439D01*
X142741745Y-101779245D01*
X142717939Y-101808252D01*
X142700250Y-101841346D01*
X142689357Y-101877256D01*
X142685679Y-101914600D01*
X136076521Y-101914600D01*
X136076521Y-101894600D01*
X136072843Y-101857256D01*
X136061950Y-101821346D01*
X136044261Y-101788252D01*
X136020455Y-101759245D01*
X135991448Y-101735439D01*
X135958354Y-101717750D01*
X135922444Y-101706857D01*
X135885100Y-101703179D01*
X134377100Y-101703179D01*
X134339756Y-101706857D01*
X134303846Y-101717750D01*
X134270752Y-101735439D01*
X134241745Y-101759245D01*
X134217939Y-101788252D01*
X134200250Y-101821346D01*
X134189357Y-101857256D01*
X134185679Y-101894600D01*
X127486521Y-101894600D01*
X127486521Y-101864600D01*
X127482843Y-101827256D01*
X127471950Y-101791346D01*
X127454261Y-101758252D01*
X127430455Y-101729245D01*
X127401448Y-101705439D01*
X127368354Y-101687750D01*
X127332444Y-101676857D01*
X127295100Y-101673179D01*
X125787100Y-101673179D01*
X125749756Y-101676857D01*
X125713846Y-101687750D01*
X125680752Y-101705439D01*
X125651745Y-101729245D01*
X125627939Y-101758252D01*
X125610250Y-101791346D01*
X125599357Y-101827256D01*
X125595679Y-101864600D01*
X120634201Y-101864600D01*
X120634201Y-96738808D01*
X163958600Y-96738808D01*
X163958600Y-96968392D01*
X164003390Y-97193564D01*
X164091248Y-97405671D01*
X164218797Y-97596563D01*
X164381137Y-97758903D01*
X164572029Y-97886452D01*
X164784136Y-97974310D01*
X165009308Y-98019100D01*
X165238892Y-98019100D01*
X165464064Y-97974310D01*
X165676171Y-97886452D01*
X165867063Y-97758903D01*
X166029403Y-97596563D01*
X166156952Y-97405671D01*
X166244810Y-97193564D01*
X166289600Y-96968392D01*
X166289600Y-96738808D01*
X166244810Y-96513636D01*
X166156952Y-96301529D01*
X166029403Y-96110637D01*
X165867063Y-95948297D01*
X165676171Y-95820748D01*
X165464064Y-95732890D01*
X165238892Y-95688100D01*
X165009308Y-95688100D01*
X164784136Y-95732890D01*
X164572029Y-95820748D01*
X164381137Y-95948297D01*
X164218797Y-96110637D01*
X164091248Y-96301529D01*
X164003390Y-96513636D01*
X163958600Y-96738808D01*
X120634201Y-96738808D01*
X120634201Y-93174600D01*
X134185679Y-93174600D01*
X134185679Y-94682600D01*
X134189357Y-94719944D01*
X134200250Y-94755854D01*
X134217939Y-94788948D01*
X134241745Y-94817955D01*
X134270752Y-94841761D01*
X134303846Y-94859450D01*
X134339756Y-94870343D01*
X134377100Y-94874021D01*
X135885100Y-94874021D01*
X135922444Y-94870343D01*
X135958354Y-94859450D01*
X135991448Y-94841761D01*
X136020455Y-94817955D01*
X136044261Y-94788948D01*
X136061950Y-94755854D01*
X136072843Y-94719944D01*
X136076521Y-94682600D01*
X136076521Y-93174600D01*
X142685679Y-93174600D01*
X142685679Y-94682600D01*
X142689357Y-94719944D01*
X142700250Y-94755854D01*
X142717939Y-94788948D01*
X142741745Y-94817955D01*
X142770752Y-94841761D01*
X142803846Y-94859450D01*
X142839756Y-94870343D01*
X142877100Y-94874021D01*
X144385100Y-94874021D01*
X144422444Y-94870343D01*
X144458354Y-94859450D01*
X144491448Y-94841761D01*
X144520455Y-94817955D01*
X144544261Y-94788948D01*
X144561950Y-94755854D01*
X144572843Y-94719944D01*
X144576521Y-94682600D01*
X144576521Y-93174600D01*
X151285679Y-93174600D01*
X151285679Y-94682600D01*
X151289357Y-94719944D01*
X151300250Y-94755854D01*
X151317939Y-94788948D01*
X151341745Y-94817955D01*
X151370752Y-94841761D01*
X151403846Y-94859450D01*
X151439756Y-94870343D01*
X151477100Y-94874021D01*
X152985100Y-94874021D01*
X153022444Y-94870343D01*
X153058354Y-94859450D01*
X153091448Y-94841761D01*
X153120455Y-94817955D01*
X153144261Y-94788948D01*
X153161950Y-94755854D01*
X153172843Y-94719944D01*
X153176521Y-94682600D01*
X153176521Y-93174600D01*
X153172843Y-93137256D01*
X153161950Y-93101346D01*
X153144261Y-93068252D01*
X153120455Y-93039245D01*
X153091448Y-93015439D01*
X153058354Y-92997750D01*
X153022444Y-92986857D01*
X152985100Y-92983179D01*
X151477100Y-92983179D01*
X151439756Y-92986857D01*
X151403846Y-92997750D01*
X151370752Y-93015439D01*
X151341745Y-93039245D01*
X151317939Y-93068252D01*
X151300250Y-93101346D01*
X151289357Y-93137256D01*
X151285679Y-93174600D01*
X144576521Y-93174600D01*
X144572843Y-93137256D01*
X144561950Y-93101346D01*
X144544261Y-93068252D01*
X144520455Y-93039245D01*
X144491448Y-93015439D01*
X144458354Y-92997750D01*
X144422444Y-92986857D01*
X144385100Y-92983179D01*
X142877100Y-92983179D01*
X142839756Y-92986857D01*
X142803846Y-92997750D01*
X142770752Y-93015439D01*
X142741745Y-93039245D01*
X142717939Y-93068252D01*
X142700250Y-93101346D01*
X142689357Y-93137256D01*
X142685679Y-93174600D01*
X136076521Y-93174600D01*
X136072843Y-93137256D01*
X136061950Y-93101346D01*
X136044261Y-93068252D01*
X136020455Y-93039245D01*
X135991448Y-93015439D01*
X135958354Y-92997750D01*
X135922444Y-92986857D01*
X135885100Y-92983179D01*
X134377100Y-92983179D01*
X134339756Y-92986857D01*
X134303846Y-92997750D01*
X134270752Y-93015439D01*
X134241745Y-93039245D01*
X134217939Y-93068252D01*
X134200250Y-93101346D01*
X134189357Y-93137256D01*
X134185679Y-93174600D01*
X120634201Y-93174600D01*
X120634201Y-91152251D01*
X122590600Y-91152251D01*
X122590600Y-91504949D01*
X122659408Y-91850869D01*
X122794380Y-92176720D01*
X122990328Y-92469977D01*
X123239723Y-92719372D01*
X123532980Y-92915320D01*
X123858831Y-93050292D01*
X124204751Y-93119100D01*
X124557449Y-93119100D01*
X124903369Y-93050292D01*
X125229220Y-92915320D01*
X125522477Y-92719372D01*
X125771872Y-92469977D01*
X125967820Y-92176720D01*
X126102792Y-91850869D01*
X126171600Y-91504949D01*
X126171600Y-91152251D01*
X170850600Y-91152251D01*
X170850600Y-91504949D01*
X170919408Y-91850869D01*
X171054380Y-92176720D01*
X171250328Y-92469977D01*
X171499723Y-92719372D01*
X171792980Y-92915320D01*
X172118831Y-93050292D01*
X172464751Y-93119100D01*
X172817449Y-93119100D01*
X173163369Y-93050292D01*
X173489220Y-92915320D01*
X173782477Y-92719372D01*
X174031872Y-92469977D01*
X174227820Y-92176720D01*
X174362792Y-91850869D01*
X174431600Y-91504949D01*
X174431600Y-91152251D01*
X174362792Y-90806331D01*
X174227820Y-90480480D01*
X174031872Y-90187223D01*
X173782477Y-89937828D01*
X173489220Y-89741880D01*
X173163369Y-89606908D01*
X172817449Y-89538100D01*
X172464751Y-89538100D01*
X172118831Y-89606908D01*
X171792980Y-89741880D01*
X171499723Y-89937828D01*
X171250328Y-90187223D01*
X171054380Y-90480480D01*
X170919408Y-90806331D01*
X170850600Y-91152251D01*
X126171600Y-91152251D01*
X126102792Y-90806331D01*
X125967820Y-90480480D01*
X125771872Y-90187223D01*
X125522477Y-89937828D01*
X125229220Y-89741880D01*
X124903369Y-89606908D01*
X124557449Y-89538100D01*
X124204751Y-89538100D01*
X123858831Y-89606908D01*
X123532980Y-89741880D01*
X123239723Y-89937828D01*
X122990328Y-90187223D01*
X122794380Y-90480480D01*
X122659408Y-90806331D01*
X122590600Y-91152251D01*
X120634201Y-91152251D01*
X120634201Y-90781688D01*
X120694240Y-90169365D01*
X120871173Y-89583336D01*
X121158561Y-89042836D01*
X121545462Y-88568448D01*
X122017137Y-88178245D01*
X122555621Y-87887087D01*
X123140401Y-87706067D01*
X123752170Y-87641768D01*
X123771320Y-87641701D01*
X173228012Y-87641701D01*
X173840335Y-87701740D01*
%TA.AperFunction,Conductor*%
D22*
G36*
X173840335Y-87701740D02*
G01*
X174426364Y-87878673D01*
X174966864Y-88166061D01*
X175441252Y-88552962D01*
X175831455Y-89024637D01*
X176122613Y-89563121D01*
X176303633Y-90147901D01*
X176367932Y-90759670D01*
X176367999Y-90778820D01*
X176368000Y-90778830D01*
X176367999Y-119225512D01*
X176307960Y-119837835D01*
X176131027Y-120423864D01*
X175843637Y-120964367D01*
X175456735Y-121438755D01*
X174985065Y-121828954D01*
X174446580Y-122120112D01*
X173861799Y-122301133D01*
X173250030Y-122365432D01*
X173230880Y-122365499D01*
X123774188Y-122365499D01*
X123161865Y-122305460D01*
X122575836Y-122128527D01*
X122035333Y-121841137D01*
X121560945Y-121454235D01*
X121170746Y-120982565D01*
X120879588Y-120444080D01*
X120698567Y-119859299D01*
X120634268Y-119247530D01*
X120634201Y-119228380D01*
X120634201Y-118442251D01*
X122590600Y-118442251D01*
X122590600Y-118794949D01*
X122659408Y-119140869D01*
X122794380Y-119466720D01*
X122990328Y-119759977D01*
X123239723Y-120009372D01*
X123532980Y-120205320D01*
X123858831Y-120340292D01*
X124204751Y-120409100D01*
X124557449Y-120409100D01*
X124903369Y-120340292D01*
X125229220Y-120205320D01*
X125522477Y-120009372D01*
X125771872Y-119759977D01*
X125967820Y-119466720D01*
X126102792Y-119140869D01*
X126171600Y-118794949D01*
X126171600Y-118442251D01*
X126136263Y-118264600D01*
X134185679Y-118264600D01*
X134185679Y-119772600D01*
X134189357Y-119809944D01*
X134200250Y-119845854D01*
X134217939Y-119878948D01*
X134241745Y-119907955D01*
X134270752Y-119931761D01*
X134303846Y-119949450D01*
X134339756Y-119960343D01*
X134377100Y-119964021D01*
X135885100Y-119964021D01*
X135922444Y-119960343D01*
X135958354Y-119949450D01*
X135991448Y-119931761D01*
X136020455Y-119907955D01*
X136044261Y-119878948D01*
X136061950Y-119845854D01*
X136072843Y-119809944D01*
X136076521Y-119772600D01*
X136076521Y-118264600D01*
X142685679Y-118264600D01*
X142685679Y-119772600D01*
X142689357Y-119809944D01*
X142700250Y-119845854D01*
X142717939Y-119878948D01*
X142741745Y-119907955D01*
X142770752Y-119931761D01*
X142803846Y-119949450D01*
X142839756Y-119960343D01*
X142877100Y-119964021D01*
X144385100Y-119964021D01*
X144422444Y-119960343D01*
X144458354Y-119949450D01*
X144491448Y-119931761D01*
X144520455Y-119907955D01*
X144544261Y-119878948D01*
X144561950Y-119845854D01*
X144572843Y-119809944D01*
X144576521Y-119772600D01*
X144576521Y-118264600D01*
X151285679Y-118264600D01*
X151285679Y-119772600D01*
X151289357Y-119809944D01*
X151300250Y-119845854D01*
X151317939Y-119878948D01*
X151341745Y-119907955D01*
X151370752Y-119931761D01*
X151403846Y-119949450D01*
X151439756Y-119960343D01*
X151477100Y-119964021D01*
X152985100Y-119964021D01*
X153022444Y-119960343D01*
X153058354Y-119949450D01*
X153091448Y-119931761D01*
X153120455Y-119907955D01*
X153144261Y-119878948D01*
X153161950Y-119845854D01*
X153172843Y-119809944D01*
X153176521Y-119772600D01*
X153176521Y-118264600D01*
X153172843Y-118227256D01*
X153161950Y-118191346D01*
X153144261Y-118158252D01*
X153120455Y-118129245D01*
X153091448Y-118105439D01*
X153058354Y-118087750D01*
X153022444Y-118076857D01*
X152985100Y-118073179D01*
X151477100Y-118073179D01*
X151439756Y-118076857D01*
X151403846Y-118087750D01*
X151370752Y-118105439D01*
X151341745Y-118129245D01*
X151317939Y-118158252D01*
X151300250Y-118191346D01*
X151289357Y-118227256D01*
X151285679Y-118264600D01*
X144576521Y-118264600D01*
X144572843Y-118227256D01*
X144561950Y-118191346D01*
X144544261Y-118158252D01*
X144520455Y-118129245D01*
X144491448Y-118105439D01*
X144458354Y-118087750D01*
X144422444Y-118076857D01*
X144385100Y-118073179D01*
X142877100Y-118073179D01*
X142839756Y-118076857D01*
X142803846Y-118087750D01*
X142770752Y-118105439D01*
X142741745Y-118129245D01*
X142717939Y-118158252D01*
X142700250Y-118191346D01*
X142689357Y-118227256D01*
X142685679Y-118264600D01*
X136076521Y-118264600D01*
X136072843Y-118227256D01*
X136061950Y-118191346D01*
X136044261Y-118158252D01*
X136020455Y-118129245D01*
X135991448Y-118105439D01*
X135958354Y-118087750D01*
X135922444Y-118076857D01*
X135885100Y-118073179D01*
X134377100Y-118073179D01*
X134339756Y-118076857D01*
X134303846Y-118087750D01*
X134270752Y-118105439D01*
X134241745Y-118129245D01*
X134217939Y-118158252D01*
X134200250Y-118191346D01*
X134189357Y-118227256D01*
X134185679Y-118264600D01*
X126136263Y-118264600D01*
X126102792Y-118096331D01*
X125967820Y-117770480D01*
X125949939Y-117743719D01*
X156915600Y-117743719D01*
X156915601Y-119493482D01*
X156930295Y-119642673D01*
X156988362Y-119834095D01*
X157082659Y-120010511D01*
X157209560Y-120165141D01*
X157364190Y-120292042D01*
X157540606Y-120386339D01*
X157732028Y-120444406D01*
X157931100Y-120464013D01*
X158130173Y-120444406D01*
X158321595Y-120386339D01*
X158498011Y-120292042D01*
X158652641Y-120165141D01*
X158779542Y-120010511D01*
X158873839Y-119834095D01*
X158931906Y-119642673D01*
X158946600Y-119493482D01*
X158946600Y-117743718D01*
X158931906Y-117594527D01*
X158873839Y-117403105D01*
X158779542Y-117226689D01*
X158652641Y-117072059D01*
X158498011Y-116945158D01*
X158321594Y-116850861D01*
X158130172Y-116792794D01*
X157931100Y-116773187D01*
X157732027Y-116792794D01*
X157540605Y-116850861D01*
X157364189Y-116945158D01*
X157209559Y-117072059D01*
X157082658Y-117226689D01*
X156988361Y-117403106D01*
X156930294Y-117594528D01*
X156915600Y-117743719D01*
X125949939Y-117743719D01*
X125771872Y-117477223D01*
X125522477Y-117227828D01*
X125229220Y-117031880D01*
X124903369Y-116896908D01*
X124557449Y-116828100D01*
X124204751Y-116828100D01*
X123858831Y-116896908D01*
X123532980Y-117031880D01*
X123239723Y-117227828D01*
X122990328Y-117477223D01*
X122794380Y-117770480D01*
X122659408Y-118096331D01*
X122590600Y-118442251D01*
X120634201Y-118442251D01*
X120634201Y-110264600D01*
X125685679Y-110264600D01*
X125685679Y-111772600D01*
X125689357Y-111809944D01*
X125700250Y-111845854D01*
X125717939Y-111878948D01*
X125741745Y-111907955D01*
X125770752Y-111931761D01*
X125803846Y-111949450D01*
X125839756Y-111960343D01*
X125877100Y-111964021D01*
X127385100Y-111964021D01*
X127422444Y-111960343D01*
X127458354Y-111949450D01*
X127491448Y-111931761D01*
X127520455Y-111907955D01*
X127544261Y-111878948D01*
X127561950Y-111845854D01*
X127572843Y-111809944D01*
X127576521Y-111772600D01*
X127576521Y-110264600D01*
X134185679Y-110264600D01*
X134185679Y-111772600D01*
X134189357Y-111809944D01*
X134200250Y-111845854D01*
X134217939Y-111878948D01*
X134241745Y-111907955D01*
X134270752Y-111931761D01*
X134303846Y-111949450D01*
X134339756Y-111960343D01*
X134377100Y-111964021D01*
X135885100Y-111964021D01*
X135922444Y-111960343D01*
X135958354Y-111949450D01*
X135991448Y-111931761D01*
X136020455Y-111907955D01*
X136044261Y-111878948D01*
X136061950Y-111845854D01*
X136072843Y-111809944D01*
X136076521Y-111772600D01*
X136076521Y-110264600D01*
X142685679Y-110264600D01*
X142685679Y-111772600D01*
X142689357Y-111809944D01*
X142700250Y-111845854D01*
X142717939Y-111878948D01*
X142741745Y-111907955D01*
X142770752Y-111931761D01*
X142803846Y-111949450D01*
X142839756Y-111960343D01*
X142877100Y-111964021D01*
X144385100Y-111964021D01*
X144422444Y-111960343D01*
X144458354Y-111949450D01*
X144491448Y-111931761D01*
X144520455Y-111907955D01*
X144544261Y-111878948D01*
X144561950Y-111845854D01*
X144572843Y-111809944D01*
X144576521Y-111772600D01*
X144576521Y-110264600D01*
X151285679Y-110264600D01*
X151285679Y-111772600D01*
X151289357Y-111809944D01*
X151300250Y-111845854D01*
X151317939Y-111878948D01*
X151341745Y-111907955D01*
X151370752Y-111931761D01*
X151403846Y-111949450D01*
X151439756Y-111960343D01*
X151477100Y-111964021D01*
X152985100Y-111964021D01*
X153022444Y-111960343D01*
X153058354Y-111949450D01*
X153091448Y-111931761D01*
X153120455Y-111907955D01*
X153144261Y-111878948D01*
X153161950Y-111845854D01*
X153172843Y-111809944D01*
X153176521Y-111772600D01*
X153176521Y-110468600D01*
X162139679Y-110468600D01*
X162139679Y-114968600D01*
X162143357Y-115005944D01*
X162154250Y-115041854D01*
X162171939Y-115074948D01*
X162195745Y-115103955D01*
X162224752Y-115127761D01*
X162257846Y-115145450D01*
X162293756Y-115156343D01*
X162331100Y-115160021D01*
X162340601Y-115160021D01*
X162340601Y-116346961D01*
X162338470Y-116368600D01*
X162346974Y-116454952D01*
X162372162Y-116537987D01*
X162372163Y-116537988D01*
X162413067Y-116614513D01*
X162468114Y-116681587D01*
X162484917Y-116695377D01*
X164015600Y-118226061D01*
X164015601Y-119493482D01*
X164030295Y-119642673D01*
X164088362Y-119834095D01*
X164182659Y-120010511D01*
X164309560Y-120165141D01*
X164464190Y-120292042D01*
X164640606Y-120386339D01*
X164832028Y-120444406D01*
X165031100Y-120464013D01*
X165230173Y-120444406D01*
X165421595Y-120386339D01*
X165598011Y-120292042D01*
X165752641Y-120165141D01*
X165879542Y-120010511D01*
X165973839Y-119834095D01*
X166031906Y-119642673D01*
X166046600Y-119493482D01*
X166046600Y-118442251D01*
X170850600Y-118442251D01*
X170850600Y-118794949D01*
X170919408Y-119140869D01*
X171054380Y-119466720D01*
X171250328Y-119759977D01*
X171499723Y-120009372D01*
X171792980Y-120205320D01*
X172118831Y-120340292D01*
X172464751Y-120409100D01*
X172817449Y-120409100D01*
X173163369Y-120340292D01*
X173489220Y-120205320D01*
X173782477Y-120009372D01*
X174031872Y-119759977D01*
X174227820Y-119466720D01*
X174362792Y-119140869D01*
X174431600Y-118794949D01*
X174431600Y-118442251D01*
X174362792Y-118096331D01*
X174227820Y-117770480D01*
X174031872Y-117477223D01*
X173782477Y-117227828D01*
X173489220Y-117031880D01*
X173163369Y-116896908D01*
X172817449Y-116828100D01*
X172464751Y-116828100D01*
X172118831Y-116896908D01*
X171792980Y-117031880D01*
X171499723Y-117227828D01*
X171250328Y-117477223D01*
X171054380Y-117770480D01*
X170919408Y-118096331D01*
X170850600Y-118442251D01*
X166046600Y-118442251D01*
X166046600Y-117743718D01*
X166031906Y-117594527D01*
X165973839Y-117403105D01*
X165879542Y-117226689D01*
X165752641Y-117072059D01*
X165598011Y-116945158D01*
X165421594Y-116850861D01*
X165230172Y-116792794D01*
X165031100Y-116773187D01*
X164832027Y-116792794D01*
X164640605Y-116850861D01*
X164464189Y-116945158D01*
X164309559Y-117072059D01*
X164218489Y-117183029D01*
X163221600Y-116186140D01*
X163221600Y-115160021D01*
X163231100Y-115160021D01*
X163268444Y-115156343D01*
X163304354Y-115145450D01*
X163337448Y-115127761D01*
X163366455Y-115103955D01*
X163390261Y-115074948D01*
X163407950Y-115041854D01*
X163418843Y-115005944D01*
X163422521Y-114968600D01*
X163422521Y-110468600D01*
X163418843Y-110431256D01*
X163407950Y-110395346D01*
X163390261Y-110362252D01*
X163366455Y-110333245D01*
X163337448Y-110309439D01*
X163304354Y-110291750D01*
X163268444Y-110280857D01*
X163231100Y-110277179D01*
X162331100Y-110277179D01*
X162293756Y-110280857D01*
X162257846Y-110291750D01*
X162224752Y-110309439D01*
X162195745Y-110333245D01*
X162171939Y-110362252D01*
X162154250Y-110395346D01*
X162143357Y-110431256D01*
X162139679Y-110468600D01*
X153176521Y-110468600D01*
X153176521Y-110264600D01*
X153172843Y-110227256D01*
X153161950Y-110191346D01*
X153144261Y-110158252D01*
X153120455Y-110129245D01*
X153091448Y-110105439D01*
X153058354Y-110087750D01*
X153022444Y-110076857D01*
X152985100Y-110073179D01*
X151477100Y-110073179D01*
X151439756Y-110076857D01*
X151403846Y-110087750D01*
X151370752Y-110105439D01*
X151341745Y-110129245D01*
X151317939Y-110158252D01*
X151300250Y-110191346D01*
X151289357Y-110227256D01*
X151285679Y-110264600D01*
X144576521Y-110264600D01*
X144572843Y-110227256D01*
X144561950Y-110191346D01*
X144544261Y-110158252D01*
X144520455Y-110129245D01*
X144491448Y-110105439D01*
X144458354Y-110087750D01*
X144422444Y-110076857D01*
X144385100Y-110073179D01*
X142877100Y-110073179D01*
X142839756Y-110076857D01*
X142803846Y-110087750D01*
X142770752Y-110105439D01*
X142741745Y-110129245D01*
X142717939Y-110158252D01*
X142700250Y-110191346D01*
X142689357Y-110227256D01*
X142685679Y-110264600D01*
X136076521Y-110264600D01*
X136072843Y-110227256D01*
X136061950Y-110191346D01*
X136044261Y-110158252D01*
X136020455Y-110129245D01*
X135991448Y-110105439D01*
X135958354Y-110087750D01*
X135922444Y-110076857D01*
X135885100Y-110073179D01*
X134377100Y-110073179D01*
X134339756Y-110076857D01*
X134303846Y-110087750D01*
X134270752Y-110105439D01*
X134241745Y-110129245D01*
X134217939Y-110158252D01*
X134200250Y-110191346D01*
X134189357Y-110227256D01*
X134185679Y-110264600D01*
X127576521Y-110264600D01*
X127572843Y-110227256D01*
X127561950Y-110191346D01*
X127544261Y-110158252D01*
X127520455Y-110129245D01*
X127491448Y-110105439D01*
X127458354Y-110087750D01*
X127422444Y-110076857D01*
X127385100Y-110073179D01*
X125877100Y-110073179D01*
X125839756Y-110076857D01*
X125803846Y-110087750D01*
X125770752Y-110105439D01*
X125741745Y-110129245D01*
X125717939Y-110158252D01*
X125700250Y-110191346D01*
X125689357Y-110227256D01*
X125685679Y-110264600D01*
X120634201Y-110264600D01*
X120634201Y-105895424D01*
X158136600Y-105895424D01*
X158136600Y-106061776D01*
X158169054Y-106224932D01*
X158232714Y-106378621D01*
X158325134Y-106516937D01*
X158442763Y-106634566D01*
X158581079Y-106726986D01*
X158734768Y-106790646D01*
X158897924Y-106823100D01*
X159064276Y-106823100D01*
X159227432Y-106790646D01*
X159381121Y-106726986D01*
X159519437Y-106634566D01*
X159637066Y-106516937D01*
X159729486Y-106378621D01*
X159793146Y-106224932D01*
X159825600Y-106061776D01*
X159825600Y-105895424D01*
X163136600Y-105895424D01*
X163136600Y-106061776D01*
X163169054Y-106224932D01*
X163232714Y-106378621D01*
X163325134Y-106516937D01*
X163442763Y-106634566D01*
X163581079Y-106726986D01*
X163734768Y-106790646D01*
X163897924Y-106823100D01*
X164064276Y-106823100D01*
X164227432Y-106790646D01*
X164381121Y-106726986D01*
X164519437Y-106634566D01*
X164637066Y-106516937D01*
X164729486Y-106378621D01*
X164793146Y-106224932D01*
X164825600Y-106061776D01*
X164825600Y-105895424D01*
X164793146Y-105732268D01*
X164750206Y-105628600D01*
X169729679Y-105628600D01*
X169729679Y-106428600D01*
X169733357Y-106465944D01*
X169744250Y-106501854D01*
X169761939Y-106534948D01*
X169785745Y-106563955D01*
X169814752Y-106587761D01*
X169847846Y-106605450D01*
X169883756Y-106616343D01*
X169921100Y-106620021D01*
X170054400Y-106620021D01*
X170054400Y-107165504D01*
X170053110Y-107178600D01*
X170054400Y-107191696D01*
X170054400Y-107191697D01*
X170058259Y-107230881D01*
X170073510Y-107281154D01*
X170098274Y-107327487D01*
X170131602Y-107368098D01*
X170141784Y-107376454D01*
X171679679Y-108914350D01*
X171679679Y-110253600D01*
X171683357Y-110290944D01*
X171694250Y-110326854D01*
X171711939Y-110359948D01*
X171735745Y-110388955D01*
X171764752Y-110412761D01*
X171797846Y-110430450D01*
X171833756Y-110441343D01*
X171871100Y-110445021D01*
X173271100Y-110445021D01*
X173308444Y-110441343D01*
X173344354Y-110430450D01*
X173377448Y-110412761D01*
X173406455Y-110388955D01*
X173430261Y-110359948D01*
X173447950Y-110326854D01*
X173458843Y-110290944D01*
X173462521Y-110253600D01*
X173462521Y-108603600D01*
X173458843Y-108566256D01*
X173447950Y-108530346D01*
X173430261Y-108497252D01*
X173406455Y-108468245D01*
X173377448Y-108444439D01*
X173344354Y-108426750D01*
X173308444Y-108415857D01*
X173271100Y-108412179D01*
X171931850Y-108412179D01*
X170587800Y-107068130D01*
X170587800Y-106620021D01*
X170721100Y-106620021D01*
X170758444Y-106616343D01*
X170794354Y-106605450D01*
X170827448Y-106587761D01*
X170856455Y-106563955D01*
X170880261Y-106534948D01*
X170897950Y-106501854D01*
X170908843Y-106465944D01*
X170912521Y-106428600D01*
X170912521Y-105628600D01*
X171379679Y-105628600D01*
X171379679Y-106428600D01*
X171383357Y-106465944D01*
X171394250Y-106501854D01*
X171411939Y-106534948D01*
X171435745Y-106563955D01*
X171464752Y-106587761D01*
X171497846Y-106605450D01*
X171533756Y-106616343D01*
X171571100Y-106620021D01*
X172371100Y-106620021D01*
X172408444Y-106616343D01*
X172444354Y-106605450D01*
X172477448Y-106587761D01*
X172506455Y-106563955D01*
X172530261Y-106534948D01*
X172547950Y-106501854D01*
X172558843Y-106465944D01*
X172562521Y-106428600D01*
X172562521Y-105814349D01*
X172702535Y-105674335D01*
X172705216Y-105675445D01*
X172815088Y-105697300D01*
X172927112Y-105697300D01*
X173036984Y-105675445D01*
X173140481Y-105632576D01*
X173233625Y-105570338D01*
X173312838Y-105491125D01*
X173375076Y-105397981D01*
X173417945Y-105294484D01*
X173439800Y-105184612D01*
X173439800Y-105072588D01*
X173417945Y-104962716D01*
X173375076Y-104859219D01*
X173312838Y-104766075D01*
X173233625Y-104686862D01*
X173140481Y-104624624D01*
X173036984Y-104581755D01*
X172927112Y-104559900D01*
X172815088Y-104559900D01*
X172705216Y-104581755D01*
X172601719Y-104624624D01*
X172508575Y-104686862D01*
X172429362Y-104766075D01*
X172367124Y-104859219D01*
X172324255Y-104962716D01*
X172302400Y-105072588D01*
X172302400Y-105184612D01*
X172324255Y-105294484D01*
X172325365Y-105297165D01*
X172185351Y-105437179D01*
X171571100Y-105437179D01*
X171533756Y-105440857D01*
X171497846Y-105451750D01*
X171464752Y-105469439D01*
X171435745Y-105493245D01*
X171411939Y-105522252D01*
X171394250Y-105555346D01*
X171383357Y-105591256D01*
X171379679Y-105628600D01*
X170912521Y-105628600D01*
X170908843Y-105591256D01*
X170897950Y-105555346D01*
X170880261Y-105522252D01*
X170856455Y-105493245D01*
X170827448Y-105469439D01*
X170794354Y-105451750D01*
X170758444Y-105440857D01*
X170721100Y-105437179D01*
X169921100Y-105437179D01*
X169883756Y-105440857D01*
X169847846Y-105451750D01*
X169814752Y-105469439D01*
X169785745Y-105493245D01*
X169761939Y-105522252D01*
X169744250Y-105555346D01*
X169733357Y-105591256D01*
X169729679Y-105628600D01*
X164750206Y-105628600D01*
X164729486Y-105578579D01*
X164637066Y-105440263D01*
X164519437Y-105322634D01*
X164381121Y-105230214D01*
X164227432Y-105166554D01*
X164064276Y-105134100D01*
X163897924Y-105134100D01*
X163734768Y-105166554D01*
X163581079Y-105230214D01*
X163442763Y-105322634D01*
X163325134Y-105440263D01*
X163232714Y-105578579D01*
X163169054Y-105732268D01*
X163136600Y-105895424D01*
X159825600Y-105895424D01*
X159793146Y-105732268D01*
X159729486Y-105578579D01*
X159637066Y-105440263D01*
X159519437Y-105322634D01*
X159381121Y-105230214D01*
X159227432Y-105166554D01*
X159064276Y-105134100D01*
X158897924Y-105134100D01*
X158734768Y-105166554D01*
X158581079Y-105230214D01*
X158442763Y-105322634D01*
X158325134Y-105440263D01*
X158232714Y-105578579D01*
X158169054Y-105732268D01*
X158136600Y-105895424D01*
X120634201Y-105895424D01*
X120634201Y-101864600D01*
X125595679Y-101864600D01*
X125595679Y-103372600D01*
X125599357Y-103409944D01*
X125610250Y-103445854D01*
X125627939Y-103478948D01*
X125651745Y-103507955D01*
X125680752Y-103531761D01*
X125713846Y-103549450D01*
X125749756Y-103560343D01*
X125787100Y-103564021D01*
X127295100Y-103564021D01*
X127332444Y-103560343D01*
X127368354Y-103549450D01*
X127401448Y-103531761D01*
X127430455Y-103507955D01*
X127454261Y-103478948D01*
X127471950Y-103445854D01*
X127482843Y-103409944D01*
X127486521Y-103372600D01*
X127486521Y-101894600D01*
X134185679Y-101894600D01*
X134185679Y-103402600D01*
X134189357Y-103439944D01*
X134200250Y-103475854D01*
X134217939Y-103508948D01*
X134241745Y-103537955D01*
X134270752Y-103561761D01*
X134303846Y-103579450D01*
X134339756Y-103590343D01*
X134377100Y-103594021D01*
X135885100Y-103594021D01*
X135922444Y-103590343D01*
X135958354Y-103579450D01*
X135991448Y-103561761D01*
X136020455Y-103537955D01*
X136044261Y-103508948D01*
X136061950Y-103475854D01*
X136072843Y-103439944D01*
X136076521Y-103402600D01*
X136076521Y-101914600D01*
X142685679Y-101914600D01*
X142685679Y-103422600D01*
X142689357Y-103459944D01*
X142700250Y-103495854D01*
X142717939Y-103528948D01*
X142741745Y-103557955D01*
X142770752Y-103581761D01*
X142803846Y-103599450D01*
X142839756Y-103610343D01*
X142877100Y-103614021D01*
X144385100Y-103614021D01*
X144422444Y-103610343D01*
X144458354Y-103599450D01*
X144491448Y-103581761D01*
X144520455Y-103557955D01*
X144544261Y-103528948D01*
X144561950Y-103495854D01*
X144572843Y-103459944D01*
X144576521Y-103422600D01*
X144576521Y-101934600D01*
X151285679Y-101934600D01*
X151285679Y-103442600D01*
X151289357Y-103479944D01*
X151300250Y-103515854D01*
X151317939Y-103548948D01*
X151341745Y-103577955D01*
X151370752Y-103601761D01*
X151403846Y-103619450D01*
X151439756Y-103630343D01*
X151477100Y-103634021D01*
X152985100Y-103634021D01*
X153022444Y-103630343D01*
X153058354Y-103619450D01*
X153091448Y-103601761D01*
X153120455Y-103577955D01*
X153144261Y-103548948D01*
X153161950Y-103515854D01*
X153172843Y-103479944D01*
X153176521Y-103442600D01*
X153176521Y-101934600D01*
X153172843Y-101897256D01*
X153161950Y-101861346D01*
X153144261Y-101828252D01*
X153120455Y-101799245D01*
X153091448Y-101775439D01*
X153058354Y-101757750D01*
X153022444Y-101746857D01*
X152985100Y-101743179D01*
X151477100Y-101743179D01*
X151439756Y-101746857D01*
X151403846Y-101757750D01*
X151370752Y-101775439D01*
X151341745Y-101799245D01*
X151317939Y-101828252D01*
X151300250Y-101861346D01*
X151289357Y-101897256D01*
X151285679Y-101934600D01*
X144576521Y-101934600D01*
X144576521Y-101914600D01*
X144572843Y-101877256D01*
X144561950Y-101841346D01*
X144544261Y-101808252D01*
X144520455Y-101779245D01*
X144491448Y-101755439D01*
X144458354Y-101737750D01*
X144422444Y-101726857D01*
X144385100Y-101723179D01*
X142877100Y-101723179D01*
X142839756Y-101726857D01*
X142803846Y-101737750D01*
X142770752Y-101755439D01*
X142741745Y-101779245D01*
X142717939Y-101808252D01*
X142700250Y-101841346D01*
X142689357Y-101877256D01*
X142685679Y-101914600D01*
X136076521Y-101914600D01*
X136076521Y-101894600D01*
X136072843Y-101857256D01*
X136061950Y-101821346D01*
X136044261Y-101788252D01*
X136020455Y-101759245D01*
X135991448Y-101735439D01*
X135958354Y-101717750D01*
X135922444Y-101706857D01*
X135885100Y-101703179D01*
X134377100Y-101703179D01*
X134339756Y-101706857D01*
X134303846Y-101717750D01*
X134270752Y-101735439D01*
X134241745Y-101759245D01*
X134217939Y-101788252D01*
X134200250Y-101821346D01*
X134189357Y-101857256D01*
X134185679Y-101894600D01*
X127486521Y-101894600D01*
X127486521Y-101864600D01*
X127482843Y-101827256D01*
X127471950Y-101791346D01*
X127454261Y-101758252D01*
X127430455Y-101729245D01*
X127401448Y-101705439D01*
X127368354Y-101687750D01*
X127332444Y-101676857D01*
X127295100Y-101673179D01*
X125787100Y-101673179D01*
X125749756Y-101676857D01*
X125713846Y-101687750D01*
X125680752Y-101705439D01*
X125651745Y-101729245D01*
X125627939Y-101758252D01*
X125610250Y-101791346D01*
X125599357Y-101827256D01*
X125595679Y-101864600D01*
X120634201Y-101864600D01*
X120634201Y-96738808D01*
X163958600Y-96738808D01*
X163958600Y-96968392D01*
X164003390Y-97193564D01*
X164091248Y-97405671D01*
X164218797Y-97596563D01*
X164381137Y-97758903D01*
X164572029Y-97886452D01*
X164784136Y-97974310D01*
X165009308Y-98019100D01*
X165238892Y-98019100D01*
X165464064Y-97974310D01*
X165676171Y-97886452D01*
X165867063Y-97758903D01*
X166029403Y-97596563D01*
X166156952Y-97405671D01*
X166244810Y-97193564D01*
X166289600Y-96968392D01*
X166289600Y-96738808D01*
X166244810Y-96513636D01*
X166156952Y-96301529D01*
X166029403Y-96110637D01*
X165867063Y-95948297D01*
X165676171Y-95820748D01*
X165464064Y-95732890D01*
X165238892Y-95688100D01*
X165009308Y-95688100D01*
X164784136Y-95732890D01*
X164572029Y-95820748D01*
X164381137Y-95948297D01*
X164218797Y-96110637D01*
X164091248Y-96301529D01*
X164003390Y-96513636D01*
X163958600Y-96738808D01*
X120634201Y-96738808D01*
X120634201Y-93174600D01*
X134185679Y-93174600D01*
X134185679Y-94682600D01*
X134189357Y-94719944D01*
X134200250Y-94755854D01*
X134217939Y-94788948D01*
X134241745Y-94817955D01*
X134270752Y-94841761D01*
X134303846Y-94859450D01*
X134339756Y-94870343D01*
X134377100Y-94874021D01*
X135885100Y-94874021D01*
X135922444Y-94870343D01*
X135958354Y-94859450D01*
X135991448Y-94841761D01*
X136020455Y-94817955D01*
X136044261Y-94788948D01*
X136061950Y-94755854D01*
X136072843Y-94719944D01*
X136076521Y-94682600D01*
X136076521Y-93174600D01*
X142685679Y-93174600D01*
X142685679Y-94682600D01*
X142689357Y-94719944D01*
X142700250Y-94755854D01*
X142717939Y-94788948D01*
X142741745Y-94817955D01*
X142770752Y-94841761D01*
X142803846Y-94859450D01*
X142839756Y-94870343D01*
X142877100Y-94874021D01*
X144385100Y-94874021D01*
X144422444Y-94870343D01*
X144458354Y-94859450D01*
X144491448Y-94841761D01*
X144520455Y-94817955D01*
X144544261Y-94788948D01*
X144561950Y-94755854D01*
X144572843Y-94719944D01*
X144576521Y-94682600D01*
X144576521Y-93174600D01*
X151285679Y-93174600D01*
X151285679Y-94682600D01*
X151289357Y-94719944D01*
X151300250Y-94755854D01*
X151317939Y-94788948D01*
X151341745Y-94817955D01*
X151370752Y-94841761D01*
X151403846Y-94859450D01*
X151439756Y-94870343D01*
X151477100Y-94874021D01*
X152985100Y-94874021D01*
X153022444Y-94870343D01*
X153058354Y-94859450D01*
X153091448Y-94841761D01*
X153120455Y-94817955D01*
X153144261Y-94788948D01*
X153161950Y-94755854D01*
X153172843Y-94719944D01*
X153176521Y-94682600D01*
X153176521Y-93174600D01*
X153172843Y-93137256D01*
X153161950Y-93101346D01*
X153144261Y-93068252D01*
X153120455Y-93039245D01*
X153091448Y-93015439D01*
X153058354Y-92997750D01*
X153022444Y-92986857D01*
X152985100Y-92983179D01*
X151477100Y-92983179D01*
X151439756Y-92986857D01*
X151403846Y-92997750D01*
X151370752Y-93015439D01*
X151341745Y-93039245D01*
X151317939Y-93068252D01*
X151300250Y-93101346D01*
X151289357Y-93137256D01*
X151285679Y-93174600D01*
X144576521Y-93174600D01*
X144572843Y-93137256D01*
X144561950Y-93101346D01*
X144544261Y-93068252D01*
X144520455Y-93039245D01*
X144491448Y-93015439D01*
X144458354Y-92997750D01*
X144422444Y-92986857D01*
X144385100Y-92983179D01*
X142877100Y-92983179D01*
X142839756Y-92986857D01*
X142803846Y-92997750D01*
X142770752Y-93015439D01*
X142741745Y-93039245D01*
X142717939Y-93068252D01*
X142700250Y-93101346D01*
X142689357Y-93137256D01*
X142685679Y-93174600D01*
X136076521Y-93174600D01*
X136072843Y-93137256D01*
X136061950Y-93101346D01*
X136044261Y-93068252D01*
X136020455Y-93039245D01*
X135991448Y-93015439D01*
X135958354Y-92997750D01*
X135922444Y-92986857D01*
X135885100Y-92983179D01*
X134377100Y-92983179D01*
X134339756Y-92986857D01*
X134303846Y-92997750D01*
X134270752Y-93015439D01*
X134241745Y-93039245D01*
X134217939Y-93068252D01*
X134200250Y-93101346D01*
X134189357Y-93137256D01*
X134185679Y-93174600D01*
X120634201Y-93174600D01*
X120634201Y-91152251D01*
X122590600Y-91152251D01*
X122590600Y-91504949D01*
X122659408Y-91850869D01*
X122794380Y-92176720D01*
X122990328Y-92469977D01*
X123239723Y-92719372D01*
X123532980Y-92915320D01*
X123858831Y-93050292D01*
X124204751Y-93119100D01*
X124557449Y-93119100D01*
X124903369Y-93050292D01*
X125229220Y-92915320D01*
X125522477Y-92719372D01*
X125771872Y-92469977D01*
X125967820Y-92176720D01*
X126102792Y-91850869D01*
X126171600Y-91504949D01*
X126171600Y-91152251D01*
X170850600Y-91152251D01*
X170850600Y-91504949D01*
X170919408Y-91850869D01*
X171054380Y-92176720D01*
X171250328Y-92469977D01*
X171499723Y-92719372D01*
X171792980Y-92915320D01*
X172118831Y-93050292D01*
X172464751Y-93119100D01*
X172817449Y-93119100D01*
X173163369Y-93050292D01*
X173489220Y-92915320D01*
X173782477Y-92719372D01*
X174031872Y-92469977D01*
X174227820Y-92176720D01*
X174362792Y-91850869D01*
X174431600Y-91504949D01*
X174431600Y-91152251D01*
X174362792Y-90806331D01*
X174227820Y-90480480D01*
X174031872Y-90187223D01*
X173782477Y-89937828D01*
X173489220Y-89741880D01*
X173163369Y-89606908D01*
X172817449Y-89538100D01*
X172464751Y-89538100D01*
X172118831Y-89606908D01*
X171792980Y-89741880D01*
X171499723Y-89937828D01*
X171250328Y-90187223D01*
X171054380Y-90480480D01*
X170919408Y-90806331D01*
X170850600Y-91152251D01*
X126171600Y-91152251D01*
X126102792Y-90806331D01*
X125967820Y-90480480D01*
X125771872Y-90187223D01*
X125522477Y-89937828D01*
X125229220Y-89741880D01*
X124903369Y-89606908D01*
X124557449Y-89538100D01*
X124204751Y-89538100D01*
X123858831Y-89606908D01*
X123532980Y-89741880D01*
X123239723Y-89937828D01*
X122990328Y-90187223D01*
X122794380Y-90480480D01*
X122659408Y-90806331D01*
X122590600Y-91152251D01*
X120634201Y-91152251D01*
X120634201Y-90781688D01*
X120694240Y-90169365D01*
X120871173Y-89583336D01*
X121158561Y-89042836D01*
X121545462Y-88568448D01*
X122017137Y-88178245D01*
X122555621Y-87887087D01*
X123140401Y-87706067D01*
X123752170Y-87641768D01*
X123771320Y-87641701D01*
X173228012Y-87641701D01*
X173840335Y-87701740D01*
G37*
%TD.AperFunction*%
%TD*%
M02*
