%TF.GenerationSoftware,KiCad,Pcbnew,(5.1.10)-1*%
%TF.CreationDate,2022-10-31T19:27:20+09:00*%
%TF.ProjectId,USB_JST-XH_Converter,5553425f-4a53-4542-9d58-485f436f6e76,rev?*%
%TF.SameCoordinates,Original*%
%TF.FileFunction,Soldermask,Bot*%
%TF.FilePolarity,Negative*%
%FSLAX46Y46*%
G04 Gerber Fmt 4.6, Leading zero omitted, Abs format (unit mm)*
G04 Created by KiCad (PCBNEW (5.1.10)-1) date 2022-10-31 19:27:20*
%MOMM*%
%LPD*%
G01*
G04 APERTURE LIST*
%ADD10C,1.711200*%
%ADD11O,1.853200X3.503200*%
%ADD12C,1.511200*%
%ADD13C,2.153200*%
%ADD14C,3.200000*%
G04 APERTURE END LIST*
%TO.C,PORT1*%
G36*
G01*
X134275500Y-94682600D02*
X134275500Y-93174600D01*
G75*
G02*
X134377100Y-93073000I101600J0D01*
G01*
X135885100Y-93073000D01*
G75*
G02*
X135986700Y-93174600I0J-101600D01*
G01*
X135986700Y-94682600D01*
G75*
G02*
X135885100Y-94784200I-101600J0D01*
G01*
X134377100Y-94784200D01*
G75*
G02*
X134275500Y-94682600I0J101600D01*
G01*
G37*
D10*
X132591100Y-93928600D03*
%TD*%
%TO.C,PORT10*%
G36*
G01*
X142775500Y-111772600D02*
X142775500Y-110264600D01*
G75*
G02*
X142877100Y-110163000I101600J0D01*
G01*
X144385100Y-110163000D01*
G75*
G02*
X144486700Y-110264600I0J-101600D01*
G01*
X144486700Y-111772600D01*
G75*
G02*
X144385100Y-111874200I-101600J0D01*
G01*
X142877100Y-111874200D01*
G75*
G02*
X142775500Y-111772600I0J101600D01*
G01*
G37*
X141091100Y-111018600D03*
%TD*%
%TO.C,PORT11*%
G36*
G01*
X151375500Y-111772600D02*
X151375500Y-110264600D01*
G75*
G02*
X151477100Y-110163000I101600J0D01*
G01*
X152985100Y-110163000D01*
G75*
G02*
X153086700Y-110264600I0J-101600D01*
G01*
X153086700Y-111772600D01*
G75*
G02*
X152985100Y-111874200I-101600J0D01*
G01*
X151477100Y-111874200D01*
G75*
G02*
X151375500Y-111772600I0J101600D01*
G01*
G37*
X149691100Y-111018600D03*
%TD*%
%TO.C,PORT12*%
G36*
G01*
X134275500Y-119772600D02*
X134275500Y-118264600D01*
G75*
G02*
X134377100Y-118163000I101600J0D01*
G01*
X135885100Y-118163000D01*
G75*
G02*
X135986700Y-118264600I0J-101600D01*
G01*
X135986700Y-119772600D01*
G75*
G02*
X135885100Y-119874200I-101600J0D01*
G01*
X134377100Y-119874200D01*
G75*
G02*
X134275500Y-119772600I0J101600D01*
G01*
G37*
X132591100Y-119018600D03*
%TD*%
%TO.C,PORT2*%
G36*
G01*
X142775500Y-94682600D02*
X142775500Y-93174600D01*
G75*
G02*
X142877100Y-93073000I101600J0D01*
G01*
X144385100Y-93073000D01*
G75*
G02*
X144486700Y-93174600I0J-101600D01*
G01*
X144486700Y-94682600D01*
G75*
G02*
X144385100Y-94784200I-101600J0D01*
G01*
X142877100Y-94784200D01*
G75*
G02*
X142775500Y-94682600I0J101600D01*
G01*
G37*
X141091100Y-93928600D03*
%TD*%
%TO.C,PORT3*%
G36*
G01*
X151375500Y-94682600D02*
X151375500Y-93174600D01*
G75*
G02*
X151477100Y-93073000I101600J0D01*
G01*
X152985100Y-93073000D01*
G75*
G02*
X153086700Y-93174600I0J-101600D01*
G01*
X153086700Y-94682600D01*
G75*
G02*
X152985100Y-94784200I-101600J0D01*
G01*
X151477100Y-94784200D01*
G75*
G02*
X151375500Y-94682600I0J101600D01*
G01*
G37*
X149691100Y-93928600D03*
%TD*%
%TO.C,PORT4*%
G36*
G01*
X125685500Y-103372600D02*
X125685500Y-101864600D01*
G75*
G02*
X125787100Y-101763000I101600J0D01*
G01*
X127295100Y-101763000D01*
G75*
G02*
X127396700Y-101864600I0J-101600D01*
G01*
X127396700Y-103372600D01*
G75*
G02*
X127295100Y-103474200I-101600J0D01*
G01*
X125787100Y-103474200D01*
G75*
G02*
X125685500Y-103372600I0J101600D01*
G01*
G37*
X124001100Y-102618600D03*
%TD*%
%TO.C,PORT5*%
G36*
G01*
X134275500Y-103402600D02*
X134275500Y-101894600D01*
G75*
G02*
X134377100Y-101793000I101600J0D01*
G01*
X135885100Y-101793000D01*
G75*
G02*
X135986700Y-101894600I0J-101600D01*
G01*
X135986700Y-103402600D01*
G75*
G02*
X135885100Y-103504200I-101600J0D01*
G01*
X134377100Y-103504200D01*
G75*
G02*
X134275500Y-103402600I0J101600D01*
G01*
G37*
X132591100Y-102648600D03*
%TD*%
%TO.C,PORT6*%
G36*
G01*
X142775500Y-103422600D02*
X142775500Y-101914600D01*
G75*
G02*
X142877100Y-101813000I101600J0D01*
G01*
X144385100Y-101813000D01*
G75*
G02*
X144486700Y-101914600I0J-101600D01*
G01*
X144486700Y-103422600D01*
G75*
G02*
X144385100Y-103524200I-101600J0D01*
G01*
X142877100Y-103524200D01*
G75*
G02*
X142775500Y-103422600I0J101600D01*
G01*
G37*
X141091100Y-102668600D03*
%TD*%
%TO.C,PORT7*%
G36*
G01*
X151375500Y-103442600D02*
X151375500Y-101934600D01*
G75*
G02*
X151477100Y-101833000I101600J0D01*
G01*
X152985100Y-101833000D01*
G75*
G02*
X153086700Y-101934600I0J-101600D01*
G01*
X153086700Y-103442600D01*
G75*
G02*
X152985100Y-103544200I-101600J0D01*
G01*
X151477100Y-103544200D01*
G75*
G02*
X151375500Y-103442600I0J101600D01*
G01*
G37*
X149691100Y-102688600D03*
%TD*%
%TO.C,PORT8*%
G36*
G01*
X125775500Y-111772600D02*
X125775500Y-110264600D01*
G75*
G02*
X125877100Y-110163000I101600J0D01*
G01*
X127385100Y-110163000D01*
G75*
G02*
X127486700Y-110264600I0J-101600D01*
G01*
X127486700Y-111772600D01*
G75*
G02*
X127385100Y-111874200I-101600J0D01*
G01*
X125877100Y-111874200D01*
G75*
G02*
X125775500Y-111772600I0J101600D01*
G01*
G37*
X124091100Y-111018600D03*
%TD*%
%TO.C,PORT9*%
G36*
G01*
X134275500Y-111772600D02*
X134275500Y-110264600D01*
G75*
G02*
X134377100Y-110163000I101600J0D01*
G01*
X135885100Y-110163000D01*
G75*
G02*
X135986700Y-110264600I0J-101600D01*
G01*
X135986700Y-111772600D01*
G75*
G02*
X135885100Y-111874200I-101600J0D01*
G01*
X134377100Y-111874200D01*
G75*
G02*
X134275500Y-111772600I0J101600D01*
G01*
G37*
X132591100Y-111018600D03*
%TD*%
D11*
%TO.C,USB1*%
X165031100Y-118618600D03*
X157931100Y-118618600D03*
%TD*%
D12*
%TO.C,SW1*%
X158981100Y-105978600D03*
X163981100Y-105978600D03*
X161481100Y-105978600D03*
%TD*%
%TO.C,FET-1*%
G36*
G01*
X174289200Y-97121100D02*
X174289200Y-103344100D01*
G75*
G02*
X174187600Y-103445700I-101600J0D01*
G01*
X167456600Y-103445700D01*
G75*
G02*
X167355000Y-103344100I0J101600D01*
G01*
X167355000Y-97121100D01*
G75*
G02*
X167456600Y-97019500I101600J0D01*
G01*
X174187600Y-97019500D01*
G75*
G02*
X174289200Y-97121100I0J-101600D01*
G01*
G37*
G36*
G01*
X169298100Y-108576500D02*
X167774100Y-108576500D01*
G75*
G02*
X167672500Y-108474900I0J101600D01*
G01*
X167672500Y-106214300D01*
G75*
G02*
X167774100Y-106112700I101600J0D01*
G01*
X169298100Y-106112700D01*
G75*
G02*
X169399700Y-106214300I0J-101600D01*
G01*
X169399700Y-108474900D01*
G75*
G02*
X169298100Y-108576500I-101600J0D01*
G01*
G37*
G36*
G01*
X173870100Y-108576500D02*
X172346100Y-108576500D01*
G75*
G02*
X172244500Y-108474900I0J101600D01*
G01*
X172244500Y-106214300D01*
G75*
G02*
X172346100Y-106112700I101600J0D01*
G01*
X173870100Y-106112700D01*
G75*
G02*
X173971700Y-106214300I0J-101600D01*
G01*
X173971700Y-108474900D01*
G75*
G02*
X173870100Y-108576500I-101600J0D01*
G01*
G37*
%TD*%
%TO.C,R1*%
G36*
G01*
X170532700Y-111243599D02*
X170532700Y-112893601D01*
G75*
G02*
X170431101Y-112995200I-101599J0D01*
G01*
X169031099Y-112995200D01*
G75*
G02*
X168929500Y-112893601I0J101599D01*
G01*
X168929500Y-111243599D01*
G75*
G02*
X169031099Y-111142000I101599J0D01*
G01*
X170431101Y-111142000D01*
G75*
G02*
X170532700Y-111243599I0J-101599D01*
G01*
G37*
G36*
G01*
X173132700Y-111243599D02*
X173132700Y-112893601D01*
G75*
G02*
X173031101Y-112995200I-101599J0D01*
G01*
X171631099Y-112995200D01*
G75*
G02*
X171529500Y-112893601I0J101599D01*
G01*
X171529500Y-111243599D01*
G75*
G02*
X171631099Y-111142000I101599J0D01*
G01*
X173031101Y-111142000D01*
G75*
G02*
X173132700Y-111243599I0J-101599D01*
G01*
G37*
%TD*%
%TO.C,R2*%
G36*
G01*
X170532700Y-109033599D02*
X170532700Y-110683601D01*
G75*
G02*
X170431101Y-110785200I-101599J0D01*
G01*
X169031099Y-110785200D01*
G75*
G02*
X168929500Y-110683601I0J101599D01*
G01*
X168929500Y-109033599D01*
G75*
G02*
X169031099Y-108932000I101599J0D01*
G01*
X170431101Y-108932000D01*
G75*
G02*
X170532700Y-109033599I0J-101599D01*
G01*
G37*
G36*
G01*
X173132700Y-109033599D02*
X173132700Y-110683601D01*
G75*
G02*
X173031101Y-110785200I-101599J0D01*
G01*
X171631099Y-110785200D01*
G75*
G02*
X171529500Y-110683601I0J101599D01*
G01*
X171529500Y-109033599D01*
G75*
G02*
X171631099Y-108932000I101599J0D01*
G01*
X173031101Y-108932000D01*
G75*
G02*
X173132700Y-109033599I0J-101599D01*
G01*
G37*
%TD*%
D13*
%TO.C,C1*%
X165124100Y-96853600D03*
X160124100Y-96853600D03*
%TD*%
D14*
%TO.C,H1*%
X124381100Y-118618600D03*
%TD*%
%TO.C,H2*%
X124381100Y-91328600D03*
%TD*%
%TO.C,H3*%
X172641100Y-91328600D03*
%TD*%
%TO.C,H4*%
X172641100Y-118618600D03*
%TD*%
%TO.C,PORT13*%
G36*
G01*
X142775500Y-119772600D02*
X142775500Y-118264600D01*
G75*
G02*
X142877100Y-118163000I101600J0D01*
G01*
X144385100Y-118163000D01*
G75*
G02*
X144486700Y-118264600I0J-101600D01*
G01*
X144486700Y-119772600D01*
G75*
G02*
X144385100Y-119874200I-101600J0D01*
G01*
X142877100Y-119874200D01*
G75*
G02*
X142775500Y-119772600I0J101600D01*
G01*
G37*
D10*
X141091100Y-119018600D03*
%TD*%
%TO.C,PORT14*%
G36*
G01*
X151375500Y-119772600D02*
X151375500Y-118264600D01*
G75*
G02*
X151477100Y-118163000I101600J0D01*
G01*
X152985100Y-118163000D01*
G75*
G02*
X153086700Y-118264600I0J-101600D01*
G01*
X153086700Y-119772600D01*
G75*
G02*
X152985100Y-119874200I-101600J0D01*
G01*
X151477100Y-119874200D01*
G75*
G02*
X151375500Y-119772600I0J101600D01*
G01*
G37*
X149691100Y-119018600D03*
%TD*%
M02*
