%TF.GenerationSoftware,KiCad,Pcbnew,(5.1.10)-1*%
%TF.CreationDate,2022-12-20T00:08:22+09:00*%
%TF.ProjectId,USB_JST-XH_Converter,5553425f-4a53-4542-9d58-485f436f6e76,rev?*%
%TF.SameCoordinates,Original*%
%TF.FileFunction,Soldermask,Top*%
%TF.FilePolarity,Negative*%
%FSLAX46Y46*%
G04 Gerber Fmt 4.6, Leading zero omitted, Abs format (unit mm)*
G04 Created by KiCad (PCBNEW (5.1.10)-1) date 2022-12-20 00:08:22*
%MOMM*%
%LPD*%
G01*
G04 APERTURE LIST*
%ADD10C,7.213600*%
%ADD11C,3.200000*%
%ADD12O,1.700000X1.000000*%
%ADD13C,1.711200*%
%ADD14C,1.511200*%
%ADD15C,1.853200*%
%ADD16O,1.727200X3.251200*%
G04 APERTURE END LIST*
%TO.C,R13*%
G36*
G01*
X152772700Y-102603599D02*
X152772700Y-104253601D01*
G75*
G02*
X152671101Y-104355200I-101599J0D01*
G01*
X151271099Y-104355200D01*
G75*
G02*
X151169500Y-104253601I0J101599D01*
G01*
X151169500Y-102603599D01*
G75*
G02*
X151271099Y-102502000I101599J0D01*
G01*
X152671101Y-102502000D01*
G75*
G02*
X152772700Y-102603599I0J-101599D01*
G01*
G37*
G36*
G01*
X155372700Y-102603599D02*
X155372700Y-104253601D01*
G75*
G02*
X155271101Y-104355200I-101599J0D01*
G01*
X153871099Y-104355200D01*
G75*
G02*
X153769500Y-104253601I0J101599D01*
G01*
X153769500Y-102603599D01*
G75*
G02*
X153871099Y-102502000I101599J0D01*
G01*
X155271101Y-102502000D01*
G75*
G02*
X155372700Y-102603599I0J-101599D01*
G01*
G37*
%TD*%
%TO.C,R12*%
G36*
G01*
X157369500Y-102253601D02*
X157369500Y-100603599D01*
G75*
G02*
X157471099Y-100502000I101599J0D01*
G01*
X158871101Y-100502000D01*
G75*
G02*
X158972700Y-100603599I0J-101599D01*
G01*
X158972700Y-102253601D01*
G75*
G02*
X158871101Y-102355200I-101599J0D01*
G01*
X157471099Y-102355200D01*
G75*
G02*
X157369500Y-102253601I0J101599D01*
G01*
G37*
G36*
G01*
X154769500Y-102253601D02*
X154769500Y-100603599D01*
G75*
G02*
X154871099Y-100502000I101599J0D01*
G01*
X156271101Y-100502000D01*
G75*
G02*
X156372700Y-100603599I0J-101599D01*
G01*
X156372700Y-102253601D01*
G75*
G02*
X156271101Y-102355200I-101599J0D01*
G01*
X154871099Y-102355200D01*
G75*
G02*
X154769500Y-102253601I0J101599D01*
G01*
G37*
%TD*%
%TO.C,FET1*%
G36*
G01*
X156922700Y-102628600D02*
X156922700Y-103628600D01*
G75*
G02*
X156821100Y-103730200I-101600J0D01*
G01*
X156021100Y-103730200D01*
G75*
G02*
X155919500Y-103628600I0J101600D01*
G01*
X155919500Y-102628600D01*
G75*
G02*
X156021100Y-102527000I101600J0D01*
G01*
X156821100Y-102527000D01*
G75*
G02*
X156922700Y-102628600I0J-101600D01*
G01*
G37*
G36*
G01*
X158822700Y-102628600D02*
X158822700Y-103628600D01*
G75*
G02*
X158721100Y-103730200I-101600J0D01*
G01*
X157921100Y-103730200D01*
G75*
G02*
X157819500Y-103628600I0J101600D01*
G01*
X157819500Y-102628600D01*
G75*
G02*
X157921100Y-102527000I101600J0D01*
G01*
X158721100Y-102527000D01*
G75*
G02*
X158822700Y-102628600I0J-101600D01*
G01*
G37*
G36*
G01*
X157872700Y-104628600D02*
X157872700Y-105628600D01*
G75*
G02*
X157771100Y-105730200I-101600J0D01*
G01*
X156971100Y-105730200D01*
G75*
G02*
X156869500Y-105628600I0J101600D01*
G01*
X156869500Y-104628600D01*
G75*
G02*
X156971100Y-104527000I101600J0D01*
G01*
X157771100Y-104527000D01*
G75*
G02*
X157872700Y-104628600I0J-101600D01*
G01*
G37*
%TD*%
%TO.C,R18*%
G36*
G01*
X160573400Y-97525001D02*
X160573400Y-95874999D01*
G75*
G02*
X160674999Y-95773400I101599J0D01*
G01*
X162075001Y-95773400D01*
G75*
G02*
X162176600Y-95874999I0J-101599D01*
G01*
X162176600Y-97525001D01*
G75*
G02*
X162075001Y-97626600I-101599J0D01*
G01*
X160674999Y-97626600D01*
G75*
G02*
X160573400Y-97525001I0J101599D01*
G01*
G37*
G36*
G01*
X157973400Y-97525001D02*
X157973400Y-95874999D01*
G75*
G02*
X158074999Y-95773400I101599J0D01*
G01*
X159475001Y-95773400D01*
G75*
G02*
X159576600Y-95874999I0J-101599D01*
G01*
X159576600Y-97525001D01*
G75*
G02*
X159475001Y-97626600I-101599J0D01*
G01*
X158074999Y-97626600D01*
G75*
G02*
X157973400Y-97525001I0J101599D01*
G01*
G37*
%TD*%
%TO.C,R16*%
G36*
G01*
X172425001Y-111126600D02*
X170774999Y-111126600D01*
G75*
G02*
X170673400Y-111025001I0J101599D01*
G01*
X170673400Y-109624999D01*
G75*
G02*
X170774999Y-109523400I101599J0D01*
G01*
X172425001Y-109523400D01*
G75*
G02*
X172526600Y-109624999I0J-101599D01*
G01*
X172526600Y-111025001D01*
G75*
G02*
X172425001Y-111126600I-101599J0D01*
G01*
G37*
G36*
G01*
X172425001Y-113726600D02*
X170774999Y-113726600D01*
G75*
G02*
X170673400Y-113625001I0J101599D01*
G01*
X170673400Y-112224999D01*
G75*
G02*
X170774999Y-112123400I101599J0D01*
G01*
X172425001Y-112123400D01*
G75*
G02*
X172526600Y-112224999I0J-101599D01*
G01*
X172526600Y-113625001D01*
G75*
G02*
X172425001Y-113726600I-101599J0D01*
G01*
G37*
%TD*%
%TO.C,LED1*%
G36*
G01*
X164100000Y-100101600D02*
X163300000Y-100101600D01*
G75*
G02*
X163198400Y-100000000I0J101600D01*
G01*
X163198400Y-99200000D01*
G75*
G02*
X163300000Y-99098400I101600J0D01*
G01*
X164100000Y-99098400D01*
G75*
G02*
X164201600Y-99200000I0J-101600D01*
G01*
X164201600Y-100000000D01*
G75*
G02*
X164100000Y-100101600I-101600J0D01*
G01*
G37*
G36*
G01*
X165750000Y-100101600D02*
X164950000Y-100101600D01*
G75*
G02*
X164848400Y-100000000I0J101600D01*
G01*
X164848400Y-99200000D01*
G75*
G02*
X164950000Y-99098400I101600J0D01*
G01*
X165750000Y-99098400D01*
G75*
G02*
X165851600Y-99200000I0J-101600D01*
G01*
X165851600Y-100000000D01*
G75*
G02*
X165750000Y-100101600I-101600J0D01*
G01*
G37*
%TD*%
%TO.C,FET2*%
G36*
G01*
X163951600Y-95650000D02*
X163951600Y-96650000D01*
G75*
G02*
X163850000Y-96751600I-101600J0D01*
G01*
X163050000Y-96751600D01*
G75*
G02*
X162948400Y-96650000I0J101600D01*
G01*
X162948400Y-95650000D01*
G75*
G02*
X163050000Y-95548400I101600J0D01*
G01*
X163850000Y-95548400D01*
G75*
G02*
X163951600Y-95650000I0J-101600D01*
G01*
G37*
G36*
G01*
X165851600Y-95650000D02*
X165851600Y-96650000D01*
G75*
G02*
X165750000Y-96751600I-101600J0D01*
G01*
X164950000Y-96751600D01*
G75*
G02*
X164848400Y-96650000I0J101600D01*
G01*
X164848400Y-95650000D01*
G75*
G02*
X164950000Y-95548400I101600J0D01*
G01*
X165750000Y-95548400D01*
G75*
G02*
X165851600Y-95650000I0J-101600D01*
G01*
G37*
G36*
G01*
X164901600Y-97650000D02*
X164901600Y-98650000D01*
G75*
G02*
X164800000Y-98751600I-101600J0D01*
G01*
X164000000Y-98751600D01*
G75*
G02*
X163898400Y-98650000I0J101600D01*
G01*
X163898400Y-97650000D01*
G75*
G02*
X164000000Y-97548400I101600J0D01*
G01*
X164800000Y-97548400D01*
G75*
G02*
X164901600Y-97650000I0J-101600D01*
G01*
G37*
%TD*%
D10*
%TO.C,H4*%
X171871100Y-118328600D03*
D11*
X171871100Y-118328600D03*
%TD*%
D10*
%TO.C,H1*%
X125131100Y-91628600D03*
D11*
X125131100Y-91628600D03*
%TD*%
%TO.C,USB1*%
G36*
G01*
X170447700Y-102508600D02*
X170447700Y-103308600D01*
G75*
G02*
X170346100Y-103410200I-101600J0D01*
G01*
X169196100Y-103410200D01*
G75*
G02*
X169094500Y-103308600I0J101600D01*
G01*
X169094500Y-102508600D01*
G75*
G02*
X169196100Y-102407000I101600J0D01*
G01*
X170346100Y-102407000D01*
G75*
G02*
X170447700Y-102508600I0J-101600D01*
G01*
G37*
G36*
G01*
X170447700Y-103578600D02*
X170447700Y-104278600D01*
G75*
G02*
X170346100Y-104380200I-101600J0D01*
G01*
X169196100Y-104380200D01*
G75*
G02*
X169094500Y-104278600I0J101600D01*
G01*
X169094500Y-103578600D01*
G75*
G02*
X169196100Y-103477000I101600J0D01*
G01*
X170346100Y-103477000D01*
G75*
G02*
X170447700Y-103578600I0J-101600D01*
G01*
G37*
G36*
G01*
X170447700Y-104578600D02*
X170447700Y-105278600D01*
G75*
G02*
X170346100Y-105380200I-101600J0D01*
G01*
X169196100Y-105380200D01*
G75*
G02*
X169094500Y-105278600I0J101600D01*
G01*
X169094500Y-104578600D01*
G75*
G02*
X169196100Y-104477000I101600J0D01*
G01*
X170346100Y-104477000D01*
G75*
G02*
X170447700Y-104578600I0J-101600D01*
G01*
G37*
G36*
G01*
X170447700Y-105548600D02*
X170447700Y-106348600D01*
G75*
G02*
X170346100Y-106450200I-101600J0D01*
G01*
X169196100Y-106450200D01*
G75*
G02*
X169094500Y-106348600I0J101600D01*
G01*
X169094500Y-105548600D01*
G75*
G02*
X169196100Y-105447000I101600J0D01*
G01*
X170346100Y-105447000D01*
G75*
G02*
X170447700Y-105548600I0J-101600D01*
G01*
G37*
G36*
G01*
X170447700Y-101228600D02*
X170447700Y-102128600D01*
G75*
G02*
X170346100Y-102230200I-101600J0D01*
G01*
X169196100Y-102230200D01*
G75*
G02*
X169094500Y-102128600I0J101600D01*
G01*
X169094500Y-101228600D01*
G75*
G02*
X169196100Y-101127000I101600J0D01*
G01*
X170346100Y-101127000D01*
G75*
G02*
X170447700Y-101228600I0J-101600D01*
G01*
G37*
G36*
G01*
X170447700Y-106728600D02*
X170447700Y-107628600D01*
G75*
G02*
X170346100Y-107730200I-101600J0D01*
G01*
X169196100Y-107730200D01*
G75*
G02*
X169094500Y-107628600I0J101600D01*
G01*
X169094500Y-106728600D01*
G75*
G02*
X169196100Y-106627000I101600J0D01*
G01*
X170346100Y-106627000D01*
G75*
G02*
X170447700Y-106728600I0J-101600D01*
G01*
G37*
D12*
X169771100Y-108748600D03*
X173571100Y-108748600D03*
X173571100Y-100108600D03*
X169771100Y-100108600D03*
%TD*%
%TO.C,PORT1*%
G36*
G01*
X126398400Y-102608000D02*
X126398400Y-101100000D01*
G75*
G02*
X126500000Y-100998400I101600J0D01*
G01*
X128008000Y-100998400D01*
G75*
G02*
X128109600Y-101100000I0J-101600D01*
G01*
X128109600Y-102608000D01*
G75*
G02*
X128008000Y-102709600I-101600J0D01*
G01*
X126500000Y-102709600D01*
G75*
G02*
X126398400Y-102608000I0J101600D01*
G01*
G37*
D13*
X124714000Y-101854000D03*
%TD*%
%TO.C,PORT2*%
G36*
G01*
X134375500Y-102608000D02*
X134375500Y-101100000D01*
G75*
G02*
X134477100Y-100998400I101600J0D01*
G01*
X135985100Y-100998400D01*
G75*
G02*
X136086700Y-101100000I0J-101600D01*
G01*
X136086700Y-102608000D01*
G75*
G02*
X135985100Y-102709600I-101600J0D01*
G01*
X134477100Y-102709600D01*
G75*
G02*
X134375500Y-102608000I0J101600D01*
G01*
G37*
X132691100Y-101854000D03*
%TD*%
%TO.C,PORT3*%
G36*
G01*
X142400400Y-102608000D02*
X142400400Y-101100000D01*
G75*
G02*
X142502000Y-100998400I101600J0D01*
G01*
X144010000Y-100998400D01*
G75*
G02*
X144111600Y-101100000I0J-101600D01*
G01*
X144111600Y-102608000D01*
G75*
G02*
X144010000Y-102709600I-101600J0D01*
G01*
X142502000Y-102709600D01*
G75*
G02*
X142400400Y-102608000I0J101600D01*
G01*
G37*
X140716000Y-101854000D03*
%TD*%
%TO.C,PORT4*%
G36*
G01*
X134385500Y-111172600D02*
X134385500Y-109664600D01*
G75*
G02*
X134487100Y-109563000I101600J0D01*
G01*
X135995100Y-109563000D01*
G75*
G02*
X136096700Y-109664600I0J-101600D01*
G01*
X136096700Y-111172600D01*
G75*
G02*
X135995100Y-111274200I-101600J0D01*
G01*
X134487100Y-111274200D01*
G75*
G02*
X134385500Y-111172600I0J101600D01*
G01*
G37*
X132701100Y-110418600D03*
%TD*%
%TO.C,PORT5*%
G36*
G01*
X142375500Y-111202600D02*
X142375500Y-109694600D01*
G75*
G02*
X142477100Y-109593000I101600J0D01*
G01*
X143985100Y-109593000D01*
G75*
G02*
X144086700Y-109694600I0J-101600D01*
G01*
X144086700Y-111202600D01*
G75*
G02*
X143985100Y-111304200I-101600J0D01*
G01*
X142477100Y-111304200D01*
G75*
G02*
X142375500Y-111202600I0J101600D01*
G01*
G37*
X140691100Y-110448600D03*
%TD*%
D14*
%TO.C,SW1*%
X164571100Y-120518600D03*
X164571100Y-115518600D03*
X164571100Y-118018600D03*
%TD*%
%TO.C,SW2*%
G36*
G01*
X149021100Y-101427000D02*
X149821100Y-101427000D01*
G75*
G02*
X149922700Y-101528600I0J-101600D01*
G01*
X149922700Y-102328600D01*
G75*
G02*
X149821100Y-102430200I-101600J0D01*
G01*
X149021100Y-102430200D01*
G75*
G02*
X148919500Y-102328600I0J101600D01*
G01*
X148919500Y-101528600D01*
G75*
G02*
X149021100Y-101427000I101600J0D01*
G01*
G37*
G36*
G01*
X147371100Y-101427000D02*
X148171100Y-101427000D01*
G75*
G02*
X148272700Y-101528600I0J-101600D01*
G01*
X148272700Y-102328600D01*
G75*
G02*
X148171100Y-102430200I-101600J0D01*
G01*
X147371100Y-102430200D01*
G75*
G02*
X147269500Y-102328600I0J101600D01*
G01*
X147269500Y-101528600D01*
G75*
G02*
X147371100Y-101427000I101600J0D01*
G01*
G37*
%TD*%
%TO.C,R2*%
G36*
G01*
X149869500Y-97753601D02*
X149869500Y-96103599D01*
G75*
G02*
X149971099Y-96002000I101599J0D01*
G01*
X151371101Y-96002000D01*
G75*
G02*
X151472700Y-96103599I0J-101599D01*
G01*
X151472700Y-97753601D01*
G75*
G02*
X151371101Y-97855200I-101599J0D01*
G01*
X149971099Y-97855200D01*
G75*
G02*
X149869500Y-97753601I0J101599D01*
G01*
G37*
G36*
G01*
X147269500Y-97753601D02*
X147269500Y-96103599D01*
G75*
G02*
X147371099Y-96002000I101599J0D01*
G01*
X148771101Y-96002000D01*
G75*
G02*
X148872700Y-96103599I0J-101599D01*
G01*
X148872700Y-97753601D01*
G75*
G02*
X148771101Y-97855200I-101599J0D01*
G01*
X147371099Y-97855200D01*
G75*
G02*
X147269500Y-97753601I0J101599D01*
G01*
G37*
%TD*%
D10*
%TO.C,H2*%
X125131100Y-118328600D03*
D11*
X125131100Y-118328600D03*
%TD*%
D10*
%TO.C,H3*%
X171871100Y-91628600D03*
D11*
X171871100Y-91628600D03*
%TD*%
%TO.C,R3*%
G36*
G01*
X164650001Y-102130200D02*
X162999999Y-102130200D01*
G75*
G02*
X162898400Y-102028601I0J101599D01*
G01*
X162898400Y-100628599D01*
G75*
G02*
X162999999Y-100527000I101599J0D01*
G01*
X164650001Y-100527000D01*
G75*
G02*
X164751600Y-100628599I0J-101599D01*
G01*
X164751600Y-102028601D01*
G75*
G02*
X164650001Y-102130200I-101599J0D01*
G01*
G37*
G36*
G01*
X164650001Y-104730200D02*
X162999999Y-104730200D01*
G75*
G02*
X162898400Y-104628601I0J101599D01*
G01*
X162898400Y-103228599D01*
G75*
G02*
X162999999Y-103127000I101599J0D01*
G01*
X164650001Y-103127000D01*
G75*
G02*
X164751600Y-103228599I0J-101599D01*
G01*
X164751600Y-104628601D01*
G75*
G02*
X164650001Y-104730200I-101599J0D01*
G01*
G37*
%TD*%
%TO.C,R4*%
G36*
G01*
X166700001Y-102130200D02*
X165049999Y-102130200D01*
G75*
G02*
X164948400Y-102028601I0J101599D01*
G01*
X164948400Y-100628599D01*
G75*
G02*
X165049999Y-100527000I101599J0D01*
G01*
X166700001Y-100527000D01*
G75*
G02*
X166801600Y-100628599I0J-101599D01*
G01*
X166801600Y-102028601D01*
G75*
G02*
X166700001Y-102130200I-101599J0D01*
G01*
G37*
G36*
G01*
X166700001Y-104730200D02*
X165049999Y-104730200D01*
G75*
G02*
X164948400Y-104628601I0J101599D01*
G01*
X164948400Y-103228599D01*
G75*
G02*
X165049999Y-103127000I101599J0D01*
G01*
X166700001Y-103127000D01*
G75*
G02*
X166801600Y-103228599I0J-101599D01*
G01*
X166801600Y-104628601D01*
G75*
G02*
X166700001Y-104730200I-101599J0D01*
G01*
G37*
%TD*%
%TO.C,SWITCH*%
G36*
G01*
X133985500Y-119682600D02*
X133985500Y-118174600D01*
G75*
G02*
X134087100Y-118073000I101600J0D01*
G01*
X135595100Y-118073000D01*
G75*
G02*
X135696700Y-118174600I0J-101600D01*
G01*
X135696700Y-119682600D01*
G75*
G02*
X135595100Y-119784200I-101600J0D01*
G01*
X134087100Y-119784200D01*
G75*
G02*
X133985500Y-119682600I0J101600D01*
G01*
G37*
D13*
X132301100Y-118928600D03*
%TD*%
%TO.C,CTRL*%
G36*
G01*
X141985500Y-119682600D02*
X141985500Y-118174600D01*
G75*
G02*
X142087100Y-118073000I101600J0D01*
G01*
X143595100Y-118073000D01*
G75*
G02*
X143696700Y-118174600I0J-101600D01*
G01*
X143696700Y-119682600D01*
G75*
G02*
X143595100Y-119784200I-101600J0D01*
G01*
X142087100Y-119784200D01*
G75*
G02*
X141985500Y-119682600I0J101600D01*
G01*
G37*
X140301100Y-118928600D03*
%TD*%
%TO.C,CTRLSP*%
G36*
G01*
X149985500Y-119682600D02*
X149985500Y-118174600D01*
G75*
G02*
X150087100Y-118073000I101600J0D01*
G01*
X151595100Y-118073000D01*
G75*
G02*
X151696700Y-118174600I0J-101600D01*
G01*
X151696700Y-119682600D01*
G75*
G02*
X151595100Y-119784200I-101600J0D01*
G01*
X150087100Y-119784200D01*
G75*
G02*
X149985500Y-119682600I0J101600D01*
G01*
G37*
X148301100Y-118928600D03*
%TD*%
%TO.C,C1*%
G36*
G01*
X161569500Y-104128600D02*
X161569500Y-102728600D01*
G75*
G02*
X161671100Y-102627000I101600J0D01*
G01*
X162471100Y-102627000D01*
G75*
G02*
X162572700Y-102728600I0J-101600D01*
G01*
X162572700Y-104128600D01*
G75*
G02*
X162471100Y-104230200I-101600J0D01*
G01*
X161671100Y-104230200D01*
G75*
G02*
X161569500Y-104128600I0J101600D01*
G01*
G37*
G36*
G01*
X159569500Y-104128600D02*
X159569500Y-102728600D01*
G75*
G02*
X159671100Y-102627000I101600J0D01*
G01*
X160471100Y-102627000D01*
G75*
G02*
X160572700Y-102728600I0J-101600D01*
G01*
X160572700Y-104128600D01*
G75*
G02*
X160471100Y-104230200I-101600J0D01*
G01*
X159671100Y-104230200D01*
G75*
G02*
X159569500Y-104128600I0J101600D01*
G01*
G37*
%TD*%
%TO.C,C2*%
G36*
G01*
X164871100Y-107427000D02*
X166271100Y-107427000D01*
G75*
G02*
X166372700Y-107528600I0J-101600D01*
G01*
X166372700Y-108328600D01*
G75*
G02*
X166271100Y-108430200I-101600J0D01*
G01*
X164871100Y-108430200D01*
G75*
G02*
X164769500Y-108328600I0J101600D01*
G01*
X164769500Y-107528600D01*
G75*
G02*
X164871100Y-107427000I101600J0D01*
G01*
G37*
G36*
G01*
X164871100Y-105427000D02*
X166271100Y-105427000D01*
G75*
G02*
X166372700Y-105528600I0J-101600D01*
G01*
X166372700Y-106328600D01*
G75*
G02*
X166271100Y-106430200I-101600J0D01*
G01*
X164871100Y-106430200D01*
G75*
G02*
X164769500Y-106328600I0J101600D01*
G01*
X164769500Y-105528600D01*
G75*
G02*
X164871100Y-105427000I101600J0D01*
G01*
G37*
%TD*%
%TO.C,R6*%
G36*
G01*
X174400001Y-111151600D02*
X172749999Y-111151600D01*
G75*
G02*
X172648400Y-111050001I0J101599D01*
G01*
X172648400Y-109649999D01*
G75*
G02*
X172749999Y-109548400I101599J0D01*
G01*
X174400001Y-109548400D01*
G75*
G02*
X174501600Y-109649999I0J-101599D01*
G01*
X174501600Y-111050001D01*
G75*
G02*
X174400001Y-111151600I-101599J0D01*
G01*
G37*
G36*
G01*
X174400001Y-113751600D02*
X172749999Y-113751600D01*
G75*
G02*
X172648400Y-113650001I0J101599D01*
G01*
X172648400Y-112249999D01*
G75*
G02*
X172749999Y-112148400I101599J0D01*
G01*
X174400001Y-112148400D01*
G75*
G02*
X174501600Y-112249999I0J-101599D01*
G01*
X174501600Y-113650001D01*
G75*
G02*
X174400001Y-113751600I-101599J0D01*
G01*
G37*
%TD*%
%TO.C,R7*%
G36*
G01*
X168396101Y-111130200D02*
X166746099Y-111130200D01*
G75*
G02*
X166644500Y-111028601I0J101599D01*
G01*
X166644500Y-109628599D01*
G75*
G02*
X166746099Y-109527000I101599J0D01*
G01*
X168396101Y-109527000D01*
G75*
G02*
X168497700Y-109628599I0J-101599D01*
G01*
X168497700Y-111028601D01*
G75*
G02*
X168396101Y-111130200I-101599J0D01*
G01*
G37*
G36*
G01*
X168396101Y-113730200D02*
X166746099Y-113730200D01*
G75*
G02*
X166644500Y-113628601I0J101599D01*
G01*
X166644500Y-112228599D01*
G75*
G02*
X166746099Y-112127000I101599J0D01*
G01*
X168396101Y-112127000D01*
G75*
G02*
X168497700Y-112228599I0J-101599D01*
G01*
X168497700Y-113628601D01*
G75*
G02*
X168396101Y-113730200I-101599J0D01*
G01*
G37*
%TD*%
%TO.C,R8*%
G36*
G01*
X152746099Y-100727000D02*
X154396101Y-100727000D01*
G75*
G02*
X154497700Y-100828599I0J-101599D01*
G01*
X154497700Y-102228601D01*
G75*
G02*
X154396101Y-102330200I-101599J0D01*
G01*
X152746099Y-102330200D01*
G75*
G02*
X152644500Y-102228601I0J101599D01*
G01*
X152644500Y-100828599D01*
G75*
G02*
X152746099Y-100727000I101599J0D01*
G01*
G37*
G36*
G01*
X152746099Y-98127000D02*
X154396101Y-98127000D01*
G75*
G02*
X154497700Y-98228599I0J-101599D01*
G01*
X154497700Y-99628601D01*
G75*
G02*
X154396101Y-99730200I-101599J0D01*
G01*
X152746099Y-99730200D01*
G75*
G02*
X152644500Y-99628601I0J101599D01*
G01*
X152644500Y-98228599D01*
G75*
G02*
X152746099Y-98127000I101599J0D01*
G01*
G37*
%TD*%
%TO.C,R9*%
G36*
G01*
X155369500Y-97553601D02*
X155369500Y-95903599D01*
G75*
G02*
X155471099Y-95802000I101599J0D01*
G01*
X156871101Y-95802000D01*
G75*
G02*
X156972700Y-95903599I0J-101599D01*
G01*
X156972700Y-97553601D01*
G75*
G02*
X156871101Y-97655200I-101599J0D01*
G01*
X155471099Y-97655200D01*
G75*
G02*
X155369500Y-97553601I0J101599D01*
G01*
G37*
G36*
G01*
X152769500Y-97553601D02*
X152769500Y-95903599D01*
G75*
G02*
X152871099Y-95802000I101599J0D01*
G01*
X154271101Y-95802000D01*
G75*
G02*
X154372700Y-95903599I0J-101599D01*
G01*
X154372700Y-97553601D01*
G75*
G02*
X154271101Y-97655200I-101599J0D01*
G01*
X152871099Y-97655200D01*
G75*
G02*
X152769500Y-97553601I0J101599D01*
G01*
G37*
%TD*%
%TO.C,R12*%
G36*
G01*
X151772700Y-108103599D02*
X151772700Y-109753601D01*
G75*
G02*
X151671101Y-109855200I-101599J0D01*
G01*
X150271099Y-109855200D01*
G75*
G02*
X150169500Y-109753601I0J101599D01*
G01*
X150169500Y-108103599D01*
G75*
G02*
X150271099Y-108002000I101599J0D01*
G01*
X151671101Y-108002000D01*
G75*
G02*
X151772700Y-108103599I0J-101599D01*
G01*
G37*
G36*
G01*
X154372700Y-108103599D02*
X154372700Y-109753601D01*
G75*
G02*
X154271101Y-109855200I-101599J0D01*
G01*
X152871099Y-109855200D01*
G75*
G02*
X152769500Y-109753601I0J101599D01*
G01*
X152769500Y-108103599D01*
G75*
G02*
X152871099Y-108002000I101599J0D01*
G01*
X154271101Y-108002000D01*
G75*
G02*
X154372700Y-108103599I0J-101599D01*
G01*
G37*
%TD*%
%TO.C,R13*%
G36*
G01*
X156772700Y-108103599D02*
X156772700Y-109753601D01*
G75*
G02*
X156671101Y-109855200I-101599J0D01*
G01*
X155271099Y-109855200D01*
G75*
G02*
X155169500Y-109753601I0J101599D01*
G01*
X155169500Y-108103599D01*
G75*
G02*
X155271099Y-108002000I101599J0D01*
G01*
X156671101Y-108002000D01*
G75*
G02*
X156772700Y-108103599I0J-101599D01*
G01*
G37*
G36*
G01*
X159372700Y-108103599D02*
X159372700Y-109753601D01*
G75*
G02*
X159271101Y-109855200I-101599J0D01*
G01*
X157871099Y-109855200D01*
G75*
G02*
X157769500Y-109753601I0J101599D01*
G01*
X157769500Y-108103599D01*
G75*
G02*
X157871099Y-108002000I101599J0D01*
G01*
X159271101Y-108002000D01*
G75*
G02*
X159372700Y-108103599I0J-101599D01*
G01*
G37*
%TD*%
%TO.C,U2*%
G36*
G01*
X157019500Y-111693600D02*
X157019500Y-110893600D01*
G75*
G02*
X157121100Y-110792000I101600J0D01*
G01*
X158321100Y-110792000D01*
G75*
G02*
X158422700Y-110893600I0J-101600D01*
G01*
X158422700Y-111693600D01*
G75*
G02*
X158321100Y-111795200I-101600J0D01*
G01*
X157121100Y-111795200D01*
G75*
G02*
X157019500Y-111693600I0J101600D01*
G01*
G37*
G36*
G01*
X157019500Y-112963600D02*
X157019500Y-112163600D01*
G75*
G02*
X157121100Y-112062000I101600J0D01*
G01*
X158321100Y-112062000D01*
G75*
G02*
X158422700Y-112163600I0J-101600D01*
G01*
X158422700Y-112963600D01*
G75*
G02*
X158321100Y-113065200I-101600J0D01*
G01*
X157121100Y-113065200D01*
G75*
G02*
X157019500Y-112963600I0J101600D01*
G01*
G37*
G36*
G01*
X150719500Y-112963600D02*
X150719500Y-112163600D01*
G75*
G02*
X150821100Y-112062000I101600J0D01*
G01*
X152021100Y-112062000D01*
G75*
G02*
X152122700Y-112163600I0J-101600D01*
G01*
X152122700Y-112963600D01*
G75*
G02*
X152021100Y-113065200I-101600J0D01*
G01*
X150821100Y-113065200D01*
G75*
G02*
X150719500Y-112963600I0J101600D01*
G01*
G37*
G36*
G01*
X150719500Y-111693600D02*
X150719500Y-110893600D01*
G75*
G02*
X150821100Y-110792000I101600J0D01*
G01*
X152021100Y-110792000D01*
G75*
G02*
X152122700Y-110893600I0J-101600D01*
G01*
X152122700Y-111693600D01*
G75*
G02*
X152021100Y-111795200I-101600J0D01*
G01*
X150821100Y-111795200D01*
G75*
G02*
X150719500Y-111693600I0J101600D01*
G01*
G37*
%TD*%
D15*
%TO.C,TP1*%
X155621100Y-118928600D03*
X158121100Y-116428600D03*
X160621100Y-118928600D03*
%TD*%
%TO.C,R5*%
G36*
G01*
X147772700Y-111603599D02*
X147772700Y-113253601D01*
G75*
G02*
X147671101Y-113355200I-101599J0D01*
G01*
X146271099Y-113355200D01*
G75*
G02*
X146169500Y-113253601I0J101599D01*
G01*
X146169500Y-111603599D01*
G75*
G02*
X146271099Y-111502000I101599J0D01*
G01*
X147671101Y-111502000D01*
G75*
G02*
X147772700Y-111603599I0J-101599D01*
G01*
G37*
G36*
G01*
X150372700Y-111603599D02*
X150372700Y-113253601D01*
G75*
G02*
X150271101Y-113355200I-101599J0D01*
G01*
X148871099Y-113355200D01*
G75*
G02*
X148769500Y-113253601I0J101599D01*
G01*
X148769500Y-111603599D01*
G75*
G02*
X148871099Y-111502000I101599J0D01*
G01*
X150271101Y-111502000D01*
G75*
G02*
X150372700Y-111603599I0J-101599D01*
G01*
G37*
%TD*%
%TO.C,R14*%
G36*
G01*
X170396101Y-111130200D02*
X168746099Y-111130200D01*
G75*
G02*
X168644500Y-111028601I0J101599D01*
G01*
X168644500Y-109628599D01*
G75*
G02*
X168746099Y-109527000I101599J0D01*
G01*
X170396101Y-109527000D01*
G75*
G02*
X170497700Y-109628599I0J-101599D01*
G01*
X170497700Y-111028601D01*
G75*
G02*
X170396101Y-111130200I-101599J0D01*
G01*
G37*
G36*
G01*
X170396101Y-113730200D02*
X168746099Y-113730200D01*
G75*
G02*
X168644500Y-113628601I0J101599D01*
G01*
X168644500Y-112228599D01*
G75*
G02*
X168746099Y-112127000I101599J0D01*
G01*
X170396101Y-112127000D01*
G75*
G02*
X170497700Y-112228599I0J-101599D01*
G01*
X170497700Y-113628601D01*
G75*
G02*
X170396101Y-113730200I-101599J0D01*
G01*
G37*
%TD*%
D16*
%TO.C,JP1*%
X124301100Y-109928600D03*
X126841100Y-109928600D03*
%TD*%
%TO.C,TR1*%
G36*
G01*
X165321100Y-110630200D02*
X164521100Y-110630200D01*
G75*
G02*
X164419500Y-110528600I0J101600D01*
G01*
X164419500Y-109528600D01*
G75*
G02*
X164521100Y-109427000I101600J0D01*
G01*
X165321100Y-109427000D01*
G75*
G02*
X165422700Y-109528600I0J-101600D01*
G01*
X165422700Y-110528600D01*
G75*
G02*
X165321100Y-110630200I-101600J0D01*
G01*
G37*
G36*
G01*
X164371100Y-113030200D02*
X163571100Y-113030200D01*
G75*
G02*
X163469500Y-112928600I0J101600D01*
G01*
X163469500Y-111928600D01*
G75*
G02*
X163571100Y-111827000I101600J0D01*
G01*
X164371100Y-111827000D01*
G75*
G02*
X164472700Y-111928600I0J-101600D01*
G01*
X164472700Y-112928600D01*
G75*
G02*
X164371100Y-113030200I-101600J0D01*
G01*
G37*
G36*
G01*
X166271100Y-113030200D02*
X165471100Y-113030200D01*
G75*
G02*
X165369500Y-112928600I0J101600D01*
G01*
X165369500Y-111928600D01*
G75*
G02*
X165471100Y-111827000I101600J0D01*
G01*
X166271100Y-111827000D01*
G75*
G02*
X166372700Y-111928600I0J-101600D01*
G01*
X166372700Y-112928600D01*
G75*
G02*
X166271100Y-113030200I-101600J0D01*
G01*
G37*
%TD*%
%TO.C,D2*%
G36*
G01*
X167321100Y-106997000D02*
X167821100Y-106997000D01*
G75*
G02*
X167922700Y-107098600I0J-101600D01*
G01*
X167922700Y-107628600D01*
G75*
G02*
X167821100Y-107730200I-101600J0D01*
G01*
X167321100Y-107730200D01*
G75*
G02*
X167219500Y-107628600I0J101600D01*
G01*
X167219500Y-107098600D01*
G75*
G02*
X167321100Y-106997000I101600J0D01*
G01*
G37*
G36*
G01*
X167321100Y-105527000D02*
X167821100Y-105527000D01*
G75*
G02*
X167922700Y-105628600I0J-101600D01*
G01*
X167922700Y-106158600D01*
G75*
G02*
X167821100Y-106260200I-101600J0D01*
G01*
X167321100Y-106260200D01*
G75*
G02*
X167219500Y-106158600I0J101600D01*
G01*
X167219500Y-105628600D01*
G75*
G02*
X167321100Y-105527000I101600J0D01*
G01*
G37*
%TD*%
%TO.C,D1*%
G36*
G01*
X160889500Y-101628600D02*
X160889500Y-101228600D01*
G75*
G02*
X160991100Y-101127000I101600J0D01*
G01*
X161471100Y-101127000D01*
G75*
G02*
X161572700Y-101228600I0J-101600D01*
G01*
X161572700Y-101628600D01*
G75*
G02*
X161471100Y-101730200I-101600J0D01*
G01*
X160991100Y-101730200D01*
G75*
G02*
X160889500Y-101628600I0J101600D01*
G01*
G37*
G36*
G01*
X159569500Y-101628600D02*
X159569500Y-101228600D01*
G75*
G02*
X159671100Y-101127000I101600J0D01*
G01*
X160151100Y-101127000D01*
G75*
G02*
X160252700Y-101228600I0J-101600D01*
G01*
X160252700Y-101628600D01*
G75*
G02*
X160151100Y-101730200I-101600J0D01*
G01*
X159671100Y-101730200D01*
G75*
G02*
X159569500Y-101628600I0J101600D01*
G01*
G37*
%TD*%
%TO.C,D3*%
G36*
G01*
X160868400Y-100375000D02*
X160868400Y-99975000D01*
G75*
G02*
X160970000Y-99873400I101600J0D01*
G01*
X161450000Y-99873400D01*
G75*
G02*
X161551600Y-99975000I0J-101600D01*
G01*
X161551600Y-100375000D01*
G75*
G02*
X161450000Y-100476600I-101600J0D01*
G01*
X160970000Y-100476600D01*
G75*
G02*
X160868400Y-100375000I0J101600D01*
G01*
G37*
G36*
G01*
X159548400Y-100375000D02*
X159548400Y-99975000D01*
G75*
G02*
X159650000Y-99873400I101600J0D01*
G01*
X160130000Y-99873400D01*
G75*
G02*
X160231600Y-99975000I0J-101600D01*
G01*
X160231600Y-100375000D01*
G75*
G02*
X160130000Y-100476600I-101600J0D01*
G01*
X159650000Y-100476600D01*
G75*
G02*
X159548400Y-100375000I0J101600D01*
G01*
G37*
%TD*%
%TO.C,D4*%
G36*
G01*
X160889500Y-99100000D02*
X160889500Y-98700000D01*
G75*
G02*
X160991100Y-98598400I101600J0D01*
G01*
X161471100Y-98598400D01*
G75*
G02*
X161572700Y-98700000I0J-101600D01*
G01*
X161572700Y-99100000D01*
G75*
G02*
X161471100Y-99201600I-101600J0D01*
G01*
X160991100Y-99201600D01*
G75*
G02*
X160889500Y-99100000I0J101600D01*
G01*
G37*
G36*
G01*
X159569500Y-99100000D02*
X159569500Y-98700000D01*
G75*
G02*
X159671100Y-98598400I101600J0D01*
G01*
X160151100Y-98598400D01*
G75*
G02*
X160252700Y-98700000I0J-101600D01*
G01*
X160252700Y-99100000D01*
G75*
G02*
X160151100Y-99201600I-101600J0D01*
G01*
X159671100Y-99201600D01*
G75*
G02*
X159569500Y-99100000I0J101600D01*
G01*
G37*
%TD*%
%TO.C,COMP1*%
G36*
G01*
X157296100Y-99252000D02*
X158246100Y-99252000D01*
G75*
G02*
X158347700Y-99353600I0J-101600D01*
G01*
X158347700Y-99803600D01*
G75*
G02*
X158246100Y-99905200I-101600J0D01*
G01*
X157296100Y-99905200D01*
G75*
G02*
X157194500Y-99803600I0J101600D01*
G01*
X157194500Y-99353600D01*
G75*
G02*
X157296100Y-99252000I101600J0D01*
G01*
G37*
G36*
G01*
X157296100Y-98602000D02*
X158246100Y-98602000D01*
G75*
G02*
X158347700Y-98703600I0J-101600D01*
G01*
X158347700Y-99153600D01*
G75*
G02*
X158246100Y-99255200I-101600J0D01*
G01*
X157296100Y-99255200D01*
G75*
G02*
X157194500Y-99153600I0J101600D01*
G01*
X157194500Y-98703600D01*
G75*
G02*
X157296100Y-98602000I101600J0D01*
G01*
G37*
G36*
G01*
X157296100Y-97952000D02*
X158246100Y-97952000D01*
G75*
G02*
X158347700Y-98053600I0J-101600D01*
G01*
X158347700Y-98503600D01*
G75*
G02*
X158246100Y-98605200I-101600J0D01*
G01*
X157296100Y-98605200D01*
G75*
G02*
X157194500Y-98503600I0J101600D01*
G01*
X157194500Y-98053600D01*
G75*
G02*
X157296100Y-97952000I101600J0D01*
G01*
G37*
G36*
G01*
X155096100Y-99252000D02*
X156046100Y-99252000D01*
G75*
G02*
X156147700Y-99353600I0J-101600D01*
G01*
X156147700Y-99803600D01*
G75*
G02*
X156046100Y-99905200I-101600J0D01*
G01*
X155096100Y-99905200D01*
G75*
G02*
X154994500Y-99803600I0J101600D01*
G01*
X154994500Y-99353600D01*
G75*
G02*
X155096100Y-99252000I101600J0D01*
G01*
G37*
G36*
G01*
X155096100Y-97952000D02*
X156046100Y-97952000D01*
G75*
G02*
X156147700Y-98053600I0J-101600D01*
G01*
X156147700Y-98503600D01*
G75*
G02*
X156046100Y-98605200I-101600J0D01*
G01*
X155096100Y-98605200D01*
G75*
G02*
X154994500Y-98503600I0J101600D01*
G01*
X154994500Y-98053600D01*
G75*
G02*
X155096100Y-97952000I101600J0D01*
G01*
G37*
%TD*%
%TO.C,POW1*%
G36*
G01*
X149021100Y-104298400D02*
X149821100Y-104298400D01*
G75*
G02*
X149922700Y-104400000I0J-101600D01*
G01*
X149922700Y-105200000D01*
G75*
G02*
X149821100Y-105301600I-101600J0D01*
G01*
X149021100Y-105301600D01*
G75*
G02*
X148919500Y-105200000I0J101600D01*
G01*
X148919500Y-104400000D01*
G75*
G02*
X149021100Y-104298400I101600J0D01*
G01*
G37*
G36*
G01*
X147371100Y-104298400D02*
X148171100Y-104298400D01*
G75*
G02*
X148272700Y-104400000I0J-101600D01*
G01*
X148272700Y-105200000D01*
G75*
G02*
X148171100Y-105301600I-101600J0D01*
G01*
X147371100Y-105301600D01*
G75*
G02*
X147269500Y-105200000I0J101600D01*
G01*
X147269500Y-104400000D01*
G75*
G02*
X147371100Y-104298400I101600J0D01*
G01*
G37*
%TD*%
%TO.C,R1*%
G36*
G01*
X149869500Y-99753601D02*
X149869500Y-98103599D01*
G75*
G02*
X149971099Y-98002000I101599J0D01*
G01*
X151371101Y-98002000D01*
G75*
G02*
X151472700Y-98103599I0J-101599D01*
G01*
X151472700Y-99753601D01*
G75*
G02*
X151371101Y-99855200I-101599J0D01*
G01*
X149971099Y-99855200D01*
G75*
G02*
X149869500Y-99753601I0J101599D01*
G01*
G37*
G36*
G01*
X147269500Y-99753601D02*
X147269500Y-98103599D01*
G75*
G02*
X147371099Y-98002000I101599J0D01*
G01*
X148771101Y-98002000D01*
G75*
G02*
X148872700Y-98103599I0J-101599D01*
G01*
X148872700Y-99753601D01*
G75*
G02*
X148771101Y-99855200I-101599J0D01*
G01*
X147371099Y-99855200D01*
G75*
G02*
X147269500Y-99753601I0J101599D01*
G01*
G37*
%TD*%
%TO.C,POWER*%
G36*
G01*
X151255500Y-93682600D02*
X151255500Y-92174600D01*
G75*
G02*
X151357100Y-92073000I101600J0D01*
G01*
X152865100Y-92073000D01*
G75*
G02*
X152966700Y-92174600I0J-101600D01*
G01*
X152966700Y-93682600D01*
G75*
G02*
X152865100Y-93784200I-101600J0D01*
G01*
X151357100Y-93784200D01*
G75*
G02*
X151255500Y-93682600I0J101600D01*
G01*
G37*
D13*
X149571100Y-92928600D03*
X147031100Y-92928600D03*
%TD*%
%TO.C,THRU*%
G36*
G01*
X163255500Y-93682600D02*
X163255500Y-92174600D01*
G75*
G02*
X163357100Y-92073000I101600J0D01*
G01*
X164865100Y-92073000D01*
G75*
G02*
X164966700Y-92174600I0J-101600D01*
G01*
X164966700Y-93682600D01*
G75*
G02*
X164865100Y-93784200I-101600J0D01*
G01*
X163357100Y-93784200D01*
G75*
G02*
X163255500Y-93682600I0J101600D01*
G01*
G37*
X161571100Y-92928600D03*
X159031100Y-92928600D03*
%TD*%
%TO.C,C3*%
G36*
G01*
X161272700Y-110728600D02*
X161272700Y-111728600D01*
G75*
G02*
X161171100Y-111830200I-101600J0D01*
G01*
X160371100Y-111830200D01*
G75*
G02*
X160269500Y-111728600I0J101600D01*
G01*
X160269500Y-110728600D01*
G75*
G02*
X160371100Y-110627000I101600J0D01*
G01*
X161171100Y-110627000D01*
G75*
G02*
X161272700Y-110728600I0J-101600D01*
G01*
G37*
G36*
G01*
X162872700Y-110728600D02*
X162872700Y-111728600D01*
G75*
G02*
X162771100Y-111830200I-101600J0D01*
G01*
X161971100Y-111830200D01*
G75*
G02*
X161869500Y-111728600I0J101600D01*
G01*
X161869500Y-110728600D01*
G75*
G02*
X161971100Y-110627000I101600J0D01*
G01*
X162771100Y-110627000D01*
G75*
G02*
X162872700Y-110728600I0J-101600D01*
G01*
G37*
%TD*%
%TO.C,C4*%
G36*
G01*
X138969500Y-93178600D02*
X138969500Y-90678600D01*
G75*
G02*
X139071100Y-90577000I101600J0D01*
G01*
X142571100Y-90577000D01*
G75*
G02*
X142672700Y-90678600I0J-101600D01*
G01*
X142672700Y-93178600D01*
G75*
G02*
X142571100Y-93280200I-101600J0D01*
G01*
X139071100Y-93280200D01*
G75*
G02*
X138969500Y-93178600I0J101600D01*
G01*
G37*
G36*
G01*
X132469500Y-93178600D02*
X132469500Y-90678600D01*
G75*
G02*
X132571100Y-90577000I101600J0D01*
G01*
X136071100Y-90577000D01*
G75*
G02*
X136172700Y-90678600I0J-101600D01*
G01*
X136172700Y-93178600D01*
G75*
G02*
X136071100Y-93280200I-101600J0D01*
G01*
X132571100Y-93280200D01*
G75*
G02*
X132469500Y-93178600I0J101600D01*
G01*
G37*
%TD*%
%TO.C,U1*%
G36*
G01*
X161122700Y-109288600D02*
X161122700Y-109568600D01*
G75*
G02*
X161021100Y-109670200I-101600J0D01*
G01*
X160171100Y-109670200D01*
G75*
G02*
X160069500Y-109568600I0J101600D01*
G01*
X160069500Y-109288600D01*
G75*
G02*
X160171100Y-109187000I101600J0D01*
G01*
X161021100Y-109187000D01*
G75*
G02*
X161122700Y-109288600I0J-101600D01*
G01*
G37*
G36*
G01*
X161122700Y-108788600D02*
X161122700Y-109068600D01*
G75*
G02*
X161021100Y-109170200I-101600J0D01*
G01*
X160171100Y-109170200D01*
G75*
G02*
X160069500Y-109068600I0J101600D01*
G01*
X160069500Y-108788600D01*
G75*
G02*
X160171100Y-108687000I101600J0D01*
G01*
X161021100Y-108687000D01*
G75*
G02*
X161122700Y-108788600I0J-101600D01*
G01*
G37*
G36*
G01*
X161122700Y-108288600D02*
X161122700Y-108568600D01*
G75*
G02*
X161021100Y-108670200I-101600J0D01*
G01*
X160171100Y-108670200D01*
G75*
G02*
X160069500Y-108568600I0J101600D01*
G01*
X160069500Y-108288600D01*
G75*
G02*
X160171100Y-108187000I101600J0D01*
G01*
X161021100Y-108187000D01*
G75*
G02*
X161122700Y-108288600I0J-101600D01*
G01*
G37*
G36*
G01*
X161122700Y-107788600D02*
X161122700Y-108068600D01*
G75*
G02*
X161021100Y-108170200I-101600J0D01*
G01*
X160171100Y-108170200D01*
G75*
G02*
X160069500Y-108068600I0J101600D01*
G01*
X160069500Y-107788600D01*
G75*
G02*
X160171100Y-107687000I101600J0D01*
G01*
X161021100Y-107687000D01*
G75*
G02*
X161122700Y-107788600I0J-101600D01*
G01*
G37*
G36*
G01*
X161122700Y-107288600D02*
X161122700Y-107568600D01*
G75*
G02*
X161021100Y-107670200I-101600J0D01*
G01*
X160171100Y-107670200D01*
G75*
G02*
X160069500Y-107568600I0J101600D01*
G01*
X160069500Y-107288600D01*
G75*
G02*
X160171100Y-107187000I101600J0D01*
G01*
X161021100Y-107187000D01*
G75*
G02*
X161122700Y-107288600I0J-101600D01*
G01*
G37*
G36*
G01*
X164072700Y-107288600D02*
X164072700Y-107568600D01*
G75*
G02*
X163971100Y-107670200I-101600J0D01*
G01*
X163121100Y-107670200D01*
G75*
G02*
X163019500Y-107568600I0J101600D01*
G01*
X163019500Y-107288600D01*
G75*
G02*
X163121100Y-107187000I101600J0D01*
G01*
X163971100Y-107187000D01*
G75*
G02*
X164072700Y-107288600I0J-101600D01*
G01*
G37*
G36*
G01*
X164072700Y-107788600D02*
X164072700Y-108068600D01*
G75*
G02*
X163971100Y-108170200I-101600J0D01*
G01*
X163121100Y-108170200D01*
G75*
G02*
X163019500Y-108068600I0J101600D01*
G01*
X163019500Y-107788600D01*
G75*
G02*
X163121100Y-107687000I101600J0D01*
G01*
X163971100Y-107687000D01*
G75*
G02*
X164072700Y-107788600I0J-101600D01*
G01*
G37*
G36*
G01*
X164072700Y-108288600D02*
X164072700Y-108568600D01*
G75*
G02*
X163971100Y-108670200I-101600J0D01*
G01*
X163121100Y-108670200D01*
G75*
G02*
X163019500Y-108568600I0J101600D01*
G01*
X163019500Y-108288600D01*
G75*
G02*
X163121100Y-108187000I101600J0D01*
G01*
X163971100Y-108187000D01*
G75*
G02*
X164072700Y-108288600I0J-101600D01*
G01*
G37*
G36*
G01*
X164072700Y-108788600D02*
X164072700Y-109068600D01*
G75*
G02*
X163971100Y-109170200I-101600J0D01*
G01*
X163121100Y-109170200D01*
G75*
G02*
X163019500Y-109068600I0J101600D01*
G01*
X163019500Y-108788600D01*
G75*
G02*
X163121100Y-108687000I101600J0D01*
G01*
X163971100Y-108687000D01*
G75*
G02*
X164072700Y-108788600I0J-101600D01*
G01*
G37*
G36*
G01*
X164072700Y-109288600D02*
X164072700Y-109568600D01*
G75*
G02*
X163971100Y-109670200I-101600J0D01*
G01*
X163121100Y-109670200D01*
G75*
G02*
X163019500Y-109568600I0J101600D01*
G01*
X163019500Y-109288600D01*
G75*
G02*
X163121100Y-109187000I101600J0D01*
G01*
X163971100Y-109187000D01*
G75*
G02*
X164072700Y-109288600I0J-101600D01*
G01*
G37*
G36*
G01*
X162062700Y-109628600D02*
X162062700Y-110328600D01*
G75*
G02*
X161961100Y-110430200I-101600J0D01*
G01*
X161681100Y-110430200D01*
G75*
G02*
X161579500Y-110328600I0J101600D01*
G01*
X161579500Y-109628600D01*
G75*
G02*
X161681100Y-109527000I101600J0D01*
G01*
X161961100Y-109527000D01*
G75*
G02*
X162062700Y-109628600I0J-101600D01*
G01*
G37*
G36*
G01*
X162562700Y-109628600D02*
X162562700Y-110328600D01*
G75*
G02*
X162461100Y-110430200I-101600J0D01*
G01*
X162181100Y-110430200D01*
G75*
G02*
X162079500Y-110328600I0J101600D01*
G01*
X162079500Y-109628600D01*
G75*
G02*
X162181100Y-109527000I101600J0D01*
G01*
X162461100Y-109527000D01*
G75*
G02*
X162562700Y-109628600I0J-101600D01*
G01*
G37*
G36*
G01*
X162062700Y-106528600D02*
X162062700Y-107228600D01*
G75*
G02*
X161961100Y-107330200I-101600J0D01*
G01*
X161681100Y-107330200D01*
G75*
G02*
X161579500Y-107228600I0J101600D01*
G01*
X161579500Y-106528600D01*
G75*
G02*
X161681100Y-106427000I101600J0D01*
G01*
X161961100Y-106427000D01*
G75*
G02*
X162062700Y-106528600I0J-101600D01*
G01*
G37*
G36*
G01*
X162562700Y-106528600D02*
X162562700Y-107228600D01*
G75*
G02*
X162461100Y-107330200I-101600J0D01*
G01*
X162181100Y-107330200D01*
G75*
G02*
X162079500Y-107228600I0J101600D01*
G01*
X162079500Y-106528600D01*
G75*
G02*
X162181100Y-106427000I101600J0D01*
G01*
X162461100Y-106427000D01*
G75*
G02*
X162562700Y-106528600I0J-101600D01*
G01*
G37*
G36*
G01*
X162997700Y-107228600D02*
X162997700Y-109628600D01*
G75*
G02*
X162896100Y-109730200I-101600J0D01*
G01*
X161246100Y-109730200D01*
G75*
G02*
X161144500Y-109628600I0J101600D01*
G01*
X161144500Y-107228600D01*
G75*
G02*
X161246100Y-107127000I101600J0D01*
G01*
X162896100Y-107127000D01*
G75*
G02*
X162997700Y-107228600I0J-101600D01*
G01*
G37*
%TD*%
M02*
