%TF.GenerationSoftware,KiCad,Pcbnew,(5.1.10)-1*%
%TF.CreationDate,2022-10-31T19:27:20+09:00*%
%TF.ProjectId,USB_JST-XH_Converter,5553425f-4a53-4542-9d58-485f436f6e76,rev?*%
%TF.SameCoordinates,Original*%
%TF.FileFunction,Legend,Bot*%
%TF.FilePolarity,Positive*%
%FSLAX46Y46*%
G04 Gerber Fmt 4.6, Leading zero omitted, Abs format (unit mm)*
G04 Created by KiCad (PCBNEW (5.1.10)-1) date 2022-10-31 19:27:20*
%MOMM*%
%LPD*%
G01*
G04 APERTURE LIST*
%ADD10C,0.150000*%
%ADD11C,0.200000*%
%ADD12C,0.300000*%
%ADD13C,0.127000*%
%ADD14C,0.100000*%
%ADD15C,0.020320*%
G04 APERTURE END LIST*
D10*
X131457619Y-120785714D02*
X131219523Y-121452380D01*
X130981428Y-120785714D01*
X130219523Y-121404761D02*
X130314761Y-121452380D01*
X130505238Y-121452380D01*
X130600476Y-121404761D01*
X130648095Y-121309523D01*
X130648095Y-120928571D01*
X130600476Y-120833333D01*
X130505238Y-120785714D01*
X130314761Y-120785714D01*
X130219523Y-120833333D01*
X130171904Y-120928571D01*
X130171904Y-121023809D01*
X130648095Y-121119047D01*
X129743333Y-121452380D02*
X129743333Y-120785714D01*
X129743333Y-120976190D02*
X129695714Y-120880952D01*
X129648095Y-120833333D01*
X129552857Y-120785714D01*
X129457619Y-120785714D01*
X127838571Y-121452380D02*
X128410000Y-121452380D01*
X128124285Y-121452380D02*
X128124285Y-120452380D01*
X128219523Y-120595238D01*
X128314761Y-120690476D01*
X128410000Y-120738095D01*
X127410000Y-121357142D02*
X127362380Y-121404761D01*
X127410000Y-121452380D01*
X127457619Y-121404761D01*
X127410000Y-121357142D01*
X127410000Y-121452380D01*
X126743333Y-120452380D02*
X126648095Y-120452380D01*
X126552857Y-120500000D01*
X126505238Y-120547619D01*
X126457619Y-120642857D01*
X126410000Y-120833333D01*
X126410000Y-121071428D01*
X126457619Y-121261904D01*
X126505238Y-121357142D01*
X126552857Y-121404761D01*
X126648095Y-121452380D01*
X126743333Y-121452380D01*
X126838571Y-121404761D01*
X126886190Y-121357142D01*
X126933809Y-121261904D01*
X126981428Y-121071428D01*
X126981428Y-120833333D01*
X126933809Y-120642857D01*
X126886190Y-120547619D01*
X126838571Y-120500000D01*
X126743333Y-120452380D01*
D11*
X150293720Y-107508095D02*
X150131220Y-106208095D01*
X149821696Y-106208095D01*
X149643720Y-106270000D01*
X149535386Y-106393809D01*
X149488958Y-106517619D01*
X149458005Y-106765238D01*
X149481220Y-106950952D01*
X149574077Y-107198571D01*
X149651458Y-107322380D01*
X149790744Y-107446190D01*
X149984196Y-107508095D01*
X150293720Y-107508095D01*
X148490744Y-107446190D02*
X148622291Y-107508095D01*
X148869910Y-107508095D01*
X148985982Y-107446190D01*
X149032410Y-107322380D01*
X148970505Y-106827142D01*
X148893125Y-106703333D01*
X148761577Y-106641428D01*
X148513958Y-106641428D01*
X148397886Y-106703333D01*
X148351458Y-106827142D01*
X148366934Y-106950952D01*
X149001458Y-107074761D01*
X147933601Y-107446190D02*
X147817529Y-107508095D01*
X147569910Y-107508095D01*
X147438363Y-107446190D01*
X147360982Y-107322380D01*
X147353244Y-107260476D01*
X147399672Y-107136666D01*
X147515744Y-107074761D01*
X147701458Y-107074761D01*
X147817529Y-107012857D01*
X147863958Y-106889047D01*
X147856220Y-106827142D01*
X147778839Y-106703333D01*
X147647291Y-106641428D01*
X147461577Y-106641428D01*
X147345505Y-106703333D01*
X146827053Y-107508095D02*
X146718720Y-106641428D01*
X146664553Y-106208095D02*
X146734196Y-106270000D01*
X146680029Y-106331904D01*
X146610386Y-106270000D01*
X146664553Y-106208095D01*
X146680029Y-106331904D01*
X145542529Y-106641428D02*
X145674077Y-107693809D01*
X145751458Y-107817619D01*
X145821101Y-107879523D01*
X145952648Y-107941428D01*
X146138363Y-107941428D01*
X146254434Y-107879523D01*
X145643125Y-107446190D02*
X145774672Y-107508095D01*
X146022291Y-107508095D01*
X146138363Y-107446190D01*
X146192529Y-107384285D01*
X146238958Y-107260476D01*
X146192529Y-106889047D01*
X146115148Y-106765238D01*
X146045505Y-106703333D01*
X145913958Y-106641428D01*
X145666339Y-106641428D01*
X145550267Y-106703333D01*
X144923482Y-106641428D02*
X145031815Y-107508095D01*
X144938958Y-106765238D02*
X144869315Y-106703333D01*
X144737767Y-106641428D01*
X144552053Y-106641428D01*
X144435982Y-106703333D01*
X144389553Y-106827142D01*
X144474672Y-107508095D01*
X143352648Y-107446190D02*
X143484196Y-107508095D01*
X143731815Y-107508095D01*
X143847886Y-107446190D01*
X143894315Y-107322380D01*
X143832410Y-106827142D01*
X143755029Y-106703333D01*
X143623482Y-106641428D01*
X143375863Y-106641428D01*
X143259791Y-106703333D01*
X143213363Y-106827142D01*
X143228839Y-106950952D01*
X143863363Y-107074761D01*
X142184196Y-107508095D02*
X142021696Y-106208095D01*
X142176458Y-107446190D02*
X142308005Y-107508095D01*
X142555625Y-107508095D01*
X142671696Y-107446190D01*
X142725863Y-107384285D01*
X142772291Y-107260476D01*
X142725863Y-106889047D01*
X142648482Y-106765238D01*
X142578839Y-106703333D01*
X142447291Y-106641428D01*
X142199672Y-106641428D01*
X142083601Y-106703333D01*
X140574672Y-107508095D02*
X140412172Y-106208095D01*
X140474077Y-106703333D02*
X140342529Y-106641428D01*
X140094910Y-106641428D01*
X139978839Y-106703333D01*
X139924672Y-106765238D01*
X139878244Y-106889047D01*
X139924672Y-107260476D01*
X140002053Y-107384285D01*
X140071696Y-107446190D01*
X140203244Y-107508095D01*
X140450863Y-107508095D01*
X140566934Y-107446190D01*
X139413958Y-106641428D02*
X139212767Y-107508095D01*
X138794910Y-106641428D02*
X139212767Y-107508095D01*
X139375267Y-107817619D01*
X139444910Y-107879523D01*
X139576458Y-107941428D01*
X137417529Y-107508095D02*
X137255029Y-106208095D01*
X136852648Y-107446190D02*
X136736577Y-107508095D01*
X136488958Y-107508095D01*
X136357410Y-107446190D01*
X136280029Y-107322380D01*
X136272291Y-107260476D01*
X136318720Y-107136666D01*
X136434791Y-107074761D01*
X136620505Y-107074761D01*
X136736577Y-107012857D01*
X136783005Y-106889047D01*
X136775267Y-106827142D01*
X136697886Y-106703333D01*
X136566339Y-106641428D01*
X136380625Y-106641428D01*
X136264553Y-106703333D01*
X135800267Y-107446190D02*
X135684196Y-107508095D01*
X135436577Y-107508095D01*
X135305029Y-107446190D01*
X135227648Y-107322380D01*
X135219910Y-107260476D01*
X135266339Y-107136666D01*
X135382410Y-107074761D01*
X135568125Y-107074761D01*
X135684196Y-107012857D01*
X135730625Y-106889047D01*
X135722886Y-106827142D01*
X135645505Y-106703333D01*
X135513958Y-106641428D01*
X135328244Y-106641428D01*
X135212172Y-106703333D01*
X134136577Y-107508095D02*
X134051458Y-106827142D01*
X134097886Y-106703333D01*
X134213958Y-106641428D01*
X134461577Y-106641428D01*
X134593125Y-106703333D01*
X134128839Y-107446190D02*
X134260386Y-107508095D01*
X134569910Y-107508095D01*
X134685982Y-107446190D01*
X134732410Y-107322380D01*
X134716934Y-107198571D01*
X134639553Y-107074761D01*
X134508005Y-107012857D01*
X134198482Y-107012857D01*
X134066934Y-106950952D01*
X133517529Y-107508095D02*
X133409196Y-106641428D01*
X133355029Y-106208095D02*
X133424672Y-106270000D01*
X133370505Y-106331904D01*
X133300863Y-106270000D01*
X133355029Y-106208095D01*
X133370505Y-106331904D01*
X132898482Y-107508095D02*
X132790148Y-106641428D01*
X132805625Y-106765238D02*
X132735982Y-106703333D01*
X132604434Y-106641428D01*
X132418720Y-106641428D01*
X132302648Y-106703333D01*
X132256220Y-106827142D01*
X132341339Y-107508095D01*
X132256220Y-106827142D02*
X132178839Y-106703333D01*
X132047291Y-106641428D01*
X131861577Y-106641428D01*
X131745505Y-106703333D01*
X131699077Y-106827142D01*
X131784196Y-107508095D01*
X130608005Y-107508095D02*
X130522886Y-106827142D01*
X130569315Y-106703333D01*
X130685386Y-106641428D01*
X130933005Y-106641428D01*
X131064553Y-106703333D01*
X130600267Y-107446190D02*
X130731815Y-107508095D01*
X131041339Y-107508095D01*
X131157410Y-107446190D01*
X131203839Y-107322380D01*
X131188363Y-107198571D01*
X131110982Y-107074761D01*
X130979434Y-107012857D01*
X130669910Y-107012857D01*
X130538363Y-106950952D01*
X129988958Y-107508095D02*
X129880625Y-106641428D01*
X129911577Y-106889047D02*
X129834196Y-106765238D01*
X129764553Y-106703333D01*
X129633005Y-106641428D01*
X129509196Y-106641428D01*
X128518720Y-106641428D02*
X128627053Y-107508095D01*
X129075863Y-106641428D02*
X129160982Y-107322380D01*
X129114553Y-107446190D01*
X128998482Y-107508095D01*
X128812767Y-107508095D01*
X128681220Y-107446190D01*
X128611577Y-107384285D01*
D12*
X152702619Y-97390476D02*
X152935357Y-99252380D01*
X152853214Y-99471428D01*
X152757380Y-99580952D01*
X152552023Y-99690476D01*
X152113928Y-99690476D01*
X151881190Y-99580952D01*
X151757976Y-99471428D01*
X151621071Y-99252380D01*
X151388333Y-97390476D01*
X150676428Y-99580952D02*
X150361547Y-99690476D01*
X149813928Y-99690476D01*
X149581190Y-99580952D01*
X149457976Y-99471428D01*
X149321071Y-99252380D01*
X149293690Y-99033333D01*
X149375833Y-98814285D01*
X149471666Y-98704761D01*
X149677023Y-98595238D01*
X150101428Y-98485714D01*
X150306785Y-98376190D01*
X150402619Y-98266666D01*
X150484761Y-98047619D01*
X150457380Y-97828571D01*
X150320476Y-97609523D01*
X150197261Y-97500000D01*
X149964523Y-97390476D01*
X149416904Y-97390476D01*
X149102023Y-97500000D01*
X147472857Y-98485714D02*
X147157976Y-98595238D01*
X147062142Y-98704761D01*
X146980000Y-98923809D01*
X147021071Y-99252380D01*
X147157976Y-99471428D01*
X147281190Y-99580952D01*
X147513928Y-99690476D01*
X148390119Y-99690476D01*
X148102619Y-97390476D01*
X147335952Y-97390476D01*
X147130595Y-97500000D01*
X147034761Y-97609523D01*
X146952619Y-97828571D01*
X146980000Y-98047619D01*
X147116904Y-98266666D01*
X147240119Y-98376190D01*
X147472857Y-98485714D01*
X148239523Y-98485714D01*
X144474642Y-98157142D02*
X143598452Y-98157142D01*
X144050238Y-97390476D02*
X144296666Y-99361904D01*
X144214523Y-99580952D01*
X144009166Y-99690476D01*
X143790119Y-99690476D01*
X142694880Y-99690476D02*
X142900238Y-99580952D01*
X142996071Y-99471428D01*
X143078214Y-99252380D01*
X142996071Y-98595238D01*
X142859166Y-98376190D01*
X142735952Y-98266666D01*
X142503214Y-98157142D01*
X142174642Y-98157142D01*
X141969285Y-98266666D01*
X141873452Y-98376190D01*
X141791309Y-98595238D01*
X141873452Y-99252380D01*
X142010357Y-99471428D01*
X142133571Y-99580952D01*
X142366309Y-99690476D01*
X142694880Y-99690476D01*
X138245476Y-97390476D02*
X138450833Y-99033333D01*
X138601428Y-99361904D01*
X138847857Y-99580952D01*
X139190119Y-99690476D01*
X139409166Y-99690476D01*
X137533571Y-99580952D02*
X137218690Y-99690476D01*
X136671071Y-99690476D01*
X136438333Y-99580952D01*
X136315119Y-99471428D01*
X136178214Y-99252380D01*
X136150833Y-99033333D01*
X136232976Y-98814285D01*
X136328809Y-98704761D01*
X136534166Y-98595238D01*
X136958571Y-98485714D01*
X137163928Y-98376190D01*
X137259761Y-98266666D01*
X137341904Y-98047619D01*
X137314523Y-97828571D01*
X137177619Y-97609523D01*
X137054404Y-97500000D01*
X136821666Y-97390476D01*
X136274047Y-97390476D01*
X135959166Y-97500000D01*
X135288333Y-97390476D02*
X133974047Y-97390476D01*
X134918690Y-99690476D02*
X134631190Y-97390476D01*
X133385357Y-98814285D02*
X131632976Y-98814285D01*
X130578809Y-97390476D02*
X129332976Y-99690476D01*
X129045476Y-97390476D02*
X130866309Y-99690476D01*
X128456785Y-99690476D02*
X128169285Y-97390476D01*
X128306190Y-98485714D02*
X126991904Y-98485714D01*
X127142500Y-99690476D02*
X126855000Y-97390476D01*
D10*
X171510476Y-105948571D02*
X171843809Y-105948571D01*
X171843809Y-106472380D02*
X171843809Y-105472380D01*
X171367619Y-105472380D01*
X170986666Y-105948571D02*
X170653333Y-105948571D01*
X170510476Y-106472380D02*
X170986666Y-106472380D01*
X170986666Y-105472380D01*
X170510476Y-105472380D01*
X170224761Y-105472380D02*
X169653333Y-105472380D01*
X169939047Y-106472380D02*
X169939047Y-105472380D01*
D13*
%TO.C,FET-1*%
X171457100Y-103217100D02*
G75*
G03*
X171457100Y-103217100I-635000J0D01*
G01*
X168917100Y-98454600D02*
X168917100Y-99089600D01*
X169552100Y-98137100D02*
X168917100Y-98454600D01*
X172092100Y-98137100D02*
X169552100Y-98137100D01*
X172727100Y-98454600D02*
X172092100Y-98137100D01*
X172727100Y-99089600D02*
X172727100Y-98454600D01*
X173679600Y-99724600D02*
X173679600Y-104487100D01*
X173679600Y-99724600D02*
G75*
G02*
X173044600Y-99089600I0J635000D01*
G01*
X172727100Y-99089600D02*
X173044600Y-99089600D01*
X168917100Y-99089600D02*
X172727100Y-99089600D01*
X168599600Y-99089600D02*
X168917100Y-99089600D01*
X168599600Y-99089600D02*
G75*
G02*
X167964600Y-99724600I-635000J0D01*
G01*
X167964600Y-104487100D02*
X167964600Y-99724600D01*
X173679600Y-104487100D02*
X167964600Y-104487100D01*
D14*
G36*
X171139600Y-104487100D02*
G01*
X171139600Y-105122100D01*
X170504600Y-105122100D01*
X170504600Y-104487100D01*
X171139600Y-104487100D01*
G37*
G36*
X168917100Y-104487100D02*
G01*
X168917100Y-106709600D01*
X168282100Y-106709600D01*
X168282100Y-104487100D01*
X168917100Y-104487100D01*
G37*
G36*
X173362100Y-104487100D02*
G01*
X173362100Y-106709600D01*
X172727100Y-106709600D01*
X172727100Y-104487100D01*
X173362100Y-104487100D01*
G37*
D13*
%TO.C,R1*%
X170431100Y-111443600D02*
X170431100Y-112693600D01*
X171631100Y-111443600D02*
X171631100Y-112693600D01*
X172031100Y-111443600D02*
X172031100Y-112693600D01*
X171631100Y-111443600D02*
X172031100Y-111443600D01*
X170431100Y-111443600D02*
X171631100Y-111443600D01*
X170031100Y-111443600D02*
X170431100Y-111443600D01*
X170031100Y-112693600D02*
X170031100Y-111443600D01*
X170431100Y-112693600D02*
X170031100Y-112693600D01*
X171631100Y-112693600D02*
X170431100Y-112693600D01*
X172031100Y-112693600D02*
X171631100Y-112693600D01*
%TO.C,R2*%
X170431100Y-109233600D02*
X170431100Y-110483600D01*
X171631100Y-109233600D02*
X171631100Y-110483600D01*
X172031100Y-109233600D02*
X172031100Y-110483600D01*
X171631100Y-109233600D02*
X172031100Y-109233600D01*
X170431100Y-109233600D02*
X171631100Y-109233600D01*
X170031100Y-109233600D02*
X170431100Y-109233600D01*
X170031100Y-110483600D02*
X170031100Y-109233600D01*
X170431100Y-110483600D02*
X170031100Y-110483600D01*
X171631100Y-110483600D02*
X170431100Y-110483600D01*
X172031100Y-110483600D02*
X171631100Y-110483600D01*
%TO.C,R1*%
D14*
X168089285Y-112501904D02*
X168355952Y-112120952D01*
X168546428Y-112501904D02*
X168546428Y-111701904D01*
X168241666Y-111701904D01*
X168165476Y-111740000D01*
X168127380Y-111778095D01*
X168089285Y-111854285D01*
X168089285Y-111968571D01*
X168127380Y-112044761D01*
X168165476Y-112082857D01*
X168241666Y-112120952D01*
X168546428Y-112120952D01*
X167327380Y-112501904D02*
X167784523Y-112501904D01*
X167555952Y-112501904D02*
X167555952Y-111701904D01*
X167632142Y-111816190D01*
X167708333Y-111892380D01*
X167784523Y-111930476D01*
D15*
X171238788Y-112228509D02*
X171376674Y-112228509D01*
X171307731Y-112228509D02*
X171307731Y-111987209D01*
X171330712Y-112021680D01*
X171353693Y-112044661D01*
X171376674Y-112056152D01*
X171089412Y-111987209D02*
X171066431Y-111987209D01*
X171043450Y-111998700D01*
X171031960Y-112010190D01*
X171020469Y-112033171D01*
X171008979Y-112079133D01*
X171008979Y-112136585D01*
X171020469Y-112182547D01*
X171031960Y-112205528D01*
X171043450Y-112217019D01*
X171066431Y-112228509D01*
X171089412Y-112228509D01*
X171112393Y-112217019D01*
X171123884Y-112205528D01*
X171135374Y-112182547D01*
X171146865Y-112136585D01*
X171146865Y-112079133D01*
X171135374Y-112033171D01*
X171123884Y-112010190D01*
X171112393Y-111998700D01*
X171089412Y-111987209D01*
X170859603Y-111987209D02*
X170836622Y-111987209D01*
X170813641Y-111998700D01*
X170802150Y-112010190D01*
X170790660Y-112033171D01*
X170779169Y-112079133D01*
X170779169Y-112136585D01*
X170790660Y-112182547D01*
X170802150Y-112205528D01*
X170813641Y-112217019D01*
X170836622Y-112228509D01*
X170859603Y-112228509D01*
X170882584Y-112217019D01*
X170894074Y-112205528D01*
X170905565Y-112182547D01*
X170917055Y-112136585D01*
X170917055Y-112079133D01*
X170905565Y-112033171D01*
X170894074Y-112010190D01*
X170882584Y-111998700D01*
X170859603Y-111987209D01*
%TO.C,R2*%
D14*
X168089285Y-110301904D02*
X168355952Y-109920952D01*
X168546428Y-110301904D02*
X168546428Y-109501904D01*
X168241666Y-109501904D01*
X168165476Y-109540000D01*
X168127380Y-109578095D01*
X168089285Y-109654285D01*
X168089285Y-109768571D01*
X168127380Y-109844761D01*
X168165476Y-109882857D01*
X168241666Y-109920952D01*
X168546428Y-109920952D01*
X167784523Y-109578095D02*
X167746428Y-109540000D01*
X167670238Y-109501904D01*
X167479761Y-109501904D01*
X167403571Y-109540000D01*
X167365476Y-109578095D01*
X167327380Y-109654285D01*
X167327380Y-109730476D01*
X167365476Y-109844761D01*
X167822619Y-110301904D01*
X167327380Y-110301904D01*
D15*
X171238788Y-109968509D02*
X171376674Y-109968509D01*
X171307731Y-109968509D02*
X171307731Y-109727209D01*
X171330712Y-109761680D01*
X171353693Y-109784661D01*
X171376674Y-109796152D01*
X171089412Y-109727209D02*
X171066431Y-109727209D01*
X171043450Y-109738700D01*
X171031960Y-109750190D01*
X171020469Y-109773171D01*
X171008979Y-109819133D01*
X171008979Y-109876585D01*
X171020469Y-109922547D01*
X171031960Y-109945528D01*
X171043450Y-109957019D01*
X171066431Y-109968509D01*
X171089412Y-109968509D01*
X171112393Y-109957019D01*
X171123884Y-109945528D01*
X171135374Y-109922547D01*
X171146865Y-109876585D01*
X171146865Y-109819133D01*
X171135374Y-109773171D01*
X171123884Y-109750190D01*
X171112393Y-109738700D01*
X171089412Y-109727209D01*
X170928546Y-109727209D02*
X170779169Y-109727209D01*
X170859603Y-109819133D01*
X170825131Y-109819133D01*
X170802150Y-109830623D01*
X170790660Y-109842114D01*
X170779169Y-109865095D01*
X170779169Y-109922547D01*
X170790660Y-109945528D01*
X170802150Y-109957019D01*
X170825131Y-109968509D01*
X170894074Y-109968509D01*
X170917055Y-109957019D01*
X170928546Y-109945528D01*
%TD*%
M02*
