%TF.GenerationSoftware,KiCad,Pcbnew,(5.1.10)-1*%
%TF.CreationDate,2022-12-18T15:43:33+09:00*%
%TF.ProjectId,USB_JST-XH_Converter,5553425f-4a53-4542-9d58-485f436f6e76,rev?*%
%TF.SameCoordinates,Original*%
%TF.FileFunction,Legend,Top*%
%TF.FilePolarity,Positive*%
%FSLAX46Y46*%
G04 Gerber Fmt 4.6, Leading zero omitted, Abs format (unit mm)*
G04 Created by KiCad (PCBNEW (5.1.10)-1) date 2022-12-18 15:43:33*
%MOMM*%
%LPD*%
G01*
G04 APERTURE LIST*
%ADD10C,0.090000*%
%ADD11C,0.120000*%
%ADD12C,0.070000*%
%ADD13C,0.100000*%
%ADD14C,0.150000*%
%ADD15C,0.152400*%
%ADD16C,0.127000*%
%ADD17C,0.050000*%
%ADD18C,0.096520*%
%ADD19C,0.064000*%
G04 APERTURE END LIST*
D10*
X166885395Y-98266666D02*
X167318729Y-98266666D01*
X167052062Y-98533333D01*
X167152062Y-98533333D01*
X167214562Y-98566666D01*
X167243729Y-98600000D01*
X167268729Y-98666666D01*
X167247895Y-98833333D01*
X167206229Y-98900000D01*
X167168729Y-98933333D01*
X167097895Y-98966666D01*
X166897895Y-98966666D01*
X166835395Y-98933333D01*
X166806229Y-98900000D01*
X167522895Y-98766666D02*
X167856229Y-98766666D01*
X167431229Y-98966666D02*
X167752062Y-98266666D01*
X167897895Y-98966666D01*
D11*
X166450000Y-99300000D02*
X166450000Y-97950000D01*
X163450000Y-99300000D02*
X166450000Y-99300000D01*
X163450000Y-97950000D02*
X163450000Y-99300000D01*
X166450000Y-97950000D02*
X163450000Y-97950000D01*
D12*
X165564285Y-97071428D02*
X165364285Y-96785714D01*
X165221428Y-97071428D02*
X165221428Y-96471428D01*
X165450000Y-96471428D01*
X165507142Y-96500000D01*
X165535714Y-96528571D01*
X165564285Y-96585714D01*
X165564285Y-96671428D01*
X165535714Y-96728571D01*
X165507142Y-96757142D01*
X165450000Y-96785714D01*
X165221428Y-96785714D01*
X166135714Y-97071428D02*
X165792857Y-97071428D01*
X165964285Y-97071428D02*
X165964285Y-96471428D01*
X165907142Y-96557142D01*
X165850000Y-96614285D01*
X165792857Y-96642857D01*
X166678571Y-96471428D02*
X166392857Y-96471428D01*
X166364285Y-96757142D01*
X166392857Y-96728571D01*
X166450000Y-96700000D01*
X166592857Y-96700000D01*
X166650000Y-96728571D01*
X166678571Y-96757142D01*
X166707142Y-96814285D01*
X166707142Y-96957142D01*
X166678571Y-97014285D01*
X166650000Y-97042857D01*
X166592857Y-97071428D01*
X166450000Y-97071428D01*
X166392857Y-97042857D01*
X166364285Y-97014285D01*
D13*
X124769666Y-106830880D02*
X124769666Y-107545166D01*
X124722047Y-107688023D01*
X124626809Y-107783261D01*
X124483952Y-107830880D01*
X124388714Y-107830880D01*
X125245857Y-107830880D02*
X125245857Y-106830880D01*
X125626809Y-106830880D01*
X125722047Y-106878500D01*
X125769666Y-106926119D01*
X125817285Y-107021357D01*
X125817285Y-107164214D01*
X125769666Y-107259452D01*
X125722047Y-107307071D01*
X125626809Y-107354690D01*
X125245857Y-107354690D01*
X126769666Y-107830880D02*
X126198238Y-107830880D01*
X126483952Y-107830880D02*
X126483952Y-106830880D01*
X126388714Y-106973738D01*
X126293476Y-107068976D01*
X126198238Y-107116595D01*
D10*
X146904562Y-106615666D02*
X146992062Y-105915666D01*
X147258729Y-105915666D01*
X147321229Y-105949000D01*
X147350395Y-105982333D01*
X147375395Y-106049000D01*
X147362895Y-106149000D01*
X147321229Y-106215666D01*
X147283729Y-106249000D01*
X147212895Y-106282333D01*
X146946229Y-106282333D01*
X147825395Y-105915666D02*
X147958729Y-105915666D01*
X148021229Y-105949000D01*
X148079562Y-106015666D01*
X148096229Y-106149000D01*
X148067062Y-106382333D01*
X148017062Y-106515666D01*
X147942062Y-106582333D01*
X147871229Y-106615666D01*
X147737895Y-106615666D01*
X147675395Y-106582333D01*
X147617062Y-106515666D01*
X147600395Y-106382333D01*
X147629562Y-106149000D01*
X147679562Y-106015666D01*
X147754562Y-105949000D01*
X147825395Y-105915666D01*
X148358729Y-105915666D02*
X148437895Y-106615666D01*
X148633729Y-106115666D01*
X148704562Y-106615666D01*
X148958729Y-105915666D01*
X149183729Y-106249000D02*
X149417062Y-106249000D01*
X149471229Y-106615666D02*
X149137895Y-106615666D01*
X149225395Y-105915666D01*
X149558729Y-105915666D01*
X150171229Y-106615666D02*
X149979562Y-106282333D01*
X149771229Y-106615666D02*
X149858729Y-105915666D01*
X150125395Y-105915666D01*
X150187895Y-105949000D01*
X150217062Y-105982333D01*
X150242062Y-106049000D01*
X150229562Y-106149000D01*
X150187895Y-106215666D01*
X150150395Y-106249000D01*
X150079562Y-106282333D01*
X149812895Y-106282333D01*
D11*
X150114000Y-104013000D02*
X147066000Y-104013000D01*
X150114000Y-105537000D02*
X150114000Y-104013000D01*
X147066000Y-105537000D02*
X150114000Y-105537000D01*
X147066000Y-104013000D02*
X147066000Y-105537000D01*
D10*
X146775395Y-103597833D02*
X146871229Y-103631166D01*
X147037895Y-103631166D01*
X147108729Y-103597833D01*
X147146229Y-103564500D01*
X147187895Y-103497833D01*
X147196229Y-103431166D01*
X147171229Y-103364500D01*
X147142062Y-103331166D01*
X147079562Y-103297833D01*
X146950395Y-103264500D01*
X146887895Y-103231166D01*
X146858729Y-103197833D01*
X146833729Y-103131166D01*
X146842062Y-103064500D01*
X146883729Y-102997833D01*
X146921229Y-102964500D01*
X146992062Y-102931166D01*
X147158729Y-102931166D01*
X147254562Y-102964500D01*
X147492062Y-102931166D02*
X147571229Y-103631166D01*
X147767062Y-103131166D01*
X147837895Y-103631166D01*
X148092062Y-102931166D01*
X148271229Y-103631166D02*
X148358729Y-102931166D01*
X148592062Y-102931166D02*
X148992062Y-102931166D01*
X148704562Y-103631166D02*
X148792062Y-102931166D01*
X149546229Y-103564500D02*
X149508729Y-103597833D01*
X149404562Y-103631166D01*
X149337895Y-103631166D01*
X149242062Y-103597833D01*
X149183729Y-103531166D01*
X149158729Y-103464500D01*
X149142062Y-103331166D01*
X149154562Y-103231166D01*
X149204562Y-103097833D01*
X149246229Y-103031166D01*
X149321229Y-102964500D01*
X149425395Y-102931166D01*
X149492062Y-102931166D01*
X149587895Y-102964500D01*
X149617062Y-102997833D01*
X149837895Y-103631166D02*
X149925395Y-102931166D01*
X149883729Y-103264500D02*
X150283729Y-103264500D01*
X150237895Y-103631166D02*
X150325395Y-102931166D01*
D11*
X150114000Y-101219000D02*
X147066000Y-101219000D01*
X150114000Y-102616000D02*
X150114000Y-101219000D01*
X147066000Y-102616000D02*
X150114000Y-102616000D01*
X147066000Y-101219000D02*
X147066000Y-102616000D01*
D12*
X153253449Y-115270408D02*
X152882218Y-114793111D01*
X152983233Y-114692096D01*
X153061520Y-114654215D01*
X153137282Y-114659266D01*
X153192840Y-114684519D01*
X153283754Y-114755230D01*
X153336787Y-114823415D01*
X153387294Y-114934532D01*
X153402447Y-115000192D01*
X153397396Y-115086055D01*
X153354464Y-115169393D01*
X153253449Y-115270408D01*
X153738322Y-114785535D02*
X153680239Y-114803212D01*
X153642358Y-114800687D01*
X153586799Y-114775433D01*
X153480733Y-114639062D01*
X153465581Y-114573403D01*
X153468107Y-114530471D01*
X153490835Y-114467337D01*
X153551444Y-114406727D01*
X153609528Y-114389050D01*
X153647409Y-114391575D01*
X153702967Y-114416829D01*
X153809033Y-114553200D01*
X153824185Y-114618859D01*
X153821660Y-114661791D01*
X153798932Y-114724925D01*
X153738322Y-114785535D01*
X153773678Y-114184494D02*
X154101977Y-114421880D01*
X154006013Y-114113783D01*
X154263602Y-114260255D01*
X154096927Y-113861245D01*
X154258551Y-113699621D02*
X154506038Y-114017819D01*
X154293906Y-113745077D02*
X154296432Y-113702146D01*
X154319160Y-113639011D01*
X154379769Y-113578402D01*
X154437853Y-113560725D01*
X154493411Y-113585978D01*
X154687866Y-113835991D01*
X161918984Y-113604314D02*
X161575532Y-113947766D01*
X161555329Y-114008375D01*
X161555329Y-114048781D01*
X161575532Y-114109390D01*
X161656345Y-114190203D01*
X161716954Y-114210406D01*
X161757360Y-114210406D01*
X161817969Y-114190203D01*
X162161421Y-113846751D01*
X161939187Y-114473045D02*
X162363451Y-114048781D01*
X162525076Y-114210406D01*
X162545279Y-114271015D01*
X162545279Y-114311421D01*
X162525076Y-114372030D01*
X162464467Y-114432639D01*
X162403857Y-114452842D01*
X162363451Y-114452842D01*
X162302842Y-114432639D01*
X162141218Y-114271015D01*
D11*
X162229999Y-115410001D02*
X162350000Y-114900000D01*
X162229999Y-115410001D02*
X161940000Y-115030000D01*
X161059922Y-114269365D02*
G75*
G02*
X162229999Y-115410001I-9922J-1180635D01*
G01*
D14*
X154020000Y-115430000D02*
X154360000Y-115030000D01*
X154020000Y-115430000D02*
X153870000Y-114910000D01*
X154020000Y-115430000D02*
G75*
G02*
X155210000Y-114240000I1190000J0D01*
G01*
D13*
X166959732Y-120511904D02*
X167112113Y-120511904D01*
X167183541Y-120550000D01*
X167250208Y-120626190D01*
X167269255Y-120778571D01*
X167235922Y-121045238D01*
X167178779Y-121197619D01*
X167093065Y-121273809D01*
X167012113Y-121311904D01*
X166859732Y-121311904D01*
X166788303Y-121273809D01*
X166721636Y-121197619D01*
X166702589Y-121045238D01*
X166735922Y-120778571D01*
X166793065Y-120626190D01*
X166878779Y-120550000D01*
X166959732Y-120511904D01*
X167864494Y-120892857D02*
X167597827Y-120892857D01*
X167545446Y-121311904D02*
X167645446Y-120511904D01*
X168026398Y-120511904D01*
X168550208Y-120892857D02*
X168283541Y-120892857D01*
X168231160Y-121311904D02*
X168331160Y-120511904D01*
X168712113Y-120511904D01*
X166926398Y-114961904D02*
X167078779Y-114961904D01*
X167150208Y-115000000D01*
X167216875Y-115076190D01*
X167235922Y-115228571D01*
X167202589Y-115495238D01*
X167145446Y-115647619D01*
X167059732Y-115723809D01*
X166978779Y-115761904D01*
X166826398Y-115761904D01*
X166754970Y-115723809D01*
X166688303Y-115647619D01*
X166669255Y-115495238D01*
X166702589Y-115228571D01*
X166759732Y-115076190D01*
X166845446Y-115000000D01*
X166926398Y-114961904D01*
X167512113Y-115761904D02*
X167612113Y-114961904D01*
X167969255Y-115761904D01*
X168069255Y-114961904D01*
D10*
X156788163Y-113711904D02*
X156707211Y-114359523D01*
X156735782Y-114435714D01*
X156769116Y-114473809D01*
X156840544Y-114511904D01*
X156992925Y-114511904D01*
X157073877Y-114473809D01*
X157116735Y-114435714D01*
X157164354Y-114359523D01*
X157245306Y-113711904D01*
X157511973Y-113711904D02*
X157678639Y-114511904D01*
X158045306Y-113711904D01*
X158592925Y-114511904D02*
X158211973Y-114511904D01*
X158311973Y-113711904D01*
X159111973Y-113711904D02*
X159264354Y-113711904D01*
X159335782Y-113750000D01*
X159402449Y-113826190D01*
X159421497Y-113978571D01*
X159388163Y-114245238D01*
X159331020Y-114397619D01*
X159245306Y-114473809D01*
X159164354Y-114511904D01*
X159011973Y-114511904D01*
X158940544Y-114473809D01*
X158873877Y-114397619D01*
X158854830Y-114245238D01*
X158888163Y-113978571D01*
X158945306Y-113826190D01*
X159031020Y-113750000D01*
X159111973Y-113711904D01*
D14*
X131403333Y-89677142D02*
X131355714Y-89724761D01*
X131212857Y-89772380D01*
X131117619Y-89772380D01*
X130974761Y-89724761D01*
X130879523Y-89629523D01*
X130831904Y-89534285D01*
X130784285Y-89343809D01*
X130784285Y-89200952D01*
X130831904Y-89010476D01*
X130879523Y-88915238D01*
X130974761Y-88820000D01*
X131117619Y-88772380D01*
X131212857Y-88772380D01*
X131355714Y-88820000D01*
X131403333Y-88867619D01*
X132260476Y-89105714D02*
X132260476Y-89772380D01*
X132022380Y-88724761D02*
X131784285Y-89439047D01*
X132403333Y-89439047D01*
D12*
X165222857Y-108651428D02*
X165565714Y-108651428D01*
X165394285Y-109251428D02*
X165394285Y-108651428D01*
X166108571Y-109251428D02*
X165908571Y-108965714D01*
X165765714Y-109251428D02*
X165765714Y-108651428D01*
X165994285Y-108651428D01*
X166051428Y-108680000D01*
X166080000Y-108708571D01*
X166108571Y-108765714D01*
X166108571Y-108851428D01*
X166080000Y-108908571D01*
X166051428Y-108937142D01*
X165994285Y-108965714D01*
X165765714Y-108965714D01*
X166680000Y-109251428D02*
X166337142Y-109251428D01*
X166508571Y-109251428D02*
X166508571Y-108651428D01*
X166451428Y-108737142D01*
X166394285Y-108794285D01*
X166337142Y-108822857D01*
X156834285Y-107761428D02*
X156634285Y-107475714D01*
X156491428Y-107761428D02*
X156491428Y-107161428D01*
X156720000Y-107161428D01*
X156777142Y-107190000D01*
X156805714Y-107218571D01*
X156834285Y-107275714D01*
X156834285Y-107361428D01*
X156805714Y-107418571D01*
X156777142Y-107447142D01*
X156720000Y-107475714D01*
X156491428Y-107475714D01*
X157405714Y-107761428D02*
X157062857Y-107761428D01*
X157234285Y-107761428D02*
X157234285Y-107161428D01*
X157177142Y-107247142D01*
X157120000Y-107304285D01*
X157062857Y-107332857D01*
X157605714Y-107161428D02*
X157977142Y-107161428D01*
X157777142Y-107390000D01*
X157862857Y-107390000D01*
X157920000Y-107418571D01*
X157948571Y-107447142D01*
X157977142Y-107504285D01*
X157977142Y-107647142D01*
X157948571Y-107704285D01*
X157920000Y-107732857D01*
X157862857Y-107761428D01*
X157691428Y-107761428D01*
X157634285Y-107732857D01*
X157605714Y-107704285D01*
X151844285Y-107761428D02*
X151644285Y-107475714D01*
X151501428Y-107761428D02*
X151501428Y-107161428D01*
X151730000Y-107161428D01*
X151787142Y-107190000D01*
X151815714Y-107218571D01*
X151844285Y-107275714D01*
X151844285Y-107361428D01*
X151815714Y-107418571D01*
X151787142Y-107447142D01*
X151730000Y-107475714D01*
X151501428Y-107475714D01*
X152415714Y-107761428D02*
X152072857Y-107761428D01*
X152244285Y-107761428D02*
X152244285Y-107161428D01*
X152187142Y-107247142D01*
X152130000Y-107304285D01*
X152072857Y-107332857D01*
X152644285Y-107218571D02*
X152672857Y-107190000D01*
X152730000Y-107161428D01*
X152872857Y-107161428D01*
X152930000Y-107190000D01*
X152958571Y-107218571D01*
X152987142Y-107275714D01*
X152987142Y-107332857D01*
X152958571Y-107418571D01*
X152615714Y-107761428D01*
X152987142Y-107761428D01*
X146770000Y-111231428D02*
X146570000Y-110945714D01*
X146427142Y-111231428D02*
X146427142Y-110631428D01*
X146655714Y-110631428D01*
X146712857Y-110660000D01*
X146741428Y-110688571D01*
X146770000Y-110745714D01*
X146770000Y-110831428D01*
X146741428Y-110888571D01*
X146712857Y-110917142D01*
X146655714Y-110945714D01*
X146427142Y-110945714D01*
X147312857Y-110631428D02*
X147027142Y-110631428D01*
X146998571Y-110917142D01*
X147027142Y-110888571D01*
X147084285Y-110860000D01*
X147227142Y-110860000D01*
X147284285Y-110888571D01*
X147312857Y-110917142D01*
X147341428Y-110974285D01*
X147341428Y-111117142D01*
X147312857Y-111174285D01*
X147284285Y-111202857D01*
X147227142Y-111231428D01*
X147084285Y-111231428D01*
X147027142Y-111202857D01*
X146998571Y-111174285D01*
X149721428Y-111147142D02*
X150207142Y-111147142D01*
X150264285Y-111118571D01*
X150292857Y-111090000D01*
X150321428Y-111032857D01*
X150321428Y-110918571D01*
X150292857Y-110861428D01*
X150264285Y-110832857D01*
X150207142Y-110804285D01*
X149721428Y-110804285D01*
X149778571Y-110547142D02*
X149750000Y-110518571D01*
X149721428Y-110461428D01*
X149721428Y-110318571D01*
X149750000Y-110261428D01*
X149778571Y-110232857D01*
X149835714Y-110204285D01*
X149892857Y-110204285D01*
X149978571Y-110232857D01*
X150321428Y-110575714D01*
X150321428Y-110204285D01*
X162350000Y-112634285D02*
X162321428Y-112662857D01*
X162235714Y-112691428D01*
X162178571Y-112691428D01*
X162092857Y-112662857D01*
X162035714Y-112605714D01*
X162007142Y-112548571D01*
X161978571Y-112434285D01*
X161978571Y-112348571D01*
X162007142Y-112234285D01*
X162035714Y-112177142D01*
X162092857Y-112120000D01*
X162178571Y-112091428D01*
X162235714Y-112091428D01*
X162321428Y-112120000D01*
X162350000Y-112148571D01*
X162550000Y-112091428D02*
X162921428Y-112091428D01*
X162721428Y-112320000D01*
X162807142Y-112320000D01*
X162864285Y-112348571D01*
X162892857Y-112377142D01*
X162921428Y-112434285D01*
X162921428Y-112577142D01*
X162892857Y-112634285D01*
X162864285Y-112662857D01*
X162807142Y-112691428D01*
X162635714Y-112691428D01*
X162578571Y-112662857D01*
X162550000Y-112634285D01*
X167157142Y-108611428D02*
X167157142Y-108011428D01*
X167300000Y-108011428D01*
X167385714Y-108040000D01*
X167442857Y-108097142D01*
X167471428Y-108154285D01*
X167500000Y-108268571D01*
X167500000Y-108354285D01*
X167471428Y-108468571D01*
X167442857Y-108525714D01*
X167385714Y-108582857D01*
X167300000Y-108611428D01*
X167157142Y-108611428D01*
X167728571Y-108068571D02*
X167757142Y-108040000D01*
X167814285Y-108011428D01*
X167957142Y-108011428D01*
X168014285Y-108040000D01*
X168042857Y-108068571D01*
X168071428Y-108125714D01*
X168071428Y-108182857D01*
X168042857Y-108268571D01*
X167700000Y-108611428D01*
X168071428Y-108611428D01*
X164344285Y-106110000D02*
X164372857Y-106138571D01*
X164401428Y-106224285D01*
X164401428Y-106281428D01*
X164372857Y-106367142D01*
X164315714Y-106424285D01*
X164258571Y-106452857D01*
X164144285Y-106481428D01*
X164058571Y-106481428D01*
X163944285Y-106452857D01*
X163887142Y-106424285D01*
X163830000Y-106367142D01*
X163801428Y-106281428D01*
X163801428Y-106224285D01*
X163830000Y-106138571D01*
X163858571Y-106110000D01*
X163858571Y-105881428D02*
X163830000Y-105852857D01*
X163801428Y-105795714D01*
X163801428Y-105652857D01*
X163830000Y-105595714D01*
X163858571Y-105567142D01*
X163915714Y-105538571D01*
X163972857Y-105538571D01*
X164058571Y-105567142D01*
X164401428Y-105910000D01*
X164401428Y-105538571D01*
X160392857Y-106071428D02*
X160392857Y-106557142D01*
X160421428Y-106614285D01*
X160450000Y-106642857D01*
X160507142Y-106671428D01*
X160621428Y-106671428D01*
X160678571Y-106642857D01*
X160707142Y-106614285D01*
X160735714Y-106557142D01*
X160735714Y-106071428D01*
X161335714Y-106671428D02*
X160992857Y-106671428D01*
X161164285Y-106671428D02*
X161164285Y-106071428D01*
X161107142Y-106157142D01*
X161050000Y-106214285D01*
X160992857Y-106242857D01*
X165910000Y-100181428D02*
X165710000Y-99895714D01*
X165567142Y-100181428D02*
X165567142Y-99581428D01*
X165795714Y-99581428D01*
X165852857Y-99610000D01*
X165881428Y-99638571D01*
X165910000Y-99695714D01*
X165910000Y-99781428D01*
X165881428Y-99838571D01*
X165852857Y-99867142D01*
X165795714Y-99895714D01*
X165567142Y-99895714D01*
X166424285Y-99781428D02*
X166424285Y-100181428D01*
X166281428Y-99552857D02*
X166138571Y-99981428D01*
X166510000Y-99981428D01*
X163990000Y-100181428D02*
X163790000Y-99895714D01*
X163647142Y-100181428D02*
X163647142Y-99581428D01*
X163875714Y-99581428D01*
X163932857Y-99610000D01*
X163961428Y-99638571D01*
X163990000Y-99695714D01*
X163990000Y-99781428D01*
X163961428Y-99838571D01*
X163932857Y-99867142D01*
X163875714Y-99895714D01*
X163647142Y-99895714D01*
X164190000Y-99581428D02*
X164561428Y-99581428D01*
X164361428Y-99810000D01*
X164447142Y-99810000D01*
X164504285Y-99838571D01*
X164532857Y-99867142D01*
X164561428Y-99924285D01*
X164561428Y-100067142D01*
X164532857Y-100124285D01*
X164504285Y-100152857D01*
X164447142Y-100181428D01*
X164275714Y-100181428D01*
X164218571Y-100152857D01*
X164190000Y-100124285D01*
X161010000Y-104994285D02*
X160981428Y-105022857D01*
X160895714Y-105051428D01*
X160838571Y-105051428D01*
X160752857Y-105022857D01*
X160695714Y-104965714D01*
X160667142Y-104908571D01*
X160638571Y-104794285D01*
X160638571Y-104708571D01*
X160667142Y-104594285D01*
X160695714Y-104537142D01*
X160752857Y-104480000D01*
X160838571Y-104451428D01*
X160895714Y-104451428D01*
X160981428Y-104480000D01*
X161010000Y-104508571D01*
X161581428Y-105051428D02*
X161238571Y-105051428D01*
X161410000Y-105051428D02*
X161410000Y-104451428D01*
X161352857Y-104537142D01*
X161295714Y-104594285D01*
X161238571Y-104622857D01*
X161757142Y-98761428D02*
X161757142Y-98161428D01*
X161900000Y-98161428D01*
X161985714Y-98190000D01*
X162042857Y-98247142D01*
X162071428Y-98304285D01*
X162100000Y-98418571D01*
X162100000Y-98504285D01*
X162071428Y-98618571D01*
X162042857Y-98675714D01*
X161985714Y-98732857D01*
X161900000Y-98761428D01*
X161757142Y-98761428D01*
X162614285Y-98361428D02*
X162614285Y-98761428D01*
X162471428Y-98132857D02*
X162328571Y-98561428D01*
X162700000Y-98561428D01*
X161757142Y-100231428D02*
X161757142Y-99631428D01*
X161900000Y-99631428D01*
X161985714Y-99660000D01*
X162042857Y-99717142D01*
X162071428Y-99774285D01*
X162100000Y-99888571D01*
X162100000Y-99974285D01*
X162071428Y-100088571D01*
X162042857Y-100145714D01*
X161985714Y-100202857D01*
X161900000Y-100231428D01*
X161757142Y-100231428D01*
X162300000Y-99631428D02*
X162671428Y-99631428D01*
X162471428Y-99860000D01*
X162557142Y-99860000D01*
X162614285Y-99888571D01*
X162642857Y-99917142D01*
X162671428Y-99974285D01*
X162671428Y-100117142D01*
X162642857Y-100174285D01*
X162614285Y-100202857D01*
X162557142Y-100231428D01*
X162385714Y-100231428D01*
X162328571Y-100202857D01*
X162300000Y-100174285D01*
X161757142Y-101741428D02*
X161757142Y-101141428D01*
X161900000Y-101141428D01*
X161985714Y-101170000D01*
X162042857Y-101227142D01*
X162071428Y-101284285D01*
X162100000Y-101398571D01*
X162100000Y-101484285D01*
X162071428Y-101598571D01*
X162042857Y-101655714D01*
X161985714Y-101712857D01*
X161900000Y-101741428D01*
X161757142Y-101741428D01*
X162671428Y-101741428D02*
X162328571Y-101741428D01*
X162500000Y-101741428D02*
X162500000Y-101141428D01*
X162442857Y-101227142D01*
X162385714Y-101284285D01*
X162328571Y-101312857D01*
X158470000Y-105517142D02*
X158270000Y-105517142D01*
X158270000Y-105831428D02*
X158270000Y-105231428D01*
X158555714Y-105231428D01*
X158784285Y-105517142D02*
X158984285Y-105517142D01*
X159070000Y-105831428D02*
X158784285Y-105831428D01*
X158784285Y-105231428D01*
X159070000Y-105231428D01*
X159241428Y-105231428D02*
X159584285Y-105231428D01*
X159412857Y-105831428D02*
X159412857Y-105231428D01*
X160098571Y-105831428D02*
X159755714Y-105831428D01*
X159927142Y-105831428D02*
X159927142Y-105231428D01*
X159870000Y-105317142D01*
X159812857Y-105374285D01*
X159755714Y-105402857D01*
X152271428Y-101795714D02*
X151985714Y-101995714D01*
X152271428Y-102138571D02*
X151671428Y-102138571D01*
X151671428Y-101910000D01*
X151700000Y-101852857D01*
X151728571Y-101824285D01*
X151785714Y-101795714D01*
X151871428Y-101795714D01*
X151928571Y-101824285D01*
X151957142Y-101852857D01*
X151985714Y-101910000D01*
X151985714Y-102138571D01*
X152271428Y-101224285D02*
X152271428Y-101567142D01*
X152271428Y-101395714D02*
X151671428Y-101395714D01*
X151757142Y-101452857D01*
X151814285Y-101510000D01*
X151842857Y-101567142D01*
X151671428Y-100852857D02*
X151671428Y-100795714D01*
X151700000Y-100738571D01*
X151728571Y-100710000D01*
X151785714Y-100681428D01*
X151900000Y-100652857D01*
X152042857Y-100652857D01*
X152157142Y-100681428D01*
X152214285Y-100710000D01*
X152242857Y-100738571D01*
X152271428Y-100795714D01*
X152271428Y-100852857D01*
X152242857Y-100910000D01*
X152214285Y-100938571D01*
X152157142Y-100967142D01*
X152042857Y-100995714D01*
X151900000Y-100995714D01*
X151785714Y-100967142D01*
X151728571Y-100938571D01*
X151700000Y-100910000D01*
X151671428Y-100852857D01*
X175161428Y-111980000D02*
X174875714Y-112180000D01*
X175161428Y-112322857D02*
X174561428Y-112322857D01*
X174561428Y-112094285D01*
X174590000Y-112037142D01*
X174618571Y-112008571D01*
X174675714Y-111980000D01*
X174761428Y-111980000D01*
X174818571Y-112008571D01*
X174847142Y-112037142D01*
X174875714Y-112094285D01*
X174875714Y-112322857D01*
X174561428Y-111465714D02*
X174561428Y-111580000D01*
X174590000Y-111637142D01*
X174618571Y-111665714D01*
X174704285Y-111722857D01*
X174818571Y-111751428D01*
X175047142Y-111751428D01*
X175104285Y-111722857D01*
X175132857Y-111694285D01*
X175161428Y-111637142D01*
X175161428Y-111522857D01*
X175132857Y-111465714D01*
X175104285Y-111437142D01*
X175047142Y-111408571D01*
X174904285Y-111408571D01*
X174847142Y-111437142D01*
X174818571Y-111465714D01*
X174790000Y-111522857D01*
X174790000Y-111637142D01*
X174818571Y-111694285D01*
X174847142Y-111722857D01*
X174904285Y-111751428D01*
X174301428Y-112005714D02*
X174015714Y-112205714D01*
X174301428Y-112348571D02*
X173701428Y-112348571D01*
X173701428Y-112120000D01*
X173730000Y-112062857D01*
X173758571Y-112034285D01*
X173815714Y-112005714D01*
X173901428Y-112005714D01*
X173958571Y-112034285D01*
X173987142Y-112062857D01*
X174015714Y-112120000D01*
X174015714Y-112348571D01*
X174301428Y-111434285D02*
X174301428Y-111777142D01*
X174301428Y-111605714D02*
X173701428Y-111605714D01*
X173787142Y-111662857D01*
X173844285Y-111720000D01*
X173872857Y-111777142D01*
X173901428Y-110920000D02*
X174301428Y-110920000D01*
X173672857Y-111062857D02*
X174101428Y-111205714D01*
X174101428Y-110834285D01*
X173471428Y-112010000D02*
X173185714Y-112210000D01*
X173471428Y-112352857D02*
X172871428Y-112352857D01*
X172871428Y-112124285D01*
X172900000Y-112067142D01*
X172928571Y-112038571D01*
X172985714Y-112010000D01*
X173071428Y-112010000D01*
X173128571Y-112038571D01*
X173157142Y-112067142D01*
X173185714Y-112124285D01*
X173185714Y-112352857D01*
X172871428Y-111810000D02*
X172871428Y-111410000D01*
X173471428Y-111667142D01*
X157662857Y-97494285D02*
X157634285Y-97522857D01*
X157548571Y-97551428D01*
X157491428Y-97551428D01*
X157405714Y-97522857D01*
X157348571Y-97465714D01*
X157320000Y-97408571D01*
X157291428Y-97294285D01*
X157291428Y-97208571D01*
X157320000Y-97094285D01*
X157348571Y-97037142D01*
X157405714Y-96980000D01*
X157491428Y-96951428D01*
X157548571Y-96951428D01*
X157634285Y-96980000D01*
X157662857Y-97008571D01*
X158034285Y-96951428D02*
X158148571Y-96951428D01*
X158205714Y-96980000D01*
X158262857Y-97037142D01*
X158291428Y-97151428D01*
X158291428Y-97351428D01*
X158262857Y-97465714D01*
X158205714Y-97522857D01*
X158148571Y-97551428D01*
X158034285Y-97551428D01*
X157977142Y-97522857D01*
X157920000Y-97465714D01*
X157891428Y-97351428D01*
X157891428Y-97151428D01*
X157920000Y-97037142D01*
X157977142Y-96980000D01*
X158034285Y-96951428D01*
X158548571Y-97551428D02*
X158548571Y-96951428D01*
X158748571Y-97380000D01*
X158948571Y-96951428D01*
X158948571Y-97551428D01*
X159234285Y-97551428D02*
X159234285Y-96951428D01*
X159462857Y-96951428D01*
X159520000Y-96980000D01*
X159548571Y-97008571D01*
X159577142Y-97065714D01*
X159577142Y-97151428D01*
X159548571Y-97208571D01*
X159520000Y-97237142D01*
X159462857Y-97265714D01*
X159234285Y-97265714D01*
X160148571Y-97551428D02*
X159805714Y-97551428D01*
X159977142Y-97551428D02*
X159977142Y-96951428D01*
X159920000Y-97037142D01*
X159862857Y-97094285D01*
X159805714Y-97122857D01*
X152914285Y-105191428D02*
X152714285Y-104905714D01*
X152571428Y-105191428D02*
X152571428Y-104591428D01*
X152800000Y-104591428D01*
X152857142Y-104620000D01*
X152885714Y-104648571D01*
X152914285Y-104705714D01*
X152914285Y-104791428D01*
X152885714Y-104848571D01*
X152857142Y-104877142D01*
X152800000Y-104905714D01*
X152571428Y-104905714D01*
X153485714Y-105191428D02*
X153142857Y-105191428D01*
X153314285Y-105191428D02*
X153314285Y-104591428D01*
X153257142Y-104677142D01*
X153200000Y-104734285D01*
X153142857Y-104762857D01*
X154057142Y-105191428D02*
X153714285Y-105191428D01*
X153885714Y-105191428D02*
X153885714Y-104591428D01*
X153828571Y-104677142D01*
X153771428Y-104734285D01*
X153714285Y-104762857D01*
X151391428Y-101800000D02*
X151105714Y-102000000D01*
X151391428Y-102142857D02*
X150791428Y-102142857D01*
X150791428Y-101914285D01*
X150820000Y-101857142D01*
X150848571Y-101828571D01*
X150905714Y-101800000D01*
X150991428Y-101800000D01*
X151048571Y-101828571D01*
X151077142Y-101857142D01*
X151105714Y-101914285D01*
X151105714Y-102142857D01*
X151048571Y-101457142D02*
X151020000Y-101514285D01*
X150991428Y-101542857D01*
X150934285Y-101571428D01*
X150905714Y-101571428D01*
X150848571Y-101542857D01*
X150820000Y-101514285D01*
X150791428Y-101457142D01*
X150791428Y-101342857D01*
X150820000Y-101285714D01*
X150848571Y-101257142D01*
X150905714Y-101228571D01*
X150934285Y-101228571D01*
X150991428Y-101257142D01*
X151020000Y-101285714D01*
X151048571Y-101342857D01*
X151048571Y-101457142D01*
X151077142Y-101514285D01*
X151105714Y-101542857D01*
X151162857Y-101571428D01*
X151277142Y-101571428D01*
X151334285Y-101542857D01*
X151362857Y-101514285D01*
X151391428Y-101457142D01*
X151391428Y-101342857D01*
X151362857Y-101285714D01*
X151334285Y-101257142D01*
X151277142Y-101228571D01*
X151162857Y-101228571D01*
X151105714Y-101257142D01*
X151077142Y-101285714D01*
X151048571Y-101342857D01*
X152451428Y-96820000D02*
X152165714Y-97020000D01*
X152451428Y-97162857D02*
X151851428Y-97162857D01*
X151851428Y-96934285D01*
X151880000Y-96877142D01*
X151908571Y-96848571D01*
X151965714Y-96820000D01*
X152051428Y-96820000D01*
X152108571Y-96848571D01*
X152137142Y-96877142D01*
X152165714Y-96934285D01*
X152165714Y-97162857D01*
X152451428Y-96534285D02*
X152451428Y-96420000D01*
X152422857Y-96362857D01*
X152394285Y-96334285D01*
X152308571Y-96277142D01*
X152194285Y-96248571D01*
X151965714Y-96248571D01*
X151908571Y-96277142D01*
X151880000Y-96305714D01*
X151851428Y-96362857D01*
X151851428Y-96477142D01*
X151880000Y-96534285D01*
X151908571Y-96562857D01*
X151965714Y-96591428D01*
X152108571Y-96591428D01*
X152165714Y-96562857D01*
X152194285Y-96534285D01*
X152222857Y-96477142D01*
X152222857Y-96362857D01*
X152194285Y-96305714D01*
X152165714Y-96277142D01*
X152108571Y-96248571D01*
X146831428Y-98980000D02*
X146545714Y-99180000D01*
X146831428Y-99322857D02*
X146231428Y-99322857D01*
X146231428Y-99094285D01*
X146260000Y-99037142D01*
X146288571Y-99008571D01*
X146345714Y-98980000D01*
X146431428Y-98980000D01*
X146488571Y-99008571D01*
X146517142Y-99037142D01*
X146545714Y-99094285D01*
X146545714Y-99322857D01*
X146831428Y-98408571D02*
X146831428Y-98751428D01*
X146831428Y-98580000D02*
X146231428Y-98580000D01*
X146317142Y-98637142D01*
X146374285Y-98694285D01*
X146402857Y-98751428D01*
X146831428Y-97070000D02*
X146545714Y-97270000D01*
X146831428Y-97412857D02*
X146231428Y-97412857D01*
X146231428Y-97184285D01*
X146260000Y-97127142D01*
X146288571Y-97098571D01*
X146345714Y-97070000D01*
X146431428Y-97070000D01*
X146488571Y-97098571D01*
X146517142Y-97127142D01*
X146545714Y-97184285D01*
X146545714Y-97412857D01*
X146288571Y-96841428D02*
X146260000Y-96812857D01*
X146231428Y-96755714D01*
X146231428Y-96612857D01*
X146260000Y-96555714D01*
X146288571Y-96527142D01*
X146345714Y-96498571D01*
X146402857Y-96498571D01*
X146488571Y-96527142D01*
X146831428Y-96870000D01*
X146831428Y-96498571D01*
D13*
%TO.C,SW2*%
G36*
X164826400Y-98748400D02*
G01*
X164826400Y-98494400D01*
X165080400Y-98621400D01*
X164826400Y-98748400D01*
G37*
D15*
X164553900Y-99021400D02*
X164553900Y-98221400D01*
X165353900Y-99021400D02*
X165353900Y-98221400D01*
X164153900Y-98221400D02*
X164153900Y-99021400D01*
X164553900Y-98221400D02*
X164153900Y-98221400D01*
X165353900Y-98221400D02*
X164553900Y-98221400D01*
X165753900Y-98221400D02*
X165353900Y-98221400D01*
X165753900Y-99021400D02*
X165753900Y-98221400D01*
X165353900Y-99021400D02*
X165753900Y-99021400D01*
X164553900Y-99021400D02*
X165353900Y-99021400D01*
X164153900Y-99021400D02*
X164553900Y-99021400D01*
D16*
%TO.C,R10*%
X163400000Y-96075000D02*
X163400000Y-97325000D01*
X162200000Y-96075000D02*
X162200000Y-97325000D01*
X161800000Y-96075000D02*
X161800000Y-97325000D01*
X162200000Y-96075000D02*
X161800000Y-96075000D01*
X163400000Y-96075000D02*
X162200000Y-96075000D01*
X163800000Y-96075000D02*
X163400000Y-96075000D01*
X163800000Y-97325000D02*
X163800000Y-96075000D01*
X163400000Y-97325000D02*
X163800000Y-97325000D01*
X162200000Y-97325000D02*
X163400000Y-97325000D01*
X161800000Y-97325000D02*
X162200000Y-97325000D01*
D13*
%TO.C,USB1*%
X170571100Y-108898600D02*
X170571100Y-99958600D01*
X169441100Y-99958600D02*
X169441100Y-108898600D01*
X170571100Y-99958600D02*
X169441100Y-99958600D01*
X176171100Y-99958600D02*
X170571100Y-99958600D01*
X176171100Y-108898600D02*
X176171100Y-99958600D01*
X170571100Y-108898600D02*
X176171100Y-108898600D01*
X169441100Y-108898600D02*
X170571100Y-108898600D01*
D16*
%TO.C,PORT1*%
X127564000Y-103504000D02*
X127564000Y-104204000D01*
X127564000Y-103504000D02*
X129704000Y-103504000D01*
X129704000Y-104204000D02*
X129704000Y-103504000D01*
X127564000Y-104204000D02*
X129704000Y-104204000D01*
X124404000Y-103504000D02*
X124404000Y-104204000D01*
X129004000Y-102504000D02*
X129704000Y-102504000D01*
X122264000Y-102504000D02*
X122964000Y-102504000D01*
X122964000Y-100584000D02*
X129004000Y-100584000D01*
X122964000Y-100584000D02*
X122964000Y-99154000D01*
X122964000Y-102504000D02*
X122964000Y-100584000D01*
X124404000Y-103504000D02*
X122264000Y-103504000D01*
X129004000Y-100584000D02*
X129004000Y-102504000D01*
X129004000Y-99154000D02*
X129004000Y-100584000D01*
X122964000Y-99154000D02*
X129004000Y-99154000D01*
X122264000Y-102504000D02*
X122264000Y-98454000D01*
X122264000Y-104204000D02*
X122264000Y-103504000D01*
X124404000Y-104204000D02*
X122264000Y-104204000D01*
X129704000Y-98454000D02*
X129704000Y-102504000D01*
X122264000Y-98454000D02*
X129704000Y-98454000D01*
%TO.C,PORT2*%
X135541100Y-103504000D02*
X135541100Y-104204000D01*
X135541100Y-103504000D02*
X137681100Y-103504000D01*
X137681100Y-104204000D02*
X137681100Y-103504000D01*
X135541100Y-104204000D02*
X137681100Y-104204000D01*
X132381100Y-103504000D02*
X132381100Y-104204000D01*
X136981100Y-102504000D02*
X137681100Y-102504000D01*
X130241100Y-102504000D02*
X130941100Y-102504000D01*
X130941100Y-100584000D02*
X136981100Y-100584000D01*
X130941100Y-100584000D02*
X130941100Y-99154000D01*
X130941100Y-102504000D02*
X130941100Y-100584000D01*
X132381100Y-103504000D02*
X130241100Y-103504000D01*
X136981100Y-100584000D02*
X136981100Y-102504000D01*
X136981100Y-99154000D02*
X136981100Y-100584000D01*
X130941100Y-99154000D02*
X136981100Y-99154000D01*
X130241100Y-102504000D02*
X130241100Y-98454000D01*
X130241100Y-104204000D02*
X130241100Y-103504000D01*
X132381100Y-104204000D02*
X130241100Y-104204000D01*
X137681100Y-98454000D02*
X137681100Y-102504000D01*
X130241100Y-98454000D02*
X137681100Y-98454000D01*
%TO.C,PORT3*%
X143566000Y-103504000D02*
X143566000Y-104204000D01*
X143566000Y-103504000D02*
X145706000Y-103504000D01*
X145706000Y-104204000D02*
X145706000Y-103504000D01*
X143566000Y-104204000D02*
X145706000Y-104204000D01*
X140406000Y-103504000D02*
X140406000Y-104204000D01*
X145006000Y-102504000D02*
X145706000Y-102504000D01*
X138266000Y-102504000D02*
X138966000Y-102504000D01*
X138966000Y-100584000D02*
X145006000Y-100584000D01*
X138966000Y-100584000D02*
X138966000Y-99154000D01*
X138966000Y-102504000D02*
X138966000Y-100584000D01*
X140406000Y-103504000D02*
X138266000Y-103504000D01*
X145006000Y-100584000D02*
X145006000Y-102504000D01*
X145006000Y-99154000D02*
X145006000Y-100584000D01*
X138966000Y-99154000D02*
X145006000Y-99154000D01*
X138266000Y-102504000D02*
X138266000Y-98454000D01*
X138266000Y-104204000D02*
X138266000Y-103504000D01*
X140406000Y-104204000D02*
X138266000Y-104204000D01*
X145706000Y-98454000D02*
X145706000Y-102504000D01*
X138266000Y-98454000D02*
X145706000Y-98454000D01*
%TO.C,PORT4*%
X135551100Y-112068600D02*
X135551100Y-112768600D01*
X135551100Y-112068600D02*
X137691100Y-112068600D01*
X137691100Y-112768600D02*
X137691100Y-112068600D01*
X135551100Y-112768600D02*
X137691100Y-112768600D01*
X132391100Y-112068600D02*
X132391100Y-112768600D01*
X136991100Y-111068600D02*
X137691100Y-111068600D01*
X130251100Y-111068600D02*
X130951100Y-111068600D01*
X130951100Y-109148600D02*
X136991100Y-109148600D01*
X130951100Y-109148600D02*
X130951100Y-107718600D01*
X130951100Y-111068600D02*
X130951100Y-109148600D01*
X132391100Y-112068600D02*
X130251100Y-112068600D01*
X136991100Y-109148600D02*
X136991100Y-111068600D01*
X136991100Y-107718600D02*
X136991100Y-109148600D01*
X130951100Y-107718600D02*
X136991100Y-107718600D01*
X130251100Y-111068600D02*
X130251100Y-107018600D01*
X130251100Y-112768600D02*
X130251100Y-112068600D01*
X132391100Y-112768600D02*
X130251100Y-112768600D01*
X137691100Y-107018600D02*
X137691100Y-111068600D01*
X130251100Y-107018600D02*
X137691100Y-107018600D01*
%TO.C,PORT5*%
X143541100Y-112098600D02*
X143541100Y-112798600D01*
X143541100Y-112098600D02*
X145681100Y-112098600D01*
X145681100Y-112798600D02*
X145681100Y-112098600D01*
X143541100Y-112798600D02*
X145681100Y-112798600D01*
X140381100Y-112098600D02*
X140381100Y-112798600D01*
X144981100Y-111098600D02*
X145681100Y-111098600D01*
X138241100Y-111098600D02*
X138941100Y-111098600D01*
X138941100Y-109178600D02*
X144981100Y-109178600D01*
X138941100Y-109178600D02*
X138941100Y-107748600D01*
X138941100Y-111098600D02*
X138941100Y-109178600D01*
X140381100Y-112098600D02*
X138241100Y-112098600D01*
X144981100Y-109178600D02*
X144981100Y-111098600D01*
X144981100Y-107748600D02*
X144981100Y-109178600D01*
X138941100Y-107748600D02*
X144981100Y-107748600D01*
X138241100Y-111098600D02*
X138241100Y-107048600D01*
X138241100Y-112798600D02*
X138241100Y-112098600D01*
X140381100Y-112798600D02*
X138241100Y-112798600D01*
X145681100Y-107048600D02*
X145681100Y-111098600D01*
X138241100Y-107048600D02*
X145681100Y-107048600D01*
D17*
%TO.C,SW1*%
X165121100Y-118218600D02*
X165321100Y-118018600D01*
X164021100Y-118218600D02*
X163821100Y-118018600D01*
X165121100Y-119318600D02*
X165321100Y-119518600D01*
X164021100Y-119318600D02*
X163821100Y-119518600D01*
X164021100Y-118218600D02*
X164021100Y-119318600D01*
X165121100Y-118218600D02*
X164021100Y-118218600D01*
X165121100Y-119318600D02*
X165121100Y-118218600D01*
X164021100Y-119318600D02*
X165121100Y-119318600D01*
X163821100Y-119518600D02*
X165321100Y-119518600D01*
X163821100Y-118018600D02*
X163821100Y-119518600D01*
X165321100Y-118018600D02*
X163821100Y-118018600D01*
X165321100Y-119518600D02*
X165321100Y-118018600D01*
X163721100Y-116268600D02*
X163721100Y-119768600D01*
X165421100Y-116268600D02*
X163721100Y-116268600D01*
X165421100Y-119768600D02*
X165421100Y-116268600D01*
X163721100Y-119768600D02*
X165421100Y-119768600D01*
X162721100Y-113768600D02*
X162721100Y-122268600D01*
X166421100Y-113768600D02*
X162721100Y-113768600D01*
X166421100Y-122268600D02*
X166421100Y-113768600D01*
X162721100Y-122268600D02*
X166421100Y-122268600D01*
D13*
%TO.C,SW2*%
G36*
X148723600Y-101801600D02*
G01*
X148723600Y-102055600D01*
X148469600Y-101928600D01*
X148723600Y-101801600D01*
G37*
D15*
X148996100Y-101528600D02*
X148996100Y-102328600D01*
X148196100Y-101528600D02*
X148196100Y-102328600D01*
X149396100Y-102328600D02*
X149396100Y-101528600D01*
X148996100Y-102328600D02*
X149396100Y-102328600D01*
X148196100Y-102328600D02*
X148996100Y-102328600D01*
X147796100Y-102328600D02*
X148196100Y-102328600D01*
X147796100Y-101528600D02*
X147796100Y-102328600D01*
X148196100Y-101528600D02*
X147796100Y-101528600D01*
X148996100Y-101528600D02*
X148196100Y-101528600D01*
X149396100Y-101528600D02*
X148996100Y-101528600D01*
D16*
%TO.C,R2*%
X149971100Y-96303600D02*
X149971100Y-97553600D01*
X148771100Y-96303600D02*
X148771100Y-97553600D01*
X148371100Y-96303600D02*
X148371100Y-97553600D01*
X148771100Y-96303600D02*
X148371100Y-96303600D01*
X149971100Y-96303600D02*
X148771100Y-96303600D01*
X150371100Y-96303600D02*
X149971100Y-96303600D01*
X150371100Y-97553600D02*
X150371100Y-96303600D01*
X149971100Y-97553600D02*
X150371100Y-97553600D01*
X148771100Y-97553600D02*
X149971100Y-97553600D01*
X148371100Y-97553600D02*
X148771100Y-97553600D01*
%TO.C,R3*%
X163446100Y-102028600D02*
X164696100Y-102028600D01*
X163446100Y-103228600D02*
X164696100Y-103228600D01*
X163446100Y-103628600D02*
X164696100Y-103628600D01*
X163446100Y-103228600D02*
X163446100Y-103628600D01*
X163446100Y-102028600D02*
X163446100Y-103228600D01*
X163446100Y-101628600D02*
X163446100Y-102028600D01*
X164696100Y-101628600D02*
X163446100Y-101628600D01*
X164696100Y-102028600D02*
X164696100Y-101628600D01*
X164696100Y-103228600D02*
X164696100Y-102028600D01*
X164696100Y-103628600D02*
X164696100Y-103228600D01*
%TO.C,R4*%
X165446100Y-102028600D02*
X166696100Y-102028600D01*
X165446100Y-103228600D02*
X166696100Y-103228600D01*
X165446100Y-103628600D02*
X166696100Y-103628600D01*
X165446100Y-103228600D02*
X165446100Y-103628600D01*
X165446100Y-102028600D02*
X165446100Y-103228600D01*
X165446100Y-101628600D02*
X165446100Y-102028600D01*
X166696100Y-101628600D02*
X165446100Y-101628600D01*
X166696100Y-102028600D02*
X166696100Y-101628600D01*
X166696100Y-103228600D02*
X166696100Y-102028600D01*
X166696100Y-103628600D02*
X166696100Y-103228600D01*
%TO.C,SWITCH*%
X135151100Y-120578600D02*
X135151100Y-121278600D01*
X135151100Y-120578600D02*
X137291100Y-120578600D01*
X137291100Y-121278600D02*
X137291100Y-120578600D01*
X135151100Y-121278600D02*
X137291100Y-121278600D01*
X131991100Y-120578600D02*
X131991100Y-121278600D01*
X136591100Y-119578600D02*
X137291100Y-119578600D01*
X129851100Y-119578600D02*
X130551100Y-119578600D01*
X130551100Y-117658600D02*
X136591100Y-117658600D01*
X130551100Y-117658600D02*
X130551100Y-116228600D01*
X130551100Y-119578600D02*
X130551100Y-117658600D01*
X131991100Y-120578600D02*
X129851100Y-120578600D01*
X136591100Y-117658600D02*
X136591100Y-119578600D01*
X136591100Y-116228600D02*
X136591100Y-117658600D01*
X130551100Y-116228600D02*
X136591100Y-116228600D01*
X129851100Y-119578600D02*
X129851100Y-115528600D01*
X129851100Y-121278600D02*
X129851100Y-120578600D01*
X131991100Y-121278600D02*
X129851100Y-121278600D01*
X137291100Y-115528600D02*
X137291100Y-119578600D01*
X129851100Y-115528600D02*
X137291100Y-115528600D01*
%TO.C,CTRL*%
X143151100Y-120578600D02*
X143151100Y-121278600D01*
X143151100Y-120578600D02*
X145291100Y-120578600D01*
X145291100Y-121278600D02*
X145291100Y-120578600D01*
X143151100Y-121278600D02*
X145291100Y-121278600D01*
X139991100Y-120578600D02*
X139991100Y-121278600D01*
X144591100Y-119578600D02*
X145291100Y-119578600D01*
X137851100Y-119578600D02*
X138551100Y-119578600D01*
X138551100Y-117658600D02*
X144591100Y-117658600D01*
X138551100Y-117658600D02*
X138551100Y-116228600D01*
X138551100Y-119578600D02*
X138551100Y-117658600D01*
X139991100Y-120578600D02*
X137851100Y-120578600D01*
X144591100Y-117658600D02*
X144591100Y-119578600D01*
X144591100Y-116228600D02*
X144591100Y-117658600D01*
X138551100Y-116228600D02*
X144591100Y-116228600D01*
X137851100Y-119578600D02*
X137851100Y-115528600D01*
X137851100Y-121278600D02*
X137851100Y-120578600D01*
X139991100Y-121278600D02*
X137851100Y-121278600D01*
X145291100Y-115528600D02*
X145291100Y-119578600D01*
X137851100Y-115528600D02*
X145291100Y-115528600D01*
%TO.C,CTRLSP*%
X151151100Y-120578600D02*
X151151100Y-121278600D01*
X151151100Y-120578600D02*
X153291100Y-120578600D01*
X153291100Y-121278600D02*
X153291100Y-120578600D01*
X151151100Y-121278600D02*
X153291100Y-121278600D01*
X147991100Y-120578600D02*
X147991100Y-121278600D01*
X152591100Y-119578600D02*
X153291100Y-119578600D01*
X145851100Y-119578600D02*
X146551100Y-119578600D01*
X146551100Y-117658600D02*
X152591100Y-117658600D01*
X146551100Y-117658600D02*
X146551100Y-116228600D01*
X146551100Y-119578600D02*
X146551100Y-117658600D01*
X147991100Y-120578600D02*
X145851100Y-120578600D01*
X152591100Y-117658600D02*
X152591100Y-119578600D01*
X152591100Y-116228600D02*
X152591100Y-117658600D01*
X146551100Y-116228600D02*
X152591100Y-116228600D01*
X145851100Y-119578600D02*
X145851100Y-115528600D01*
X145851100Y-121278600D02*
X145851100Y-120578600D01*
X147991100Y-121278600D02*
X145851100Y-121278600D01*
X153291100Y-115528600D02*
X153291100Y-119578600D01*
X145851100Y-115528600D02*
X153291100Y-115528600D01*
D17*
%TO.C,C1*%
X161471100Y-102703600D02*
X161471100Y-104153600D01*
X160671100Y-102703600D02*
X160671100Y-104153600D01*
X160671100Y-102703600D02*
X159971100Y-102703600D01*
X161471100Y-102703600D02*
X160671100Y-102703600D01*
X162171100Y-102703600D02*
X161471100Y-102703600D01*
X162171100Y-104153600D02*
X162171100Y-102703600D01*
X161471100Y-104153600D02*
X162171100Y-104153600D01*
X160671100Y-104153600D02*
X161471100Y-104153600D01*
X159971100Y-104153600D02*
X160671100Y-104153600D01*
X159971100Y-102703600D02*
X159971100Y-104153600D01*
%TO.C,C2*%
X166296100Y-107328600D02*
X164846100Y-107328600D01*
X166296100Y-106528600D02*
X164846100Y-106528600D01*
X166296100Y-106528600D02*
X166296100Y-105828600D01*
X166296100Y-107328600D02*
X166296100Y-106528600D01*
X166296100Y-108028600D02*
X166296100Y-107328600D01*
X164846100Y-108028600D02*
X166296100Y-108028600D01*
X164846100Y-107328600D02*
X164846100Y-108028600D01*
X164846100Y-106528600D02*
X164846100Y-107328600D01*
X164846100Y-105828600D02*
X164846100Y-106528600D01*
X166296100Y-105828600D02*
X164846100Y-105828600D01*
D16*
%TO.C,R6*%
X170946100Y-111028600D02*
X172196100Y-111028600D01*
X170946100Y-112228600D02*
X172196100Y-112228600D01*
X170946100Y-112628600D02*
X172196100Y-112628600D01*
X170946100Y-112228600D02*
X170946100Y-112628600D01*
X170946100Y-111028600D02*
X170946100Y-112228600D01*
X170946100Y-110628600D02*
X170946100Y-111028600D01*
X172196100Y-110628600D02*
X170946100Y-110628600D01*
X172196100Y-111028600D02*
X172196100Y-110628600D01*
X172196100Y-112228600D02*
X172196100Y-111028600D01*
X172196100Y-112628600D02*
X172196100Y-112228600D01*
%TO.C,R7*%
X166946100Y-111028600D02*
X168196100Y-111028600D01*
X166946100Y-112228600D02*
X168196100Y-112228600D01*
X166946100Y-112628600D02*
X168196100Y-112628600D01*
X166946100Y-112228600D02*
X166946100Y-112628600D01*
X166946100Y-111028600D02*
X166946100Y-112228600D01*
X166946100Y-110628600D02*
X166946100Y-111028600D01*
X168196100Y-110628600D02*
X166946100Y-110628600D01*
X168196100Y-111028600D02*
X168196100Y-110628600D01*
X168196100Y-112228600D02*
X168196100Y-111028600D01*
X168196100Y-112628600D02*
X168196100Y-112228600D01*
%TO.C,R8*%
X154196100Y-100828600D02*
X152946100Y-100828600D01*
X154196100Y-99628600D02*
X152946100Y-99628600D01*
X154196100Y-99228600D02*
X152946100Y-99228600D01*
X154196100Y-99628600D02*
X154196100Y-99228600D01*
X154196100Y-100828600D02*
X154196100Y-99628600D01*
X154196100Y-101228600D02*
X154196100Y-100828600D01*
X152946100Y-101228600D02*
X154196100Y-101228600D01*
X152946100Y-100828600D02*
X152946100Y-101228600D01*
X152946100Y-99628600D02*
X152946100Y-100828600D01*
X152946100Y-99228600D02*
X152946100Y-99628600D01*
%TO.C,R9*%
X155471100Y-96103600D02*
X155471100Y-97353600D01*
X154271100Y-96103600D02*
X154271100Y-97353600D01*
X153871100Y-96103600D02*
X153871100Y-97353600D01*
X154271100Y-96103600D02*
X153871100Y-96103600D01*
X155471100Y-96103600D02*
X154271100Y-96103600D01*
X155871100Y-96103600D02*
X155471100Y-96103600D01*
X155871100Y-97353600D02*
X155871100Y-96103600D01*
X155471100Y-97353600D02*
X155871100Y-97353600D01*
X154271100Y-97353600D02*
X155471100Y-97353600D01*
X153871100Y-97353600D02*
X154271100Y-97353600D01*
%TO.C,R10*%
X157471100Y-100803600D02*
X157471100Y-102053600D01*
X156271100Y-100803600D02*
X156271100Y-102053600D01*
X155871100Y-100803600D02*
X155871100Y-102053600D01*
X156271100Y-100803600D02*
X155871100Y-100803600D01*
X157471100Y-100803600D02*
X156271100Y-100803600D01*
X157871100Y-100803600D02*
X157471100Y-100803600D01*
X157871100Y-102053600D02*
X157871100Y-100803600D01*
X157471100Y-102053600D02*
X157871100Y-102053600D01*
X156271100Y-102053600D02*
X157471100Y-102053600D01*
X155871100Y-102053600D02*
X156271100Y-102053600D01*
%TO.C,R11*%
X152671100Y-104053600D02*
X152671100Y-102803600D01*
X153871100Y-104053600D02*
X153871100Y-102803600D01*
X154271100Y-104053600D02*
X154271100Y-102803600D01*
X153871100Y-104053600D02*
X154271100Y-104053600D01*
X152671100Y-104053600D02*
X153871100Y-104053600D01*
X152271100Y-104053600D02*
X152671100Y-104053600D01*
X152271100Y-102803600D02*
X152271100Y-104053600D01*
X152671100Y-102803600D02*
X152271100Y-102803600D01*
X153871100Y-102803600D02*
X152671100Y-102803600D01*
X154271100Y-102803600D02*
X153871100Y-102803600D01*
%TO.C,R12*%
X151671100Y-109553600D02*
X151671100Y-108303600D01*
X152871100Y-109553600D02*
X152871100Y-108303600D01*
X153271100Y-109553600D02*
X153271100Y-108303600D01*
X152871100Y-109553600D02*
X153271100Y-109553600D01*
X151671100Y-109553600D02*
X152871100Y-109553600D01*
X151271100Y-109553600D02*
X151671100Y-109553600D01*
X151271100Y-108303600D02*
X151271100Y-109553600D01*
X151671100Y-108303600D02*
X151271100Y-108303600D01*
X152871100Y-108303600D02*
X151671100Y-108303600D01*
X153271100Y-108303600D02*
X152871100Y-108303600D01*
%TO.C,R13*%
X156671100Y-109553600D02*
X156671100Y-108303600D01*
X157871100Y-109553600D02*
X157871100Y-108303600D01*
X158271100Y-109553600D02*
X158271100Y-108303600D01*
X157871100Y-109553600D02*
X158271100Y-109553600D01*
X156671100Y-109553600D02*
X157871100Y-109553600D01*
X156271100Y-109553600D02*
X156671100Y-109553600D01*
X156271100Y-108303600D02*
X156271100Y-109553600D01*
X156671100Y-108303600D02*
X156271100Y-108303600D01*
X157871100Y-108303600D02*
X156671100Y-108303600D01*
X158271100Y-108303600D02*
X157871100Y-108303600D01*
D15*
%TO.C,U2*%
X152183500Y-110506200D02*
X152183500Y-113351000D01*
X156958700Y-110506200D02*
X152183500Y-110506200D01*
X156958700Y-113351000D02*
X156958700Y-110506200D01*
X152183500Y-113351000D02*
X156958700Y-113351000D01*
D13*
%TO.C,TP1*%
G36*
X159340579Y-115999424D02*
G01*
X159627367Y-115589848D01*
X159381621Y-115417776D01*
X159094833Y-115827352D01*
X159340579Y-115999424D01*
G37*
G36*
X160186007Y-116734204D02*
G01*
X160569029Y-116412810D01*
X160376193Y-116182996D01*
X159993171Y-116504390D01*
X160186007Y-116734204D01*
G37*
G36*
X160538441Y-117648194D02*
G01*
X161021404Y-117518784D01*
X160943759Y-117229006D01*
X160460796Y-117358416D01*
X160538441Y-117648194D01*
G37*
G36*
X160470796Y-118758784D02*
G01*
X160953759Y-118888194D01*
X161031404Y-118598416D01*
X160548441Y-118469006D01*
X160470796Y-118758784D01*
G37*
G36*
X160064176Y-119555708D02*
G01*
X160613008Y-119940004D01*
X160808024Y-119661492D01*
X160259192Y-119277196D01*
X160064176Y-119555708D01*
G37*
X155883100Y-114778600D02*
X154613100Y-116048600D01*
X160371100Y-114758600D02*
X161641100Y-116028600D01*
G36*
X158221100Y-115708600D02*
G01*
X158221100Y-115208600D01*
X157921100Y-115208600D01*
X157921100Y-115708600D01*
X158221100Y-115708600D01*
G37*
G36*
X156654833Y-115589848D02*
G01*
X156941621Y-115999424D01*
X157187367Y-115827352D01*
X156900579Y-115417776D01*
X156654833Y-115589848D01*
G37*
G36*
X155230796Y-117518784D02*
G01*
X155713759Y-117648194D01*
X155791404Y-117358416D01*
X155308441Y-117229006D01*
X155230796Y-117518784D01*
G37*
G36*
X155733171Y-116412810D02*
G01*
X156116193Y-116734204D01*
X156309029Y-116504390D01*
X155926007Y-116182996D01*
X155733171Y-116412810D01*
G37*
G36*
X155318441Y-118888194D02*
G01*
X155801404Y-118758784D01*
X155723759Y-118469006D01*
X155240796Y-118598416D01*
X155318441Y-118888194D01*
G37*
G36*
X155629192Y-119940004D02*
G01*
X156178024Y-119555708D01*
X155983008Y-119277196D01*
X155434176Y-119661492D01*
X155629192Y-119940004D01*
G37*
X154571100Y-120658600D02*
X161683100Y-120658600D01*
X161683100Y-120658600D02*
X160413100Y-121928600D01*
X155841100Y-121928600D02*
X154571100Y-120658600D01*
X154571100Y-120658600D02*
X154571100Y-121770022D01*
X154571100Y-114928600D02*
X154571100Y-120658600D01*
X159921100Y-118128600D02*
G75*
G03*
X159921100Y-118128600I-1800000J0D01*
G01*
X160121100Y-118128600D02*
G75*
G03*
X160121100Y-118128600I-2000000J0D01*
G01*
X161471100Y-114728600D02*
X154771100Y-114728600D01*
X161671100Y-121728600D02*
X161671100Y-114928600D01*
X160413100Y-121928600D02*
X161471100Y-121928600D01*
X155841100Y-121928600D02*
X160413100Y-121928600D01*
X154753943Y-121928600D02*
X155841100Y-121928600D01*
X154571100Y-114928600D02*
G75*
G02*
X154771100Y-114728600I200000J0D01*
G01*
X161471100Y-114728600D02*
G75*
G02*
X161671100Y-114928600I0J-200000D01*
G01*
X154571100Y-121770023D02*
G75*
G03*
X154612521Y-121870022I141420J0D01*
G01*
X154612521Y-121870023D02*
G75*
G03*
X154753943Y-121928600I141420J141423D01*
G01*
X161671100Y-121728600D02*
G75*
G02*
X161471100Y-121928600I-200000J0D01*
G01*
D16*
%TO.C,R5*%
X147671100Y-113053600D02*
X147671100Y-111803600D01*
X148871100Y-113053600D02*
X148871100Y-111803600D01*
X149271100Y-113053600D02*
X149271100Y-111803600D01*
X148871100Y-113053600D02*
X149271100Y-113053600D01*
X147671100Y-113053600D02*
X148871100Y-113053600D01*
X147271100Y-113053600D02*
X147671100Y-113053600D01*
X147271100Y-111803600D02*
X147271100Y-113053600D01*
X147671100Y-111803600D02*
X147271100Y-111803600D01*
X148871100Y-111803600D02*
X147671100Y-111803600D01*
X149271100Y-111803600D02*
X148871100Y-111803600D01*
%TO.C,R14*%
X168946100Y-111028600D02*
X170196100Y-111028600D01*
X168946100Y-112228600D02*
X170196100Y-112228600D01*
X168946100Y-112628600D02*
X170196100Y-112628600D01*
X168946100Y-112228600D02*
X168946100Y-112628600D01*
X168946100Y-111028600D02*
X168946100Y-112228600D01*
X168946100Y-110628600D02*
X168946100Y-111028600D01*
X170196100Y-110628600D02*
X168946100Y-110628600D01*
X170196100Y-111028600D02*
X170196100Y-110628600D01*
X170196100Y-112228600D02*
X170196100Y-111028600D01*
X170196100Y-112628600D02*
X170196100Y-112228600D01*
D15*
%TO.C,JP1*%
X124936100Y-108658600D02*
X125571100Y-109293600D01*
X123666100Y-108658600D02*
X124936100Y-108658600D01*
X123031100Y-109293600D02*
X123666100Y-108658600D01*
X123031100Y-110563600D02*
X123031100Y-109293600D01*
X123666100Y-111198600D02*
X123031100Y-110563600D01*
X124936100Y-111198600D02*
X123666100Y-111198600D01*
X125571100Y-110563600D02*
X124936100Y-111198600D01*
X126206100Y-108658600D02*
X127476100Y-108658600D01*
X128111100Y-109293600D02*
X127476100Y-108658600D01*
X127476100Y-111198600D02*
X128111100Y-110563600D01*
X128111100Y-110563600D02*
X128111100Y-109293600D01*
X125571100Y-109293600D02*
X126206100Y-108658600D01*
X125571100Y-110563600D02*
X125571100Y-109293600D01*
X126206100Y-111198600D02*
X125571100Y-110563600D01*
X127476100Y-111198600D02*
X126206100Y-111198600D01*
D16*
%TO.C,TR1*%
X164721100Y-109853600D02*
X164721100Y-110353600D01*
X165121100Y-109853600D02*
X164721100Y-109853600D01*
X165121100Y-110353600D02*
X165121100Y-109853600D01*
X164721100Y-110353600D02*
X165121100Y-110353600D01*
X164171100Y-112103600D02*
X163771100Y-112103600D01*
X164171100Y-112603600D02*
X164171100Y-112103600D01*
X163771100Y-112603600D02*
X164171100Y-112603600D01*
X163771100Y-112103600D02*
X163771100Y-112603600D01*
X166071100Y-112103600D02*
X165671100Y-112103600D01*
X166071100Y-112603600D02*
X166071100Y-112103600D01*
X165671100Y-112603600D02*
X166071100Y-112603600D01*
X165671100Y-112103600D02*
X165671100Y-112603600D01*
X163371100Y-110353600D02*
X163371100Y-112103600D01*
X164721100Y-110353600D02*
X163371100Y-110353600D01*
X166471100Y-110353600D02*
X165121100Y-110353600D01*
X166471100Y-112103600D02*
X166471100Y-110353600D01*
X166071100Y-112103600D02*
X166471100Y-112103600D01*
X164171100Y-112103600D02*
X165671100Y-112103600D01*
X163371100Y-112103600D02*
X163771100Y-112103600D01*
D13*
%TO.C,D2*%
X167996100Y-106303600D02*
X167146100Y-106303600D01*
X167996100Y-106303600D02*
X167996100Y-106003600D01*
X167996100Y-107253600D02*
X167996100Y-106303600D01*
X167146100Y-107253600D02*
X167996100Y-107253600D01*
X167146100Y-106303600D02*
X167146100Y-107253600D01*
X167146100Y-106003600D02*
X167146100Y-106303600D01*
X167996100Y-106003600D02*
X167146100Y-106003600D01*
%TO.C,D1*%
X160221100Y-101878600D02*
X160221100Y-100978600D01*
X160221100Y-100978600D02*
X159921100Y-100978600D01*
X161221100Y-100978600D02*
X160221100Y-100978600D01*
X161221100Y-101878600D02*
X161221100Y-100978600D01*
X160221100Y-101878600D02*
X161221100Y-101878600D01*
X159921100Y-101878600D02*
X160221100Y-101878600D01*
X159921100Y-100978600D02*
X159921100Y-101878600D01*
%TO.C,D3*%
X160221100Y-100378600D02*
X160221100Y-99478600D01*
X160221100Y-99478600D02*
X159921100Y-99478600D01*
X161221100Y-99478600D02*
X160221100Y-99478600D01*
X161221100Y-100378600D02*
X161221100Y-99478600D01*
X160221100Y-100378600D02*
X161221100Y-100378600D01*
X159921100Y-100378600D02*
X160221100Y-100378600D01*
X159921100Y-99478600D02*
X159921100Y-100378600D01*
%TO.C,D4*%
X160221100Y-98878600D02*
X160221100Y-97978600D01*
X160221100Y-97978600D02*
X159921100Y-97978600D01*
X161221100Y-97978600D02*
X160221100Y-97978600D01*
X161221100Y-98878600D02*
X161221100Y-97978600D01*
X160221100Y-98878600D02*
X161221100Y-98878600D01*
X159921100Y-98878600D02*
X160221100Y-98878600D01*
X159921100Y-97978600D02*
X159921100Y-98878600D01*
D17*
%TO.C,COMP1*%
X157071100Y-99528600D02*
G75*
G03*
X157071100Y-99528600I-200000J0D01*
G01*
D13*
X156046100Y-99928600D02*
X157296100Y-99928600D01*
X156046100Y-97928600D02*
X156046100Y-99928600D01*
X157296100Y-97928600D02*
X156046100Y-97928600D01*
X157296100Y-99928600D02*
X157296100Y-97928600D01*
%TO.C,POW1*%
G36*
X148723600Y-104673000D02*
G01*
X148723600Y-104927000D01*
X148469600Y-104800000D01*
X148723600Y-104673000D01*
G37*
D15*
X148996100Y-104400000D02*
X148996100Y-105200000D01*
X148196100Y-104400000D02*
X148196100Y-105200000D01*
X149396100Y-105200000D02*
X149396100Y-104400000D01*
X148996100Y-105200000D02*
X149396100Y-105200000D01*
X148196100Y-105200000D02*
X148996100Y-105200000D01*
X147796100Y-105200000D02*
X148196100Y-105200000D01*
X147796100Y-104400000D02*
X147796100Y-105200000D01*
X148196100Y-104400000D02*
X147796100Y-104400000D01*
X148996100Y-104400000D02*
X148196100Y-104400000D01*
X149396100Y-104400000D02*
X148996100Y-104400000D01*
D16*
%TO.C,R1*%
X149971100Y-98303600D02*
X149971100Y-99553600D01*
X148771100Y-98303600D02*
X148771100Y-99553600D01*
X148371100Y-98303600D02*
X148371100Y-99553600D01*
X148771100Y-98303600D02*
X148371100Y-98303600D01*
X149971100Y-98303600D02*
X148771100Y-98303600D01*
X150371100Y-98303600D02*
X149971100Y-98303600D01*
X150371100Y-99553600D02*
X150371100Y-98303600D01*
X149971100Y-99553600D02*
X150371100Y-99553600D01*
X148771100Y-99553600D02*
X149971100Y-99553600D01*
X148371100Y-99553600D02*
X148771100Y-99553600D01*
%TO.C,POWER*%
X152421100Y-94578600D02*
X152421100Y-95278600D01*
X152421100Y-94578600D02*
X154561100Y-94578600D01*
X154561100Y-95278600D02*
X154561100Y-94578600D01*
X152421100Y-95278600D02*
X154561100Y-95278600D01*
X150921100Y-94578600D02*
X150921100Y-95278600D01*
X148221100Y-94578600D02*
X148221100Y-95278600D01*
X146721100Y-94578600D02*
X146721100Y-95278600D01*
X153861100Y-93578600D02*
X154561100Y-93578600D01*
X144581100Y-93578600D02*
X145281100Y-93578600D01*
X145281100Y-91658600D02*
X153861100Y-91658600D01*
X145281100Y-91658600D02*
X145281100Y-90228600D01*
X145281100Y-93578600D02*
X145281100Y-91658600D01*
X146721100Y-94578600D02*
X144581100Y-94578600D01*
X150921100Y-94578600D02*
X148221100Y-94578600D01*
X153861100Y-91658600D02*
X153861100Y-93578600D01*
X153861100Y-90228600D02*
X153861100Y-91658600D01*
X145281100Y-90228600D02*
X153861100Y-90228600D01*
X144581100Y-93578600D02*
X144581100Y-89528600D01*
X144581100Y-95278600D02*
X144581100Y-94578600D01*
X146721100Y-95278600D02*
X144581100Y-95278600D01*
X150921100Y-95278600D02*
X148221100Y-95278600D01*
X154561100Y-89528600D02*
X154561100Y-93578600D01*
X144581100Y-89528600D02*
X154561100Y-89528600D01*
%TO.C,THRU*%
X164421100Y-94578600D02*
X164421100Y-95278600D01*
X164421100Y-94578600D02*
X166561100Y-94578600D01*
X166561100Y-95278600D02*
X166561100Y-94578600D01*
X164421100Y-95278600D02*
X166561100Y-95278600D01*
X162921100Y-94578600D02*
X162921100Y-95278600D01*
X160221100Y-94578600D02*
X160221100Y-95278600D01*
X158721100Y-94578600D02*
X158721100Y-95278600D01*
X165861100Y-93578600D02*
X166561100Y-93578600D01*
X156581100Y-93578600D02*
X157281100Y-93578600D01*
X157281100Y-91658600D02*
X165861100Y-91658600D01*
X157281100Y-91658600D02*
X157281100Y-90228600D01*
X157281100Y-93578600D02*
X157281100Y-91658600D01*
X158721100Y-94578600D02*
X156581100Y-94578600D01*
X162921100Y-94578600D02*
X160221100Y-94578600D01*
X165861100Y-91658600D02*
X165861100Y-93578600D01*
X165861100Y-90228600D02*
X165861100Y-91658600D01*
X157281100Y-90228600D02*
X165861100Y-90228600D01*
X156581100Y-93578600D02*
X156581100Y-89528600D01*
X156581100Y-95278600D02*
X156581100Y-94578600D01*
X158721100Y-95278600D02*
X156581100Y-95278600D01*
X162921100Y-95278600D02*
X160221100Y-95278600D01*
X166561100Y-89528600D02*
X166561100Y-93578600D01*
X156581100Y-89528600D02*
X166561100Y-89528600D01*
D13*
%TO.C,FET1*%
X155851100Y-104828600D02*
X158891100Y-104828600D01*
X155851100Y-103428600D02*
X155851100Y-104828600D01*
X158891100Y-103428600D02*
X155851100Y-103428600D01*
X158891100Y-104828600D02*
X158891100Y-103428600D01*
%TO.C,C3*%
X161171100Y-111628600D02*
X161171100Y-110828600D01*
X161971100Y-111628600D02*
X161971100Y-110828600D01*
X161971100Y-111628600D02*
X162371100Y-111628600D01*
X161171100Y-111628600D02*
X161971100Y-111628600D01*
X160771100Y-111628600D02*
X161171100Y-111628600D01*
X160771100Y-110828600D02*
X160771100Y-111628600D01*
X161171100Y-110828600D02*
X160771100Y-110828600D01*
X161971100Y-110828600D02*
X161171100Y-110828600D01*
X162371100Y-110828600D02*
X161971100Y-110828600D01*
X162371100Y-111628600D02*
X162371100Y-110828600D01*
%TO.C,C4*%
X141721100Y-96078600D02*
X141721100Y-87778600D01*
X134571100Y-96078600D02*
X141721100Y-96078600D01*
X133421100Y-94928600D02*
X134571100Y-96078600D01*
X133421100Y-88928600D02*
X133421100Y-94928600D01*
X134571100Y-87778600D02*
X133421100Y-88928600D01*
X141721100Y-87778600D02*
X134571100Y-87778600D01*
X141571100Y-91928600D02*
G75*
G03*
X141571100Y-91928600I-4000000J0D01*
G01*
%TO.C,U1*%
X160571100Y-109928600D02*
X163571100Y-109928600D01*
X160571100Y-106928600D02*
X160571100Y-109928600D01*
X163571100Y-106928600D02*
X160571100Y-106928600D01*
X163571100Y-109928600D02*
X163571100Y-106928600D01*
%TO.C,PORT1*%
D18*
X123371181Y-97886547D02*
X123521993Y-96680047D01*
X123981613Y-96680047D01*
X124089336Y-96737500D01*
X124139607Y-96794952D01*
X124182696Y-96909857D01*
X124161151Y-97082214D01*
X124089336Y-97197119D01*
X124024702Y-97254571D01*
X123902615Y-97312023D01*
X123442996Y-97312023D01*
X124958303Y-96680047D02*
X125188113Y-96680047D01*
X125295836Y-96737500D01*
X125396377Y-96852404D01*
X125425104Y-97082214D01*
X125374833Y-97484380D01*
X125288654Y-97714190D01*
X125159386Y-97829095D01*
X125037300Y-97886547D01*
X124807490Y-97886547D01*
X124699767Y-97829095D01*
X124599226Y-97714190D01*
X124570499Y-97484380D01*
X124620770Y-97082214D01*
X124706949Y-96852404D01*
X124836217Y-96737500D01*
X124958303Y-96680047D01*
X126531062Y-97886547D02*
X126200711Y-97312023D01*
X125841633Y-97886547D02*
X125992446Y-96680047D01*
X126452065Y-96680047D01*
X126559788Y-96737500D01*
X126610059Y-96794952D01*
X126653148Y-96909857D01*
X126631604Y-97082214D01*
X126559788Y-97197119D01*
X126495154Y-97254571D01*
X126373068Y-97312023D01*
X125913449Y-97312023D01*
X127026589Y-96680047D02*
X127716017Y-96680047D01*
X127220490Y-97886547D02*
X127371303Y-96680047D01*
X128599348Y-97886547D02*
X127909919Y-97886547D01*
X128254633Y-97886547D02*
X128405446Y-96680047D01*
X128268996Y-96852404D01*
X128139729Y-96967309D01*
X128017642Y-97024761D01*
%TO.C,PORT2*%
X131448281Y-97886547D02*
X131599093Y-96680047D01*
X132058713Y-96680047D01*
X132166436Y-96737500D01*
X132216707Y-96794952D01*
X132259796Y-96909857D01*
X132238251Y-97082214D01*
X132166436Y-97197119D01*
X132101802Y-97254571D01*
X131979715Y-97312023D01*
X131520096Y-97312023D01*
X133035403Y-96680047D02*
X133265213Y-96680047D01*
X133372936Y-96737500D01*
X133473477Y-96852404D01*
X133502204Y-97082214D01*
X133451933Y-97484380D01*
X133365754Y-97714190D01*
X133236486Y-97829095D01*
X133114400Y-97886547D01*
X132884590Y-97886547D01*
X132776867Y-97829095D01*
X132676326Y-97714190D01*
X132647599Y-97484380D01*
X132697870Y-97082214D01*
X132784049Y-96852404D01*
X132913317Y-96737500D01*
X133035403Y-96680047D01*
X134608162Y-97886547D02*
X134277811Y-97312023D01*
X133918733Y-97886547D02*
X134069546Y-96680047D01*
X134529165Y-96680047D01*
X134636888Y-96737500D01*
X134687159Y-96794952D01*
X134730248Y-96909857D01*
X134708704Y-97082214D01*
X134636888Y-97197119D01*
X134572254Y-97254571D01*
X134450168Y-97312023D01*
X133990549Y-97312023D01*
X135103689Y-96680047D02*
X135793117Y-96680047D01*
X135297590Y-97886547D02*
X135448403Y-96680047D01*
X136123468Y-96794952D02*
X136188102Y-96737500D01*
X136310189Y-96680047D01*
X136597451Y-96680047D01*
X136705174Y-96737500D01*
X136755445Y-96794952D01*
X136798534Y-96909857D01*
X136784171Y-97024761D01*
X136705174Y-97197119D01*
X135929567Y-97886547D01*
X136676448Y-97886547D01*
%TO.C,PORT3*%
X139273181Y-97986547D02*
X139423993Y-96780047D01*
X139883613Y-96780047D01*
X139991336Y-96837500D01*
X140041607Y-96894952D01*
X140084696Y-97009857D01*
X140063151Y-97182214D01*
X139991336Y-97297119D01*
X139926702Y-97354571D01*
X139804615Y-97412023D01*
X139344996Y-97412023D01*
X140860303Y-96780047D02*
X141090113Y-96780047D01*
X141197836Y-96837500D01*
X141298377Y-96952404D01*
X141327104Y-97182214D01*
X141276833Y-97584380D01*
X141190654Y-97814190D01*
X141061386Y-97929095D01*
X140939300Y-97986547D01*
X140709490Y-97986547D01*
X140601767Y-97929095D01*
X140501226Y-97814190D01*
X140472499Y-97584380D01*
X140522770Y-97182214D01*
X140608949Y-96952404D01*
X140738217Y-96837500D01*
X140860303Y-96780047D01*
X142433062Y-97986547D02*
X142102711Y-97412023D01*
X141743633Y-97986547D02*
X141894446Y-96780047D01*
X142354065Y-96780047D01*
X142461788Y-96837500D01*
X142512059Y-96894952D01*
X142555148Y-97009857D01*
X142533604Y-97182214D01*
X142461788Y-97297119D01*
X142397154Y-97354571D01*
X142275068Y-97412023D01*
X141815449Y-97412023D01*
X142928589Y-96780047D02*
X143618017Y-96780047D01*
X143122490Y-97986547D02*
X143273303Y-96780047D01*
X143905279Y-96780047D02*
X144652160Y-96780047D01*
X144192541Y-97239666D01*
X144364898Y-97239666D01*
X144472621Y-97297119D01*
X144522892Y-97354571D01*
X144565982Y-97469476D01*
X144530074Y-97756738D01*
X144458258Y-97871642D01*
X144393624Y-97929095D01*
X144271538Y-97986547D01*
X143926824Y-97986547D01*
X143819101Y-97929095D01*
X143768830Y-97871642D01*
%TO.C,PORT4*%
X131358281Y-106551147D02*
X131509093Y-105344647D01*
X131968713Y-105344647D01*
X132076436Y-105402100D01*
X132126707Y-105459552D01*
X132169796Y-105574457D01*
X132148251Y-105746814D01*
X132076436Y-105861719D01*
X132011802Y-105919171D01*
X131889715Y-105976623D01*
X131430096Y-105976623D01*
X132945403Y-105344647D02*
X133175213Y-105344647D01*
X133282936Y-105402100D01*
X133383477Y-105517004D01*
X133412204Y-105746814D01*
X133361933Y-106148980D01*
X133275754Y-106378790D01*
X133146486Y-106493695D01*
X133024400Y-106551147D01*
X132794590Y-106551147D01*
X132686867Y-106493695D01*
X132586326Y-106378790D01*
X132557599Y-106148980D01*
X132607870Y-105746814D01*
X132694049Y-105517004D01*
X132823317Y-105402100D01*
X132945403Y-105344647D01*
X134518162Y-106551147D02*
X134187811Y-105976623D01*
X133828733Y-106551147D02*
X133979546Y-105344647D01*
X134439165Y-105344647D01*
X134546888Y-105402100D01*
X134597159Y-105459552D01*
X134640248Y-105574457D01*
X134618704Y-105746814D01*
X134546888Y-105861719D01*
X134482254Y-105919171D01*
X134360168Y-105976623D01*
X133900549Y-105976623D01*
X135013689Y-105344647D02*
X135703117Y-105344647D01*
X135207590Y-106551147D02*
X135358403Y-105344647D01*
X136572085Y-105746814D02*
X136471543Y-106551147D01*
X136342275Y-105287195D02*
X135947290Y-106148980D01*
X136694171Y-106148980D01*
%TO.C,PORT5*%
X139348281Y-106581147D02*
X139499093Y-105374647D01*
X139958713Y-105374647D01*
X140066436Y-105432100D01*
X140116707Y-105489552D01*
X140159796Y-105604457D01*
X140138251Y-105776814D01*
X140066436Y-105891719D01*
X140001802Y-105949171D01*
X139879715Y-106006623D01*
X139420096Y-106006623D01*
X140935403Y-105374647D02*
X141165213Y-105374647D01*
X141272936Y-105432100D01*
X141373477Y-105547004D01*
X141402204Y-105776814D01*
X141351933Y-106178980D01*
X141265754Y-106408790D01*
X141136486Y-106523695D01*
X141014400Y-106581147D01*
X140784590Y-106581147D01*
X140676867Y-106523695D01*
X140576326Y-106408790D01*
X140547599Y-106178980D01*
X140597870Y-105776814D01*
X140684049Y-105547004D01*
X140813317Y-105432100D01*
X140935403Y-105374647D01*
X142508162Y-106581147D02*
X142177811Y-106006623D01*
X141818733Y-106581147D02*
X141969546Y-105374647D01*
X142429165Y-105374647D01*
X142536888Y-105432100D01*
X142587159Y-105489552D01*
X142630248Y-105604457D01*
X142608704Y-105776814D01*
X142536888Y-105891719D01*
X142472254Y-105949171D01*
X142350168Y-106006623D01*
X141890549Y-106006623D01*
X143003689Y-105374647D02*
X143693117Y-105374647D01*
X143197590Y-106581147D02*
X143348403Y-105374647D01*
X144669808Y-105374647D02*
X144095284Y-105374647D01*
X143966016Y-105949171D01*
X144030650Y-105891719D01*
X144152736Y-105834266D01*
X144439998Y-105834266D01*
X144547721Y-105891719D01*
X144597992Y-105949171D01*
X144641082Y-106064076D01*
X144605174Y-106351338D01*
X144533358Y-106466242D01*
X144468724Y-106523695D01*
X144346638Y-106581147D01*
X144059376Y-106581147D01*
X143951653Y-106523695D01*
X143901382Y-106466242D01*
%TO.C,SWITCH*%
X130608010Y-115003695D02*
X130773186Y-115061147D01*
X131060448Y-115061147D01*
X131182534Y-115003695D01*
X131247168Y-114946242D01*
X131318983Y-114831338D01*
X131333346Y-114716433D01*
X131290257Y-114601528D01*
X131239986Y-114544076D01*
X131132263Y-114486623D01*
X130909635Y-114429171D01*
X130801912Y-114371719D01*
X130751641Y-114314266D01*
X130708552Y-114199361D01*
X130722915Y-114084457D01*
X130794730Y-113969552D01*
X130859364Y-113912100D01*
X130981451Y-113854647D01*
X131268713Y-113854647D01*
X131433888Y-113912100D01*
X131843236Y-113854647D02*
X131979686Y-115061147D01*
X132317218Y-114199361D01*
X132439305Y-115061147D01*
X132877379Y-113854647D01*
X133186186Y-115061147D02*
X133336998Y-113854647D01*
X133739165Y-113854647D02*
X134428593Y-113854647D01*
X133933067Y-115061147D02*
X134083879Y-113854647D01*
X135383739Y-114946242D02*
X135319105Y-115003695D01*
X135139567Y-115061147D01*
X135024662Y-115061147D01*
X134859486Y-115003695D01*
X134758945Y-114888790D01*
X134715855Y-114773885D01*
X134687129Y-114544076D01*
X134708674Y-114371719D01*
X134794852Y-114141909D01*
X134866668Y-114027004D01*
X134995936Y-113912100D01*
X135175474Y-113854647D01*
X135290379Y-113854647D01*
X135455555Y-113912100D01*
X135505826Y-113969552D01*
X135886448Y-115061147D02*
X136037260Y-113854647D01*
X135965445Y-114429171D02*
X136654873Y-114429171D01*
X136575876Y-115061147D02*
X136726689Y-113854647D01*
%TO.C,CTRL*%
X140480973Y-114946242D02*
X140416339Y-115003695D01*
X140236800Y-115061147D01*
X140121895Y-115061147D01*
X139956720Y-115003695D01*
X139856178Y-114888790D01*
X139813089Y-114773885D01*
X139784363Y-114544076D01*
X139805907Y-114371719D01*
X139892086Y-114141909D01*
X139963901Y-114027004D01*
X140093169Y-113912100D01*
X140272708Y-113854647D01*
X140387613Y-113854647D01*
X140552788Y-113912100D01*
X140603059Y-113969552D01*
X140962136Y-113854647D02*
X141651565Y-113854647D01*
X141156038Y-115061147D02*
X141306851Y-113854647D01*
X142592348Y-115061147D02*
X142261996Y-114486623D01*
X141902919Y-115061147D02*
X142053732Y-113854647D01*
X142513351Y-113854647D01*
X142621074Y-113912100D01*
X142671345Y-113969552D01*
X142714434Y-114084457D01*
X142692889Y-114256814D01*
X142621074Y-114371719D01*
X142556440Y-114429171D01*
X142434354Y-114486623D01*
X141974735Y-114486623D01*
X143683943Y-115061147D02*
X143109419Y-115061147D01*
X143260232Y-113854647D01*
%TO.C,CTRLSP*%
X147237973Y-114889642D02*
X147173339Y-114947095D01*
X146993800Y-115004547D01*
X146878895Y-115004547D01*
X146713720Y-114947095D01*
X146613178Y-114832190D01*
X146570089Y-114717285D01*
X146541363Y-114487476D01*
X146562907Y-114315119D01*
X146649086Y-114085309D01*
X146720901Y-113970404D01*
X146850169Y-113855500D01*
X147029708Y-113798047D01*
X147144613Y-113798047D01*
X147309788Y-113855500D01*
X147360059Y-113912952D01*
X147719136Y-113798047D02*
X148408565Y-113798047D01*
X147913038Y-115004547D02*
X148063851Y-113798047D01*
X149349348Y-115004547D02*
X149018996Y-114430023D01*
X148659919Y-115004547D02*
X148810732Y-113798047D01*
X149270351Y-113798047D01*
X149378074Y-113855500D01*
X149428345Y-113912952D01*
X149471434Y-114027857D01*
X149449889Y-114200214D01*
X149378074Y-114315119D01*
X149313440Y-114372571D01*
X149191354Y-114430023D01*
X148731735Y-114430023D01*
X150440943Y-115004547D02*
X149866419Y-115004547D01*
X150017232Y-113798047D01*
X150792839Y-114947095D02*
X150958014Y-115004547D01*
X151245276Y-115004547D01*
X151367363Y-114947095D01*
X151431996Y-114889642D01*
X151503812Y-114774738D01*
X151518175Y-114659833D01*
X151475086Y-114544928D01*
X151424815Y-114487476D01*
X151317092Y-114430023D01*
X151094464Y-114372571D01*
X150986740Y-114315119D01*
X150936470Y-114257666D01*
X150893380Y-114142761D01*
X150907743Y-114027857D01*
X150979559Y-113912952D01*
X151044193Y-113855500D01*
X151166279Y-113798047D01*
X151453541Y-113798047D01*
X151618717Y-113855500D01*
X151992157Y-115004547D02*
X152142970Y-113798047D01*
X152602589Y-113798047D01*
X152710312Y-113855500D01*
X152760583Y-113912952D01*
X152803672Y-114027857D01*
X152782127Y-114200214D01*
X152710312Y-114315119D01*
X152645678Y-114372571D01*
X152523592Y-114430023D01*
X152063973Y-114430023D01*
%TO.C,TP1*%
D19*
X156209080Y-120878409D02*
X156643366Y-120878409D01*
X156426223Y-121638409D02*
X156426223Y-120878409D01*
X157041461Y-120878409D02*
X157186223Y-120878409D01*
X157258604Y-120914600D01*
X157330985Y-120986980D01*
X157367176Y-121131742D01*
X157367176Y-121385076D01*
X157330985Y-121529838D01*
X157258604Y-121602219D01*
X157186223Y-121638409D01*
X157041461Y-121638409D01*
X156969080Y-121602219D01*
X156896700Y-121529838D01*
X156860509Y-121385076D01*
X156860509Y-121131742D01*
X156896700Y-120986980D01*
X156969080Y-120914600D01*
X157041461Y-120878409D01*
X158127176Y-121566028D02*
X158090985Y-121602219D01*
X157982414Y-121638409D01*
X157910033Y-121638409D01*
X157801461Y-121602219D01*
X157729080Y-121529838D01*
X157692890Y-121457457D01*
X157656700Y-121312695D01*
X157656700Y-121204123D01*
X157692890Y-121059361D01*
X157729080Y-120986980D01*
X157801461Y-120914600D01*
X157910033Y-120878409D01*
X157982414Y-120878409D01*
X158090985Y-120914600D01*
X158127176Y-120950790D01*
X158597652Y-120878409D02*
X158742414Y-120878409D01*
X158814795Y-120914600D01*
X158887176Y-120986980D01*
X158923366Y-121131742D01*
X158923366Y-121385076D01*
X158887176Y-121529838D01*
X158814795Y-121602219D01*
X158742414Y-121638409D01*
X158597652Y-121638409D01*
X158525271Y-121602219D01*
X158452890Y-121529838D01*
X158416700Y-121385076D01*
X158416700Y-121131742D01*
X158452890Y-120986980D01*
X158525271Y-120914600D01*
X158597652Y-120878409D01*
X159212890Y-121602219D02*
X159321461Y-121638409D01*
X159502414Y-121638409D01*
X159574795Y-121602219D01*
X159610985Y-121566028D01*
X159647176Y-121493647D01*
X159647176Y-121421266D01*
X159610985Y-121348885D01*
X159574795Y-121312695D01*
X159502414Y-121276504D01*
X159357652Y-121240314D01*
X159285271Y-121204123D01*
X159249080Y-121167933D01*
X159212890Y-121095552D01*
X159212890Y-121023171D01*
X159249080Y-120950790D01*
X159285271Y-120914600D01*
X159357652Y-120878409D01*
X159538604Y-120878409D01*
X159647176Y-120914600D01*
%TO.C,POWER*%
D13*
X146779443Y-89072547D02*
X146930255Y-87866047D01*
X147389875Y-87866047D01*
X147497598Y-87923500D01*
X147547869Y-87980952D01*
X147590958Y-88095857D01*
X147569413Y-88268214D01*
X147497598Y-88383119D01*
X147432964Y-88440571D01*
X147310877Y-88498023D01*
X146851258Y-88498023D01*
X148366565Y-87866047D02*
X148596375Y-87866047D01*
X148704098Y-87923500D01*
X148804639Y-88038404D01*
X148833366Y-88268214D01*
X148783095Y-88670380D01*
X148696916Y-88900190D01*
X148567648Y-89015095D01*
X148445562Y-89072547D01*
X148215752Y-89072547D01*
X148108029Y-89015095D01*
X148007488Y-88900190D01*
X147978761Y-88670380D01*
X148029032Y-88268214D01*
X148115211Y-88038404D01*
X148244479Y-87923500D01*
X148366565Y-87866047D01*
X149285803Y-87866047D02*
X149422252Y-89072547D01*
X149759785Y-88210761D01*
X149881872Y-89072547D01*
X150319946Y-87866047D01*
X150707750Y-88440571D02*
X151109916Y-88440571D01*
X151203276Y-89072547D02*
X150628752Y-89072547D01*
X150779565Y-87866047D01*
X151354089Y-87866047D01*
X152409776Y-89072547D02*
X152079425Y-88498023D01*
X151720348Y-89072547D02*
X151871160Y-87866047D01*
X152330779Y-87866047D01*
X152438502Y-87923500D01*
X152488773Y-87980952D01*
X152531863Y-88095857D01*
X152510318Y-88268214D01*
X152438502Y-88383119D01*
X152373869Y-88440571D01*
X152251782Y-88498023D01*
X151792163Y-88498023D01*
%TO.C,THRU*%
D18*
X159465636Y-87866047D02*
X160155065Y-87866047D01*
X159659538Y-89072547D02*
X159810351Y-87866047D01*
X160406419Y-89072547D02*
X160557232Y-87866047D01*
X160485416Y-88440571D02*
X161174845Y-88440571D01*
X161095848Y-89072547D02*
X161246660Y-87866047D01*
X162359800Y-89072547D02*
X162029449Y-88498023D01*
X161670371Y-89072547D02*
X161821184Y-87866047D01*
X162280803Y-87866047D01*
X162388526Y-87923500D01*
X162438797Y-87980952D01*
X162481886Y-88095857D01*
X162460342Y-88268214D01*
X162388526Y-88383119D01*
X162323892Y-88440571D01*
X162201806Y-88498023D01*
X161742187Y-88498023D01*
X163027684Y-87866047D02*
X162905598Y-88842738D01*
X162948687Y-88957642D01*
X162998958Y-89015095D01*
X163106681Y-89072547D01*
X163336490Y-89072547D01*
X163458577Y-89015095D01*
X163523211Y-88957642D01*
X163595026Y-88842738D01*
X163717113Y-87866047D01*
%TD*%
M02*
